<?xml version="1.0" encoding="utf-8"?>
<!-- Generator: Adobe Illustrator 12.0.1, SVG Export Plug-In . SVG Version: 6.00 Build 51448)  -->
<!DOCTYPE svg PUBLIC "-//W3C//DTD SVG 1.1//EN" "http://www.w3.org/Graphics/SVG/1.1/DTD/svg11.dtd" [
	<!ENTITY ns_svg "http://www.w3.org/2000/svg">
	<!ENTITY ns_xlink "http://www.w3.org/1999/xlink">
]>
<svg  version="1.1" xmlns="&ns_svg;" xmlns:xlink="&ns_xlink;" width="975" height="642" viewBox="0 0 975 642"
	 style="overflow:visible;enable-background:new 0 0 975 642;" xml:space="preserve">
<g id="Layer_1">
</g>
<g id="Layer_2">
	<g>
		
			<linearGradient id="XMLID_56_" gradientUnits="userSpaceOnUse" x1="503.5547" y1="75.0688" x2="515.5547" y2="75.0688" gradientTransform="matrix(0.9848 -0.1736 0.1736 0.9848 -41.2159 89.3722)">
			<stop  offset="0" style="stop-color:#FFA6A6"/>
			<stop  offset="1" style="stop-color:#F12222"/>
		</linearGradient>
		<polygon style="fill:url(#XMLID_56_);stroke:#000000;stroke-width:1.5;stroke-linecap:round;stroke-linejoin:round;" points="
			482.2,88.9 470.4,91 465.1,60.7 476.9,58.6 		"/>
		
			<radialGradient id="XMLID_57_" cx="509.5566" cy="49.1934" r="13.1245" gradientTransform="matrix(0.9848 -0.1736 0.1736 0.9848 -41.2159 89.3722)" gradientUnits="userSpaceOnUse">
			<stop  offset="0" style="stop-color:#FFA6A6"/>
			<stop  offset="1" style="stop-color:#F12222"/>
		</radialGradient>
		
			<circle style="fill:url(#XMLID_57_);stroke:#000000;stroke-width:1.5;stroke-linecap:round;stroke-linejoin:round;" cx="469.1" cy="49.3" r="13.1"/>
		
			<linearGradient id="XMLID_58_" gradientUnits="userSpaceOnUse" x1="464.7671" y1="290.5337" x2="476.7661" y2="290.5337" gradientTransform="matrix(-0.9848 0.1736 -0.1736 -0.9848 1031.3926 526.9921)">
			<stop  offset="0" style="stop-color:#FFA6A6"/>
			<stop  offset="1" style="stop-color:#F12222"/>
		</linearGradient>
		<polygon style="fill:url(#XMLID_58_);stroke:#000000;stroke-width:1.5;stroke-linecap:round;stroke-linejoin:round;" points="
			508.8,308.5 520.6,306.4 525.9,336.7 514.1,338.8 		"/>
		
			<radialGradient id="XMLID_59_" cx="470.7676" cy="264.6567" r="13.125" gradientTransform="matrix(-0.9848 0.1736 -0.1736 -0.9848 1031.3926 526.9921)" gradientUnits="userSpaceOnUse">
			<stop  offset="0" style="stop-color:#FFA6A6"/>
			<stop  offset="1" style="stop-color:#F12222"/>
		</radialGradient>
		<path style="fill:url(#XMLID_59_);stroke:#000000;stroke-width:1.5;stroke-linecap:round;stroke-linejoin:round;" d="M508.9,350.4
			c-1.3-7.1,3.5-13.9,10.6-15.2c7.1-1.3,13.9,3.5,15.2,10.6c1.3,7.1-3.5,13.9-10.6,15.2C517,362.3,510.2,357.5,508.9,350.4z"/>
		
			<linearGradient id="XMLID_60_" gradientUnits="userSpaceOnUse" x1="517.042" y1="79.6416" x2="529.043" y2="79.6416" gradientTransform="matrix(0.9397 -0.342 0.342 0.9397 -66.287 184.5453)">
			<stop  offset="0" style="stop-color:#A6A6FF"/>
			<stop  offset="1" style="stop-color:#2222F1"/>
		</linearGradient>
		<polygon style="fill:url(#XMLID_60_);stroke:#000000;stroke-width:1.5;stroke-linecap:round;stroke-linejoin:round;" points="
			463.3,92.9 452.1,97 441.6,68.1 452.8,64 		"/>
		
			<linearGradient id="XMLID_61_" gradientUnits="userSpaceOnUse" x1="451.2759" y1="285.9609" x2="463.2817" y2="285.9609" gradientTransform="matrix(-0.9397 0.342 -0.342 -0.9397 1066.0155 429.2604)">
			<stop  offset="0" style="stop-color:#A6A6FF"/>
			<stop  offset="1" style="stop-color:#2222F1"/>
		</linearGradient>
		<polygon style="fill:url(#XMLID_61_);stroke:#000000;stroke-width:1.5;stroke-linecap:round;stroke-linejoin:round;" points="
			527.6,304.5 538.9,300.4 549.4,329.3 538.1,333.4 		"/>
		
			<linearGradient id="XMLID_62_" gradientUnits="userSpaceOnUse" x1="529.5254" y1="86.4888" x2="541.5283" y2="86.4888" gradientTransform="matrix(0.866 -0.5 0.5 0.866 -74.4499 282.6249)">
			<stop  offset="0" style="stop-color:#FFA6A6"/>
			<stop  offset="1" style="stop-color:#F12222"/>
		</linearGradient>
		<polygon style="fill:url(#XMLID_62_);stroke:#000000;stroke-width:1.5;stroke-linecap:round;stroke-linejoin:round;" points="
			445.5,100.1 435.1,106.1 419.7,79.4 430.1,73.4 		"/>
		
			<radialGradient id="XMLID_63_" cx="535.5293" cy="60.6138" r="13.1238" gradientTransform="matrix(0.866 -0.5 0.5 0.866 -74.4499 282.6249)" gradientUnits="userSpaceOnUse">
			<stop  offset="0" style="stop-color:#FFA6A6"/>
			<stop  offset="1" style="stop-color:#F12222"/>
		</radialGradient>
		<path style="fill:url(#XMLID_63_);stroke:#000000;stroke-width:1.5;stroke-linecap:round;stroke-linejoin:round;" d="M431,60.8
			c3.6,6.3,1.5,14.3-4.8,17.9c-6.3,3.6-14.3,1.5-17.9-4.8c-3.6-6.3-1.5-14.3,4.8-17.9C419.4,52.4,427.4,54.5,431,60.8z"/>
		
			<linearGradient id="XMLID_64_" gradientUnits="userSpaceOnUse" x1="438.793" y1="279.1143" x2="450.7959" y2="279.1143" gradientTransform="matrix(-0.866 0.5 -0.5 -0.866 1083.1462 326.9981)">
			<stop  offset="0" style="stop-color:#FFA6A6"/>
			<stop  offset="1" style="stop-color:#F12222"/>
		</linearGradient>
		<polygon style="fill:url(#XMLID_64_);stroke:#000000;stroke-width:1.5;stroke-linecap:round;stroke-linejoin:round;" points="
			545.5,297.4 555.9,291.4 571.3,318 560.9,324 		"/>
		
			<radialGradient id="XMLID_65_" cx="444.793" cy="253.2378" r="13.124" gradientTransform="matrix(-0.866 0.5 -0.5 -0.866 1083.1462 326.9981)" gradientUnits="userSpaceOnUse">
			<stop  offset="0" style="stop-color:#FFA6A6"/>
			<stop  offset="1" style="stop-color:#F12222"/>
		</radialGradient>
		<path style="fill:url(#XMLID_65_);stroke:#000000;stroke-width:1.5;stroke-linecap:round;stroke-linejoin:round;" d="M560,336.6
			c-3.6-6.3-1.5-14.3,4.8-17.9c6.3-3.6,14.3-1.5,17.9,4.8c3.6,6.3,1.5,14.3-4.8,17.9C571.6,345.1,563.6,342.9,560,336.6z"/>
		
			<linearGradient id="XMLID_66_" gradientUnits="userSpaceOnUse" x1="540.6367" y1="95.397" x2="552.6357" y2="95.397" gradientTransform="matrix(0.766 -0.6428 0.6428 0.766 -65.4575 380.632)">
			<stop  offset="0" style="stop-color:#A6A6FF"/>
			<stop  offset="1" style="stop-color:#2222F1"/>
		</linearGradient>
		<polygon style="fill:url(#XMLID_66_);stroke:#000000;stroke-width:1.5;stroke-linecap:round;stroke-linejoin:round;" points="
			429.1,110.3 419.9,118 400.1,94.4 409.3,86.7 		"/>
		
			<linearGradient id="XMLID_67_" gradientUnits="userSpaceOnUse" x1="427.6826" y1="270.2051" x2="439.689" y2="270.2051" gradientTransform="matrix(-0.766 0.6428 -0.6428 -0.766 1082.2563 223.3192)">
			<stop  offset="0" style="stop-color:#A6A6FF"/>
			<stop  offset="1" style="stop-color:#2222F1"/>
		</linearGradient>
		<polygon style="fill:url(#XMLID_67_);stroke:#000000;stroke-width:1.5;stroke-linecap:round;stroke-linejoin:round;" points="
			561.9,287.2 571.1,279.5 590.8,303 581.6,310.7 		"/>
		
			<linearGradient id="XMLID_68_" gradientUnits="userSpaceOnUse" x1="550.0254" y1="106.1006" x2="562.0264" y2="106.1006" gradientTransform="matrix(0.6428 -0.766 0.766 0.6428 -39.5847 475.5893)">
			<stop  offset="0" style="stop-color:#FFA6A6"/>
			<stop  offset="1" style="stop-color:#F12222"/>
		</linearGradient>
		<polygon style="fill:url(#XMLID_68_);stroke:#000000;stroke-width:1.5;stroke-linecap:round;stroke-linejoin:round;" points="
			414.7,123.1 407,132.3 383.5,112.6 391.2,103.4 		"/>
		
			<radialGradient id="XMLID_69_" cx="556.0273" cy="80.2275" r="13.1245" gradientTransform="matrix(0.6428 -0.766 0.766 0.6428 -39.5847 475.5893)" gradientUnits="userSpaceOnUse">
			<stop  offset="0" style="stop-color:#FFA6A6"/>
			<stop  offset="1" style="stop-color:#F12222"/>
		</radialGradient>
		<path style="fill:url(#XMLID_69_);stroke:#000000;stroke-width:1.5;stroke-linecap:round;stroke-linejoin:round;" d="M387.7,91.2
			c5.6,4.7,6.3,12.9,1.6,18.5c-4.7,5.6-12.9,6.3-18.5,1.6c-5.6-4.7-6.3-12.9-1.6-18.5C373.9,87.2,382.2,86.5,387.7,91.2z"/>
		
			<linearGradient id="XMLID_70_" gradientUnits="userSpaceOnUse" x1="418.2944" y1="259.499" x2="430.2944" y2="259.499" gradientTransform="matrix(-0.6428 0.766 -0.766 -0.6428 1063.3787 121.3648)">
			<stop  offset="0" style="stop-color:#FFA6A6"/>
			<stop  offset="1" style="stop-color:#F12222"/>
		</linearGradient>
		<polygon style="fill:url(#XMLID_70_);stroke:#000000;stroke-width:1.5;stroke-linecap:round;stroke-linejoin:round;" points="
			576.2,274.3 583.9,265.1 607.5,284.9 599.8,294.1 		"/>
		
			<radialGradient id="XMLID_71_" cx="424.2959" cy="233.624" r="13.1248" gradientTransform="matrix(-0.6428 0.766 -0.766 -0.6428 1063.3787 121.3648)" gradientUnits="userSpaceOnUse">
			<stop  offset="0" style="stop-color:#FFA6A6"/>
			<stop  offset="1" style="stop-color:#F12222"/>
		</radialGradient>
		<path style="fill:url(#XMLID_71_);stroke:#000000;stroke-width:1.5;stroke-linecap:round;stroke-linejoin:round;" d="M603.2,306.3
			c-5.6-4.7-6.3-12.9-1.6-18.5c4.7-5.6,12.9-6.3,18.5-1.6c5.6,4.7,6.3,12.9,1.6,18.5S608.8,310.9,603.2,306.3z"/>
		
			<linearGradient id="XMLID_72_" gradientUnits="userSpaceOnUse" x1="557.4189" y1="118.272" x2="569.4199" y2="118.272" gradientTransform="matrix(0.5 -0.866 0.866 0.5 2.3866 564.6108)">
			<stop  offset="0" style="stop-color:#A6A6FF"/>
			<stop  offset="1" style="stop-color:#2222F1"/>
		</linearGradient>
		<polygon style="fill:url(#XMLID_72_);stroke:#000000;stroke-width:1.5;stroke-linecap:round;stroke-linejoin:round;" points="
			402.8,138.3 396.8,148.7 370.2,133.3 376.2,122.9 		"/>
		
			<linearGradient id="XMLID_73_" gradientUnits="userSpaceOnUse" x1="410.8994" y1="247.3242" x2="422.9043" y2="247.3242" gradientTransform="matrix(-0.5 0.866 -0.866 -0.5 1027.0773 24.2427)">
			<stop  offset="0" style="stop-color:#A6A6FF"/>
			<stop  offset="1" style="stop-color:#2222F1"/>
		</linearGradient>
		<polygon style="fill:url(#XMLID_73_);stroke:#000000;stroke-width:1.5;stroke-linecap:round;stroke-linejoin:round;" points="
			588.1,259.1 594.1,248.7 620.8,264.1 614.7,274.5 		"/>
		
			<linearGradient id="XMLID_74_" gradientUnits="userSpaceOnUse" x1="562.5801" y1="131.5435" x2="574.5801" y2="131.5435" gradientTransform="matrix(0.342 -0.9397 0.9397 0.342 59.1773 644.9908)">
			<stop  offset="0" style="stop-color:#FFA6A6"/>
			<stop  offset="1" style="stop-color:#F12222"/>
		</linearGradient>
		<polygon style="fill:url(#XMLID_74_);stroke:#000000;stroke-width:1.5;stroke-linecap:round;stroke-linejoin:round;" points="
			393.8,155.3 389.6,166.6 360.8,156.1 364.9,144.8 		"/>
		
			<radialGradient id="XMLID_75_" cx="568.5811" cy="105.6685" r="13.1248" gradientTransform="matrix(0.342 -0.9397 0.9397 0.342 59.1773 644.9908)" gradientUnits="userSpaceOnUse">
			<stop  offset="0" style="stop-color:#FFA6A6"/>
			<stop  offset="1" style="stop-color:#F12222"/>
		</radialGradient>
		<path style="fill:url(#XMLID_75_);stroke:#000000;stroke-width:1.5;stroke-linecap:round;stroke-linejoin:round;" d="M357.4,134.5
			c6.8,2.5,10.3,10,7.8,16.8c-2.5,6.8-10,10.3-16.8,7.8c-6.8-2.5-10.3-10-7.8-16.8C343.1,135.5,350.6,132,357.4,134.5z"/>
		
			<linearGradient id="XMLID_76_" gradientUnits="userSpaceOnUse" x1="405.7378" y1="234.0557" x2="417.7388" y2="234.0557" gradientTransform="matrix(-0.342 0.9397 -0.9397 -0.342 974.4672 -65.1046)">
			<stop  offset="0" style="stop-color:#FFA6A6"/>
			<stop  offset="1" style="stop-color:#F12222"/>
		</linearGradient>
		<polygon style="fill:url(#XMLID_76_);stroke:#000000;stroke-width:1.5;stroke-linecap:round;stroke-linejoin:round;" points="
			597.2,242.1 601.3,230.9 630.2,241.4 626.1,252.6 		"/>
		
			<radialGradient id="XMLID_77_" cx="411.7373" cy="208.1792" r="13.1252" gradientTransform="matrix(-0.342 0.9397 -0.9397 -0.342 974.4672 -65.1046)" gradientUnits="userSpaceOnUse">
			<stop  offset="0" style="stop-color:#FFA6A6"/>
			<stop  offset="1" style="stop-color:#F12222"/>
		</radialGradient>
		<path style="fill:url(#XMLID_77_);stroke:#000000;stroke-width:1.5;stroke-linecap:round;stroke-linejoin:round;" d="M633.5,262.9
			c-6.8-2.5-10.3-10-7.8-16.8c2.5-6.8,10-10.3,16.8-7.8c6.8,2.5,10.3,10,7.8,16.8C647.9,261.9,640.3,265.4,633.5,262.9z"/>
		
			<linearGradient id="XMLID_78_" gradientUnits="userSpaceOnUse" x1="565.3613" y1="145.5088" x2="577.3652" y2="145.5088" gradientTransform="matrix(0.1736 -0.9848 0.9848 0.1736 129.0637 714.2887)">
			<stop  offset="0" style="stop-color:#A6A6FF"/>
			<stop  offset="1" style="stop-color:#2222F1"/>
		</linearGradient>
		<polygon style="fill:url(#XMLID_78_);stroke:#000000;stroke-width:1.5;stroke-linecap:round;stroke-linejoin:round;" points="
			387.8,173.6 385.7,185.4 355.4,180.1 357.5,168.3 		"/>
		
			<linearGradient id="XMLID_79_" gradientUnits="userSpaceOnUse" x1="402.9531" y1="220.0938" x2="414.958" y2="220.0938" gradientTransform="matrix(-0.1736 0.9848 -0.9848 -0.1736 907.1423 -143.9562)">
			<stop  offset="0" style="stop-color:#A6A6FF"/>
			<stop  offset="1" style="stop-color:#2222F1"/>
		</linearGradient>
		<polygon style="fill:url(#XMLID_79_);stroke:#000000;stroke-width:1.5;stroke-linecap:round;stroke-linejoin:round;" points="
			603.2,223.8 605.3,212 635.6,217.3 633.5,229.1 		"/>
		
			<linearGradient id="XMLID_80_" gradientUnits="userSpaceOnUse" x1="565.6777" y1="159.7432" x2="577.6777" y2="159.7432" gradientTransform="matrix(-6.718375e-08 -1 1 -8.092233e-08 209.9205 770.399)">
			<stop  offset="0" style="stop-color:#FFA6A6"/>
			<stop  offset="1" style="stop-color:#F12222"/>
		</linearGradient>
		
			<rect x="354.3" y="192.7" style="fill:url(#XMLID_80_);stroke:#000000;stroke-width:1.5;stroke-linecap:round;stroke-linejoin:round;" width="30.7" height="12"/>
		
			<radialGradient id="XMLID_81_" cx="571.6797" cy="133.8721" r="13.124" gradientTransform="matrix(-6.718375e-08 -1 1 -8.092233e-08 209.9205 770.399)" gradientUnits="userSpaceOnUse">
			<stop  offset="0" style="stop-color:#FFA6A6"/>
			<stop  offset="1" style="stop-color:#F12222"/>
		</radialGradient>
		<path style="fill:url(#XMLID_81_);stroke:#000000;stroke-width:1.5;stroke-linecap:round;stroke-linejoin:round;" d="M343.8,185.6
			c7.2,0,13.1,5.9,13.1,13.1c0,7.2-5.9,13.1-13.1,13.1c-7.2,0-13.1-5.9-13.1-13.1C330.7,191.5,336.5,185.6,343.8,185.6z"/>
		
			<linearGradient id="XMLID_82_" gradientUnits="userSpaceOnUse" x1="402.645" y1="205.8574" x2="414.6431" y2="205.8574" gradientTransform="matrix(6.718375e-08 1 -1 8.092233e-08 827.1464 -209.9224)">
			<stop  offset="0" style="stop-color:#FFA6A6"/>
			<stop  offset="1" style="stop-color:#F12222"/>
		</linearGradient>
		
			<rect x="605.9" y="192.7" style="fill:url(#XMLID_82_);stroke:#000000;stroke-width:1.5;stroke-linecap:round;stroke-linejoin:round;" width="30.8" height="12"/>
		
			<radialGradient id="XMLID_83_" cx="408.6431" cy="179.9785" r="13.124" gradientTransform="matrix(6.718375e-08 1 -1 8.092233e-08 827.1464 -209.9224)" gradientUnits="userSpaceOnUse">
			<stop  offset="0" style="stop-color:#FFA6A6"/>
			<stop  offset="1" style="stop-color:#F12222"/>
		</radialGradient>
		<path style="fill:url(#XMLID_83_);stroke:#000000;stroke-width:1.5;stroke-linecap:round;stroke-linejoin:round;" d="M647.2,211.8
			c-7.3,0-13.1-5.9-13.1-13.1c0-7.2,5.9-13.1,13.1-13.1c7.2,0,13.1,5.9,13.1,13.1S654.4,211.8,647.2,211.8z"/>
		
			<linearGradient id="XMLID_84_" gradientUnits="userSpaceOnUse" x1="563.5166" y1="173.8184" x2="575.5176" y2="173.8184" gradientTransform="matrix(-0.1736 -0.9848 0.9848 -0.1736 299.2931 811.6154)">
			<stop  offset="0" style="stop-color:#A6A6FF"/>
			<stop  offset="1" style="stop-color:#2222F1"/>
		</linearGradient>
		<polygon style="fill:url(#XMLID_84_);stroke:#000000;stroke-width:1.5;stroke-linecap:round;stroke-linejoin:round;" points="
			385.7,212 387.8,223.8 357.5,229.1 355.4,217.3 		"/>
		
			<linearGradient id="XMLID_85_" gradientUnits="userSpaceOnUse" x1="404.8008" y1="191.7822" x2="416.8076" y2="191.7822" gradientTransform="matrix(0.1736 0.9848 -0.9848 0.1736 736.912 -260.9913)">
			<stop  offset="0" style="stop-color:#A6A6FF"/>
			<stop  offset="1" style="stop-color:#2222F1"/>
		</linearGradient>
		<polygon style="fill:url(#XMLID_85_);stroke:#000000;stroke-width:1.5;stroke-linecap:round;stroke-linejoin:round;" points="
			605.3,185.5 603.2,173.6 633.5,168.3 635.6,180.1 		"/>
		
			<linearGradient id="XMLID_86_" gradientUnits="userSpaceOnUse" x1="558.9453" y1="187.3052" x2="570.9453" y2="187.3052" gradientTransform="matrix(-0.342 -0.9397 0.9397 -0.342 394.4662 836.6875)">
			<stop  offset="0" style="stop-color:#FFA6A6"/>
			<stop  offset="1" style="stop-color:#F12222"/>
		</linearGradient>
		<polygon style="fill:url(#XMLID_86_);stroke:#000000;stroke-width:1.5;stroke-linecap:round;stroke-linejoin:round;" points="
			389.6,230.9 393.8,242.1 364.9,252.6 360.8,241.4 		"/>
		
			<radialGradient id="XMLID_87_" cx="564.9473" cy="161.4312" r="13.1252" gradientTransform="matrix(-0.342 -0.9397 0.9397 -0.342 394.4662 836.6875)" gradientUnits="userSpaceOnUse">
			<stop  offset="0" style="stop-color:#FFA6A6"/>
			<stop  offset="1" style="stop-color:#F12222"/>
		</radialGradient>
		<path style="fill:url(#XMLID_87_);stroke:#000000;stroke-width:1.5;stroke-linecap:round;stroke-linejoin:round;" d="M348.5,238.3
			c6.8-2.5,14.3,1,16.8,7.8c2.5,6.8-1,14.3-7.8,16.8c-6.8,2.5-14.3-1-16.8-7.8C338.1,248.3,341.6,240.7,348.5,238.3z"/>
		
			<linearGradient id="XMLID_88_" gradientUnits="userSpaceOnUse" x1="409.3789" y1="178.2983" x2="421.3809" y2="178.2983" gradientTransform="matrix(0.342 0.9397 -0.9397 0.342 639.1797 -295.6182)">
			<stop  offset="0" style="stop-color:#FFA6A6"/>
			<stop  offset="1" style="stop-color:#F12222"/>
		</linearGradient>
		<polygon style="fill:url(#XMLID_88_);stroke:#000000;stroke-width:1.5;stroke-linecap:round;stroke-linejoin:round;" points="
			601.3,166.6 597.2,155.3 626.1,144.8 630.2,156.1 		"/>
		
			<radialGradient id="XMLID_89_" cx="415.3789" cy="152.4229" r="13.124" gradientTransform="matrix(0.342 0.9397 -0.9397 0.342 639.1797 -295.6182)" gradientUnits="userSpaceOnUse">
			<stop  offset="0" style="stop-color:#FFA6A6"/>
			<stop  offset="1" style="stop-color:#F12222"/>
		</radialGradient>
		<path style="fill:url(#XMLID_89_);stroke:#000000;stroke-width:1.5;stroke-linecap:round;stroke-linejoin:round;" d="M642.5,159.2
			c-6.8,2.5-14.3-1-16.8-7.8c-2.5-6.8,1-14.3,7.8-16.8c6.8-2.5,14.3,1,16.8,7.8C652.8,149.2,649.3,156.7,642.5,159.2z"/>
		
			<linearGradient id="XMLID_90_" gradientUnits="userSpaceOnUse" x1="552.0967" y1="199.7925" x2="564.0977" y2="199.7925" gradientTransform="matrix(-0.5 -0.866 0.866 -0.5 492.5463 844.8494)">
			<stop  offset="0" style="stop-color:#A6A6FF"/>
			<stop  offset="1" style="stop-color:#2222F1"/>
		</linearGradient>
		<polygon style="fill:url(#XMLID_90_);stroke:#000000;stroke-width:1.5;stroke-linecap:round;stroke-linejoin:round;" points="
			396.8,248.7 402.8,259.1 376.2,274.5 370.2,264.1 		"/>
		
			<linearGradient id="XMLID_91_" gradientUnits="userSpaceOnUse" x1="416.2197" y1="165.8096" x2="428.2285" y2="165.8096" gradientTransform="matrix(0.5 0.866 -0.866 0.5 536.9195 -312.7449)">
			<stop  offset="0" style="stop-color:#A6A6FF"/>
			<stop  offset="1" style="stop-color:#2222F1"/>
		</linearGradient>
		<polygon style="fill:url(#XMLID_91_);stroke:#000000;stroke-width:1.5;stroke-linecap:round;stroke-linejoin:round;" points="
			594.1,148.7 588.1,138.3 614.7,122.9 620.8,133.3 		"/>
		
			<linearGradient id="XMLID_92_" gradientUnits="userSpaceOnUse" x1="543.1855" y1="210.9009" x2="555.1865" y2="210.9009" gradientTransform="matrix(-0.6428 -0.766 0.766 -0.6428 590.553 835.8588)">
			<stop  offset="0" style="stop-color:#FFA6A6"/>
			<stop  offset="1" style="stop-color:#F12222"/>
		</linearGradient>
		<polygon style="fill:url(#XMLID_92_);stroke:#000000;stroke-width:1.5;stroke-linecap:round;stroke-linejoin:round;" points="
			407,265.1 414.7,274.3 391.2,294.1 383.5,284.9 		"/>
		
			<radialGradient id="XMLID_93_" cx="549.1885" cy="185.0273" r="13.1248" gradientTransform="matrix(-0.6428 -0.766 0.766 -0.6428 590.553 835.8588)" gradientUnits="userSpaceOnUse">
			<stop  offset="0" style="stop-color:#FFA6A6"/>
			<stop  offset="1" style="stop-color:#F12222"/>
		</radialGradient>
		<path style="fill:url(#XMLID_93_);stroke:#000000;stroke-width:1.5;stroke-linecap:round;stroke-linejoin:round;" d="M370.8,286.2
			c5.6-4.7,13.8-3.9,18.5,1.6c4.7,5.6,3.9,13.8-1.6,18.5c-5.5,4.7-13.8,3.9-18.5-1.6C364.6,299.1,365.3,290.8,370.8,286.2z"/>
		
			<linearGradient id="XMLID_94_" gradientUnits="userSpaceOnUse" x1="425.1348" y1="154.7041" x2="437.1348" y2="154.7041" gradientTransform="matrix(0.6428 0.766 -0.766 0.6428 433.2381 -311.8578)">
			<stop  offset="0" style="stop-color:#FFA6A6"/>
			<stop  offset="1" style="stop-color:#F12222"/>
		</linearGradient>
		<polygon style="fill:url(#XMLID_94_);stroke:#000000;stroke-width:1.5;stroke-linecap:round;stroke-linejoin:round;" points="
			583.9,132.3 576.2,123.1 599.8,103.4 607.5,112.6 		"/>
		
			<radialGradient id="XMLID_95_" cx="431.1338" cy="128.8276" r="13.1238" gradientTransform="matrix(0.6428 0.766 -0.766 0.6428 433.2381 -311.8578)" gradientUnits="userSpaceOnUse">
			<stop  offset="0" style="stop-color:#FFA6A6"/>
			<stop  offset="1" style="stop-color:#F12222"/>
		</radialGradient>
		<path style="fill:url(#XMLID_95_);stroke:#000000;stroke-width:1.5;stroke-linecap:round;stroke-linejoin:round;" d="M620.1,111.3
			c-5.6,4.7-13.8,3.9-18.5-1.6c-4.7-5.6-3.9-13.8,1.6-18.5c5.6-4.7,13.8-3.9,18.5,1.6C626.4,98.3,625.7,106.6,620.1,111.3z"/>
		
			<linearGradient id="XMLID_96_" gradientUnits="userSpaceOnUse" x1="532.4873" y1="220.293" x2="544.4873" y2="220.293" gradientTransform="matrix(-0.766 -0.6428 0.6428 -0.766 685.5116 809.9871)">
			<stop  offset="0" style="stop-color:#A6A6FF"/>
			<stop  offset="1" style="stop-color:#2222F1"/>
		</linearGradient>
		<polygon style="fill:url(#XMLID_96_);stroke:#000000;stroke-width:1.5;stroke-linecap:round;stroke-linejoin:round;" points="
			419.9,279.5 429.1,287.2 409.3,310.7 400.1,303 		"/>
		
			<linearGradient id="XMLID_97_" gradientUnits="userSpaceOnUse" x1="435.8311" y1="145.3096" x2="447.8408" y2="145.3096" gradientTransform="matrix(0.766 0.6428 -0.6428 0.766 331.2872 -292.9753)">
			<stop  offset="0" style="stop-color:#A6A6FF"/>
			<stop  offset="1" style="stop-color:#2222F1"/>
		</linearGradient>
		<polygon style="fill:url(#XMLID_97_);stroke:#000000;stroke-width:1.5;stroke-linecap:round;stroke-linejoin:round;" points="
			571.1,118 561.9,110.3 581.6,86.7 590.8,94.4 		"/>
		
			<linearGradient id="XMLID_98_" gradientUnits="userSpaceOnUse" x1="520.3096" y1="227.6802" x2="532.3096" y2="227.6802" gradientTransform="matrix(-0.866 -0.5 0.5 -0.866 774.5313 768.0118)">
			<stop  offset="0" style="stop-color:#FFA6A6"/>
			<stop  offset="1" style="stop-color:#F12222"/>
		</linearGradient>
		<polygon style="fill:url(#XMLID_98_);stroke:#000000;stroke-width:1.5;stroke-linecap:round;stroke-linejoin:round;" points="
			435.1,291.4 445.5,297.4 430.1,324 419.7,318 		"/>
		
			<radialGradient id="XMLID_99_" cx="526.3135" cy="201.8062" r="13.1248" gradientTransform="matrix(-0.866 -0.5 0.5 -0.866 774.5313 768.0118)" gradientUnits="userSpaceOnUse">
			<stop  offset="0" style="stop-color:#FFA6A6"/>
			<stop  offset="1" style="stop-color:#F12222"/>
		</radialGradient>
		<path style="fill:url(#XMLID_99_);stroke:#000000;stroke-width:1.5;stroke-linecap:round;stroke-linejoin:round;" d="M408.3,323.5
			c3.6-6.3,11.7-8.4,17.9-4.8c6.3,3.6,8.4,11.7,4.8,17.9c-3.6,6.3-11.7,8.4-17.9,4.8C406.8,337.8,404.6,329.8,408.3,323.5z"/>
		
			<linearGradient id="XMLID_100_" gradientUnits="userSpaceOnUse" x1="448.0098" y1="137.9209" x2="460.0127" y2="137.9209" gradientTransform="matrix(0.866 0.5 -0.5 0.866 234.1616 -256.6807)">
			<stop  offset="0" style="stop-color:#FFA6A6"/>
			<stop  offset="1" style="stop-color:#F12222"/>
		</linearGradient>
		<polygon style="fill:url(#XMLID_100_);stroke:#000000;stroke-width:1.5;stroke-linecap:round;stroke-linejoin:round;" points="
			555.9,106.1 545.5,100.1 560.9,73.5 571.3,79.5 		"/>
		
			<radialGradient id="XMLID_101_" cx="454.0073" cy="112.0435" r="13.1245" gradientTransform="matrix(0.866 0.5 -0.5 0.866 234.1616 -256.6807)" gradientUnits="userSpaceOnUse">
			<stop  offset="0" style="stop-color:#FFA6A6"/>
			<stop  offset="1" style="stop-color:#F12222"/>
		</radialGradient>
		<path style="fill:url(#XMLID_101_);stroke:#000000;stroke-width:1.5;stroke-linecap:round;stroke-linejoin:round;" d="M582.7,73.9
			c-3.6,6.3-11.7,8.4-17.9,4.8c-6.3-3.6-8.4-11.7-4.8-17.9c3.6-6.3,11.7-8.4,17.9-4.8C584.2,59.6,586.3,67.6,582.7,73.9z"/>
		
			<linearGradient id="XMLID_102_" gradientUnits="userSpaceOnUse" x1="507.043" y1="232.8491" x2="519.0449" y2="232.8491" gradientTransform="matrix(-0.9397 -0.342 0.342 -0.9397 854.9137 711.2252)">
			<stop  offset="0" style="stop-color:#A6A6FF"/>
			<stop  offset="1" style="stop-color:#2222F1"/>
		</linearGradient>
		<polygon style="fill:url(#XMLID_102_);stroke:#000000;stroke-width:1.5;stroke-linecap:round;stroke-linejoin:round;" points="
			452.1,300.4 463.3,304.6 452.8,333.4 441.6,329.3 		"/>
		
			<linearGradient id="XMLID_103_" gradientUnits="userSpaceOnUse" x1="461.2764" y1="132.7559" x2="473.2822" y2="132.7559" gradientTransform="matrix(0.9397 0.342 -0.342 0.9397 144.8173 -204.0699)">
			<stop  offset="0" style="stop-color:#A6A6FF"/>
			<stop  offset="1" style="stop-color:#2222F1"/>
		</linearGradient>
		<polygon style="fill:url(#XMLID_103_);stroke:#000000;stroke-width:1.5;stroke-linecap:round;stroke-linejoin:round;" points="
			538.9,97 527.6,92.9 538.1,64 549.4,68.1 		"/>
		
			<linearGradient id="XMLID_104_" gradientUnits="userSpaceOnUse" x1="493.0771" y1="235.626" x2="505.0762" y2="235.626" gradientTransform="matrix(-0.9848 -0.1736 0.1736 -0.9848 924.2111 641.3366)">
			<stop  offset="0" style="stop-color:#FFA6A6"/>
			<stop  offset="1" style="stop-color:#F12222"/>
		</linearGradient>
		<polygon style="fill:url(#XMLID_104_);stroke:#000000;stroke-width:1.5;stroke-linecap:round;stroke-linejoin:round;" points="
			470.4,306.4 482.2,308.5 476.9,338.8 465.1,336.7 		"/>
		
			<radialGradient id="XMLID_105_" cx="499.0781" cy="209.7539" r="13.124" gradientTransform="matrix(-0.9848 -0.1736 0.1736 -0.9848 924.2111 641.3366)" gradientUnits="userSpaceOnUse">
			<stop  offset="0" style="stop-color:#FFA6A6"/>
			<stop  offset="1" style="stop-color:#F12222"/>
		</radialGradient>
		<path style="fill:url(#XMLID_105_);stroke:#000000;stroke-width:1.5;stroke-linecap:round;stroke-linejoin:round;" d="
			M456.2,345.8c1.3-7.1,8.1-11.9,15.2-10.6c7.1,1.3,11.9,8.1,10.6,15.2s-8.1,11.9-15.2,10.6C459.7,359.8,455,353,456.2,345.8z"/>
		
			<linearGradient id="XMLID_106_" gradientUnits="userSpaceOnUse" x1="475.2437" y1="129.9746" x2="487.2466" y2="129.9746" gradientTransform="matrix(0.9848 0.1736 -0.1736 0.9848 65.9622 -136.7458)">
			<stop  offset="0" style="stop-color:#FFA6A6"/>
			<stop  offset="1" style="stop-color:#F12222"/>
		</linearGradient>
		<polygon style="fill:url(#XMLID_106_);stroke:#000000;stroke-width:1.5;stroke-linecap:round;stroke-linejoin:round;" points="
			520.6,91 508.8,88.9 514.1,58.6 525.9,60.7 		"/>
		
			<radialGradient id="XMLID_107_" cx="481.2451" cy="104.0977" r="13.125" gradientTransform="matrix(0.9848 0.1736 -0.1736 0.9848 65.9622 -136.7458)" gradientUnits="userSpaceOnUse">
			<stop  offset="0" style="stop-color:#FFA6A6"/>
			<stop  offset="1" style="stop-color:#F12222"/>
		</radialGradient>
		<path style="fill:url(#XMLID_107_);stroke:#000000;stroke-width:1.5;stroke-linecap:round;stroke-linejoin:round;" d="M534.7,51.6
			c-1.3,7.1-8.1,11.9-15.2,10.6c-7.1-1.3-11.9-8.1-10.6-15.2c1.3-7.1,8.1-11.9,15.2-10.7C531.2,37.7,536,44.5,534.7,51.6z"/>
		
			<linearGradient id="XMLID_108_" gradientUnits="userSpaceOnUse" x1="478.8398" y1="235.9443" x2="490.8438" y2="235.9443" gradientTransform="matrix(-1 0 0 -1 980.3203 560.4795)">
			<stop  offset="0" style="stop-color:#A6A6FF"/>
			<stop  offset="1" style="stop-color:#2222F1"/>
		</linearGradient>
		<polygon style="fill:url(#XMLID_108_);stroke:#000000;stroke-width:1.5;stroke-linecap:round;stroke-linejoin:round;" points="
			489.5,309.2 501.5,309.2 501.5,339.9 489.5,339.9 		"/>
		
			<linearGradient id="XMLID_109_" gradientUnits="userSpaceOnUse" x1="489.4756" y1="129.6572" x2="501.4854" y2="129.6572" gradientTransform="matrix(1 0 0 1 4.882812e-04 -56.7471)">
			<stop  offset="0" style="stop-color:#A6A6FF"/>
			<stop  offset="1" style="stop-color:#2222F1"/>
		</linearGradient>
		
			<rect x="489.5" y="57.5" style="fill:url(#XMLID_109_);stroke:#000000;stroke-width:1.5;stroke-linecap:round;stroke-linejoin:round;" width="12" height="30.8"/>
	</g>
	<radialGradient id="XMLID_110_" cx="473.332" cy="172.2812" r="151.6503" gradientUnits="userSpaceOnUse">
		<stop  offset="0" style="stop-color:#FFE8FF"/>
		<stop  offset="1" style="stop-color:#F089F1"/>
	</radialGradient>
	<path style="fill:url(#XMLID_110_);stroke:#000000;stroke-width:3;stroke-linecap:round;stroke-linejoin:round;" d="M611,198.7
		c0,63.8-51.7,115.5-115.5,115.5c-63.8,0-115.5-51.7-115.5-115.5S431.7,83.2,495.5,83.2C559.3,83.2,611,134.9,611,198.7z"/>
	<g>
		<polyline style="fill:none;stroke:#66236A;stroke-width:6;stroke-linecap:round;stroke-linejoin:round;" points="421.6,185.8 
			416.3,167.8 444.8,174.5 435.8,141.5 462.1,155.8 462.1,124.3 492.8,138.5 		"/>
		<polyline style="fill:none;stroke:#66236A;stroke-width:6;stroke-linecap:round;stroke-linejoin:round;" points="525.8,113.8 
			548.3,128.8 522.1,148.3 534.8,168.5 508.6,182 534.8,200 		"/>
		<polyline style="fill:none;stroke:#66236A;stroke-width:6;stroke-linecap:round;stroke-linejoin:round;" points="489.8,155.8 
			496.6,185 463.6,178.3 460.6,203.8 431.3,193.3 439.6,224 		"/>
		<polyline style="fill:none;stroke:#66236A;stroke-width:6;stroke-linecap:round;stroke-linejoin:round;" points="441.1,279.5 
			434.3,250.3 466.6,258.5 468.1,231.5 498.1,244.3 486.8,214.3 		"/>
		<polyline style="fill:none;stroke:#66236A;stroke-width:6;stroke-linecap:round;stroke-linejoin:round;" points="588.1,185.8 
			546.1,189.5 566.3,221 531.8,222.5 555.8,247.3 525.1,260.8 539.3,272.8 		"/>
	</g>
	<g>
		<path d="M131.3,267.2h-6.8v-2.4H141v2.4h-6.8V287h-2.9V267.2z"/>
		<path d="M143.1,271.1l3.5,9.4c0.4,1.1,0.8,2.3,1.1,3.3h0.1c0.3-1,0.6-2.2,1-3.3l3.2-9.4h3.1l-4.4,11.4c-2.1,5.5-3.5,8.3-5.5,10
			c-1.5,1.2-2.8,1.7-3.6,1.8l-0.7-2.4c0.7-0.2,1.7-0.7,2.5-1.4c0.8-0.6,1.8-1.7,2.4-3.2c0.1-0.3,0.2-0.5,0.2-0.7
			c0-0.2-0.1-0.4-0.2-0.7l-5.9-14.8H143.1z"/>
		<path d="M157.6,276.3c0-2,0-3.7-0.1-5.2h2.6l0.2,2.7h0.1c1.2-2,3.1-3.1,5.6-3.1c3.9,0,6.8,3.3,6.8,8.1c0,5.7-3.5,8.6-7.3,8.6
			c-2.1,0-4-0.9-4.9-2.5h-0.1v8.7h-2.9V276.3z M160.5,280.5c0,0.4,0,0.8,0.1,1.2c0.5,2,2.3,3.4,4.3,3.4c3.1,0,4.9-2.5,4.9-6.2
			c0-3.2-1.7-5.9-4.7-5.9c-2,0-3.9,1.4-4.4,3.6c-0.1,0.4-0.2,0.8-0.2,1.2V280.5z"/>
		<path d="M178,279.5c0.1,3.9,2.5,5.5,5.4,5.5c2.1,0,3.4-0.4,4.4-0.8l0.5,2c-1,0.5-2.8,1-5.3,1c-4.9,0-7.9-3.3-7.9-8.1
			c0-4.8,2.9-8.6,7.5-8.6c5.2,0,6.6,4.6,6.6,7.5c0,0.6,0,1.1-0.1,1.4L178,279.5z M186.5,277.5c0-1.8-0.8-4.7-4-4.7
			c-3,0-4.2,2.7-4.5,4.7H186.5z"/>
		<path d="M206.4,287.4c-4.3,0-7.7-3.2-7.7-8.2c0-5.3,3.5-8.5,7.9-8.5c4.6,0,7.7,3.3,7.7,8.2C214.4,284.8,210.3,287.4,206.4,287.4
			L206.4,287.4z M206.5,285.2c2.8,0,4.9-2.6,4.9-6.2c0-2.7-1.4-6.1-4.8-6.1c-3.4,0-4.9,3.2-4.9,6.2
			C201.7,282.6,203.7,285.2,206.5,285.2L206.5,285.2z"/>
		<path d="M218.3,287v-13.8h-2.2v-2.2h2.2v-0.8c0-2.2,0.5-4.3,1.9-5.6c1.1-1.1,2.5-1.5,3.9-1.5c1.1,0,1.9,0.2,2.5,0.5l-0.4,2.2
			c-0.5-0.2-1-0.4-1.9-0.4c-2.4,0-3.1,2.2-3.1,4.6v0.9h3.9v2.2h-3.8V287H218.3z"/>
		<path d="M234.7,275.4c0-1.7,0-3-0.1-4.3h2.6l0.2,2.6h0.1c0.8-1.5,2.6-3,5.3-3c2.2,0,5.6,1.3,5.6,6.8v9.5h-2.9v-9.2
			c0-2.6-1-4.8-3.7-4.8c-1.9,0-3.4,1.4-3.9,3c-0.1,0.4-0.2,0.9-0.2,1.4v9.6h-2.9V275.4z"/>
		<path d="M266.4,282.7c0,1.7,0,3.1,0.1,4.4h-2.6l-0.2-2.6h-0.1c-0.7,1.3-2.4,3-5.3,3c-2.5,0-5.5-1.4-5.5-7v-9.3h2.9v8.8
			c0,3,1,5.1,3.6,5.1c1.9,0,3.3-1.4,3.8-2.7c0.2-0.4,0.3-0.9,0.3-1.5v-9.8h2.9V282.7z"/>
		<path d="M282.6,286.5c-0.8,0.4-2.4,0.9-4.6,0.9c-4.8,0-8-3.3-8-8.2s3.4-8.5,8.6-8.5c1.7,0,3.2,0.4,4,0.9l-0.7,2.2
			c-0.7-0.4-1.8-0.8-3.4-0.8c-3.7,0-5.6,2.7-5.6,6.1c0,3.7,2.4,6,5.5,6c1.6,0,2.7-0.4,3.6-0.8L282.6,286.5z"/>
		<path d="M286,263.6h2.9V287H286V263.6z"/>
		<path d="M295.3,279.5c0.1,3.9,2.5,5.5,5.4,5.5c2.1,0,3.4-0.4,4.4-0.8l0.5,2c-1,0.5-2.8,1-5.3,1c-4.9,0-7.9-3.3-7.9-8.1
			c0-4.8,2.9-8.6,7.5-8.6c5.2,0,6.6,4.6,6.6,7.5c0,0.6,0,1.1-0.1,1.4L295.3,279.5z M303.8,277.5c0-1.8-0.8-4.7-4-4.7
			c-3,0-4.2,2.7-4.5,4.7H303.8z"/>
		<path d="M321.5,283.2c0,1.4,0.1,2.7,0.2,3.8h-2.6l-0.3-2h-0.1c-0.9,1.3-2.6,2.4-4.9,2.4c-3.2,0-4.9-2.3-4.9-4.6
			c0-3.9,3.4-6,9.6-5.9v-0.3c0-1.3-0.4-3.7-3.6-3.7c-1.5,0-3.1,0.4-4.2,1.2l-0.7-1.9c1.3-0.8,3.3-1.4,5.3-1.4c4.9,0,6.1,3.3,6.1,6.5
			V283.2z M318.6,278.9c-3.2-0.1-6.8,0.5-6.8,3.6c0,1.9,1.3,2.8,2.7,2.8c2.1,0,3.5-1.3,3.9-2.7c0.1-0.3,0.1-0.6,0.1-0.9V278.9z"/>
		<path d="M326.1,276c0-1.9,0-3.5-0.1-5h2.5l0.1,3.1h0.1c0.7-2.1,2.5-3.5,4.5-3.5c0.3,0,0.5,0,0.8,0.1v2.7c-0.3,0-0.6-0.1-1-0.1
			c-2,0-3.5,1.6-3.9,3.7c-0.1,0.4-0.1,0.9-0.1,1.4v8.5h-2.9L326.1,276z"/>
		<path d="M127,315c0-1.7-0.1-3-0.1-4.3h2.5l0.1,2.6h0.1c0.9-1.5,2.4-2.9,5-2.9c2.1,0,3.8,1.3,4.5,3.2h0.1c0.5-0.9,1.2-1.6,1.8-2.1
			c1-0.7,2-1.1,3.5-1.1c2.1,0,5.3,1.4,5.3,6.9v9.4H147v-9c0-3.1-1.2-4.9-3.5-4.9c-1.7,0-2.9,1.2-3.5,2.6c-0.1,0.4-0.2,1-0.2,1.5v9.9
			H137v-9.6c0-2.6-1.1-4.4-3.3-4.4c-1.8,0-3.1,1.5-3.6,2.9c-0.2,0.4-0.2,0.9-0.2,1.4v9.6H127V315z"/>
		<path d="M165.8,322.8c0,1.4,0.1,2.7,0.2,3.8h-2.6l-0.3-2H163c-0.9,1.3-2.6,2.4-4.9,2.4c-3.2,0-4.9-2.3-4.9-4.6
			c0-3.9,3.4-6,9.6-5.9v-0.3c0-1.3-0.4-3.7-3.6-3.7c-1.5,0-3.1,0.4-4.2,1.2l-0.7-1.9c1.3-0.8,3.3-1.4,5.3-1.4c4.9,0,6.1,3.3,6.1,6.5
			V322.8z M162.9,318.5c-3.2-0.1-6.8,0.5-6.8,3.6c0,1.9,1.3,2.8,2.7,2.8c2.1,0,3.5-1.3,3.9-2.7c0.1-0.3,0.1-0.6,0.1-0.9V318.5z"/>
		<path d="M173.8,306.8v3.8h4.2v2.2h-4.2v8.6c0,2,0.6,3.1,2.2,3.1c0.8,0,1.3-0.1,1.7-0.2l0.1,2.2c-0.6,0.2-1.5,0.4-2.6,0.4
			c-1.4,0-2.4-0.5-3.1-1.2c-0.8-0.9-1.1-2.3-1.1-4.2v-8.7h-2.5v-2.2h2.5v-2.9L173.8,306.8z"/>
		<path d="M182.7,319.1c0.1,3.9,2.5,5.5,5.4,5.5c2.1,0,3.4-0.4,4.4-0.8l0.5,2c-1,0.5-2.8,1-5.3,1c-4.9,0-7.9-3.3-7.9-8.1
			c0-4.9,2.9-8.6,7.5-8.6c5.2,0,6.6,4.6,6.6,7.5c0,0.6,0,1.1-0.1,1.4L182.7,319.1z M191.2,317.1c0-1.8-0.8-4.7-4-4.7
			c-3,0-4.2,2.7-4.5,4.7H191.2z"/>
		<path d="M197.6,315.6c0-1.9,0-3.5-0.1-5h2.5l0.1,3.1h0.1c0.7-2.1,2.5-3.5,4.5-3.5c0.3,0,0.5,0,0.8,0.1v2.7c-0.3,0-0.6-0.1-1-0.1
			c-2,0-3.5,1.5-3.9,3.7c-0.1,0.4-0.1,0.9-0.1,1.4v8.5h-2.9L197.6,315.6z"/>
		<path d="M209.9,307.7c-1.1,0-1.8-0.9-1.8-1.9s0.8-1.8,1.9-1.8s1.8,0.8,1.8,1.8S211,307.7,209.9,307.7L209.9,307.7z M208.5,326.6
			v-16h2.9v16H208.5z"/>
		<path d="M227.4,322.8c0,1.4,0.1,2.7,0.2,3.8h-2.6l-0.3-2h-0.1c-0.9,1.3-2.6,2.4-4.9,2.4c-3.2,0-4.9-2.3-4.9-4.6
			c0-3.9,3.4-6,9.6-5.9v-0.3c0-1.3-0.4-3.7-3.6-3.7c-1.5,0-3.1,0.4-4.2,1.2l-0.7-1.9c1.3-0.8,3.3-1.4,5.3-1.4c4.9,0,6.1,3.3,6.1,6.5
			V322.8z M224.6,318.5c-3.2-0.1-6.8,0.5-6.8,3.6c0,1.9,1.3,2.8,2.7,2.8c2.1,0,3.5-1.3,3.9-2.7c0.1-0.3,0.1-0.6,0.1-0.9V318.5z"/>
		<path d="M232.1,303.2h2.9v23.4h-2.9V303.2z"/>
	</g>
	<g>
		<path d="M695.6,285.5v-22.2h3.2l7.1,11.3c1.6,2.6,2.9,4.9,4,7.2l0.1,0c-0.3-3-0.3-5.7-0.3-9.1v-9.3h2.7v22.2h-2.9l-7.1-11.3
			c-1.6-2.5-3-5-4.1-7.4l-0.1,0c0.2,2.8,0.2,5.5,0.2,9.2v9.5H695.6z"/>
		<path d="M718.8,278c0.1,3.9,2.5,5.5,5.4,5.5c2.1,0,3.4-0.4,4.4-0.8l0.5,2c-1,0.5-2.8,1-5.3,1c-4.9,0-7.9-3.3-7.9-8.1
			c0-4.8,2.9-8.6,7.5-8.6c5.2,0,6.6,4.6,6.6,7.5c0,0.6,0,1.1-0.1,1.4L718.8,278z M727.3,276c0-1.8-0.8-4.7-4-4.7
			c-3,0-4.2,2.7-4.5,4.7H727.3z"/>
		<path d="M747.1,281.2c0,1.7,0,3.1,0.1,4.4h-2.6l-0.2-2.6h-0.1c-0.7,1.3-2.4,3-5.3,3c-2.5,0-5.5-1.4-5.5-7v-9.3h2.9v8.8
			c0,3,1,5.1,3.6,5.1c1.9,0,3.3-1.4,3.8-2.7c0.2-0.4,0.3-0.9,0.3-1.5v-9.8h2.9V281.2z"/>
		<path d="M751.9,274.5c0-1.9,0-3.5-0.1-5h2.5l0.1,3.1h0.1c0.7-2.1,2.5-3.5,4.5-3.5c0.3,0,0.5,0,0.8,0.1v2.7c-0.3,0-0.6-0.1-1-0.1
			c-2,0-3.5,1.6-3.9,3.7c-0.1,0.4-0.1,0.9-0.1,1.4v8.5h-2.9L751.9,274.5z"/>
		<path d="M773.7,281.7c0,1.4,0.1,2.7,0.2,3.8h-2.6l-0.3-2H771c-0.9,1.3-2.6,2.4-4.9,2.4c-3.2,0-4.9-2.3-4.9-4.6
			c0-3.9,3.4-6,9.6-5.9V275c0-1.3-0.4-3.7-3.6-3.7c-1.5,0-3.1,0.4-4.2,1.2l-0.7-1.9c1.3-0.8,3.3-1.4,5.3-1.4c4.9,0,6.1,3.3,6.1,6.5
			V281.7z M770.9,277.4c-3.2-0.1-6.8,0.5-6.8,3.6c0,1.9,1.3,2.8,2.7,2.8c2.1,0,3.5-1.3,3.9-2.7c0.1-0.3,0.1-0.6,0.1-0.9V277.4z"/>
		<path d="M778.4,273.9c0-1.7-0.1-3-0.1-4.3h2.5l0.1,2.6h0.1c0.9-1.5,2.4-2.9,5-2.9c2.1,0,3.8,1.3,4.5,3.2h0.1
			c0.5-0.9,1.2-1.6,1.8-2.1c1-0.7,2-1.1,3.5-1.1c2.1,0,5.3,1.4,5.3,6.9v9.4h-2.8v-9c0-3.1-1.2-4.9-3.5-4.9c-1.7,0-2.9,1.2-3.5,2.6
			c-0.1,0.4-0.2,1-0.2,1.5v9.9h-2.8V276c0-2.6-1.1-4.4-3.3-4.4c-1.8,0-3.1,1.5-3.6,2.9c-0.2,0.4-0.2,0.9-0.2,1.4v9.6h-2.8V273.9z"/>
		<path d="M807.3,266.6c-1.1,0-1.8-0.9-1.8-1.9c0-1,0.8-1.8,1.9-1.8c1.1,0,1.8,0.8,1.8,1.8C809.2,265.8,808.5,266.6,807.3,266.6
			L807.3,266.6z M805.9,285.5v-16h2.9v16H805.9z"/>
		<path d="M813.6,273.9c0-1.7,0-3-0.1-4.3h2.6l0.2,2.6h0.1c0.8-1.5,2.6-3,5.3-3c2.2,0,5.6,1.3,5.6,6.8v9.5h-2.9v-9.2
			c0-2.6-1-4.8-3.7-4.8c-1.9,0-3.4,1.4-3.9,3c-0.1,0.4-0.2,0.9-0.2,1.4v9.6h-2.9V273.9z"/>
		<path d="M833.3,266.6c-1.1,0-1.8-0.9-1.8-1.9c0-1,0.8-1.8,1.9-1.8c1.1,0,1.8,0.8,1.8,1.8C835.2,265.8,834.5,266.6,833.3,266.6
			L833.3,266.6z M831.9,285.5v-16h2.9v16H831.9z"/>
		<path d="M853.5,262.1v19.3c0,1.4,0,3,0.1,4.1H851l-0.1-2.8h-0.1c-0.9,1.8-2.8,3.1-5.4,3.1c-3.9,0-6.9-3.3-6.9-8.1
			c0-5.3,3.3-8.6,7.2-8.6c2.5,0,4.1,1.2,4.8,2.4h0.1v-9.5H853.5z M850.6,276.1c0-0.4,0-0.9-0.1-1.3c-0.4-1.8-2-3.3-4.2-3.3
			c-3,0-4.8,2.6-4.8,6.1c0,3.3,1.6,5.9,4.7,5.9c1.9,0,3.7-1.3,4.3-3.5c0.1-0.4,0.1-0.8,0.1-1.3V276.1z"/>
		<path d="M869.5,281.7c0,1.4,0.1,2.7,0.2,3.8h-2.6l-0.3-2h-0.1c-0.9,1.3-2.6,2.4-4.9,2.4c-3.2,0-4.9-2.3-4.9-4.6
			c0-3.9,3.4-6,9.6-5.9V275c0-1.3-0.4-3.7-3.6-3.7c-1.5,0-3.1,0.4-4.2,1.2l-0.7-1.9c1.3-0.8,3.3-1.4,5.3-1.4c4.9,0,6.1,3.3,6.1,6.5
			V281.7z M866.7,277.4c-3.2-0.1-6.8,0.5-6.8,3.6c0,1.9,1.3,2.8,2.7,2.8c2.1,0,3.5-1.3,3.9-2.7c0.1-0.3,0.1-0.6,0.1-0.9V277.4z"/>
		<path d="M873.8,282.6c0.9,0.5,2.4,1.1,3.9,1.1c2.1,0,3.1-1,3.1-2.4c0-1.4-0.8-2.1-2.9-2.9c-2.9-1.1-4.3-2.6-4.3-4.5
			c0-2.6,2.1-4.7,5.5-4.7c1.6,0,3,0.4,3.9,1l-0.7,2.1c-0.6-0.4-1.8-0.9-3.3-0.9c-1.7,0-2.6,1-2.6,2.2c0,1.4,0.9,1.9,3,2.7
			c2.7,1,4.2,2.4,4.2,4.8c0,2.8-2.2,4.8-5.9,4.8c-1.8,0-3.4-0.5-4.5-1.1L873.8,282.6z"/>
		<path d="M888.9,278c0.1,3.9,2.5,5.5,5.4,5.5c2.1,0,3.4-0.4,4.4-0.8l0.5,2c-1,0.5-2.8,1-5.3,1c-4.9,0-7.9-3.3-7.9-8.1
			c0-4.8,2.9-8.6,7.5-8.6c5.2,0,6.6,4.6,6.6,7.5c0,0.6,0,1.1-0.1,1.4L888.9,278z M897.4,276c0-1.8-0.8-4.7-4-4.7
			c-3,0-4.2,2.7-4.5,4.7H897.4z"/>
	</g>
	<g>
		<path d="M435.7,380.3v9.3h10.8v-9.3h2.9v22.2h-2.9v-10.4h-10.8v10.4h-2.9v-22.2H435.7z"/>
		<path d="M455.9,395c0.1,3.9,2.5,5.5,5.4,5.5c2.1,0,3.4-0.4,4.4-0.8l0.5,2c-1,0.5-2.8,1-5.3,1c-4.9,0-7.9-3.3-7.9-8.1
			c0-4.9,2.9-8.6,7.5-8.6c5.2,0,6.6,4.6,6.6,7.5c0,0.6,0,1.1-0.1,1.4L455.9,395z M464.4,393c0-1.8-0.8-4.7-4-4.7
			c-3,0-4.2,2.7-4.5,4.7H464.4z"/>
		<path d="M470.8,390.9c0-1.7-0.1-3-0.1-4.3h2.5l0.1,2.6h0.1c0.9-1.5,2.4-2.9,5-2.9c2.1,0,3.8,1.3,4.5,3.2h0.1
			c0.5-0.9,1.2-1.6,1.8-2.1c1-0.7,2-1.1,3.5-1.1c2.1,0,5.3,1.4,5.3,6.9v9.4h-2.8v-9c0-3.1-1.2-4.9-3.5-4.9c-1.7,0-2.9,1.2-3.5,2.6
			c-0.1,0.4-0.2,1-0.2,1.5v9.9h-2.8V393c0-2.6-1.1-4.4-3.3-4.4c-1.8,0-3.1,1.5-3.6,2.9c-0.2,0.4-0.2,0.9-0.2,1.4v9.6h-2.8V390.9z"/>
		<path d="M509.6,398.7c0,1.4,0.1,2.7,0.2,3.8h-2.6l-0.3-2h-0.1c-0.9,1.3-2.6,2.4-4.9,2.4c-3.2,0-4.9-2.3-4.9-4.6
			c0-3.9,3.4-6,9.6-5.9V392c0-1.3-0.4-3.7-3.6-3.7c-1.5,0-3.1,0.4-4.2,1.2l-0.7-1.9c1.3-0.8,3.3-1.4,5.3-1.4c4.9,0,6.1,3.3,6.1,6.5
			V398.7z M506.7,394.4c-3.2-0.1-6.8,0.5-6.8,3.6c0,1.9,1.3,2.8,2.7,2.8c2.1,0,3.5-1.3,3.9-2.7c0.1-0.3,0.1-0.6,0.1-0.9V394.4z"/>
		<path d="M527.9,400.2c0,3.7-0.8,5.9-2.3,7.3c-1.6,1.4-3.8,1.9-5.8,1.9c-1.9,0-4-0.5-5.3-1.3l0.7-2.2c1.1,0.7,2.7,1.3,4.7,1.3
			c3,0,5.1-1.6,5.1-5.6v-1.7h-0.1c-0.9,1.5-2.6,2.7-5.1,2.7c-4,0-6.8-3.4-6.8-7.8c0-5.4,3.5-8.4,7.2-8.4c2.8,0,4.3,1.4,5,2.7h0.1
			l0.1-2.4h2.6c-0.1,1.1-0.1,2.4-0.1,4.4V400.2z M525,392.8c0-0.5,0-0.9-0.2-1.3c-0.5-1.7-1.9-3.1-4.1-3.1c-2.8,0-4.8,2.3-4.8,6.1
			c0,3.1,1.6,5.7,4.7,5.7c1.8,0,3.4-1.1,4-3c0.2-0.5,0.2-1,0.2-1.6V392.8z"/>
		<path d="M546.3,400.2c0,3.7-0.8,5.9-2.3,7.3c-1.6,1.4-3.8,1.9-5.8,1.9c-1.9,0-4-0.5-5.3-1.3l0.7-2.2c1.1,0.7,2.7,1.3,4.7,1.3
			c3,0,5.1-1.6,5.1-5.6v-1.7h-0.1c-0.9,1.5-2.6,2.7-5.1,2.7c-4,0-6.8-3.4-6.8-7.8c0-5.4,3.5-8.4,7.2-8.4c2.8,0,4.3,1.4,5,2.7h0.1
			l0.1-2.4h2.6c-0.1,1.1-0.1,2.4-0.1,4.4V400.2z M543.4,392.8c0-0.5,0-0.9-0.2-1.3c-0.5-1.7-1.9-3.1-4.1-3.1c-2.8,0-4.8,2.3-4.8,6.1
			c0,3.1,1.6,5.7,4.7,5.7c1.8,0,3.4-1.1,4-3c0.2-0.5,0.2-1,0.2-1.6V392.8z"/>
		<path d="M551.1,379.1h2.9v23.4h-2.9V379.1z"/>
		<path d="M572.2,398.2c0,1.6,0,3.1,0.1,4.4h-2.6l-0.2-2.6h-0.1c-0.7,1.3-2.4,3-5.3,3c-2.5,0-5.5-1.4-5.5-7v-9.3h2.9v8.8
			c0,3,1,5.1,3.6,5.1c1.9,0,3.3-1.4,3.8-2.7c0.2-0.4,0.3-0.9,0.3-1.5v-9.8h2.9V398.2z"/>
		<path d="M580.5,382.7v3.8h4.2v2.2h-4.2v8.6c0,2,0.6,3.1,2.2,3.1c0.8,0,1.3-0.1,1.7-0.2l0.1,2.2c-0.6,0.2-1.4,0.4-2.6,0.4
			c-1.4,0-2.4-0.5-3.1-1.2c-0.8-0.9-1.1-2.3-1.1-4.2v-8.7h-2.5v-2.2h2.5v-2.9L580.5,382.7z"/>
		<path d="M589.3,383.6c-1.1,0-1.8-0.9-1.8-1.9c0-1,0.8-1.8,1.9-1.8c1.1,0,1.8,0.8,1.8,1.8C591.2,382.8,590.5,383.6,589.3,383.6
			L589.3,383.6z M587.9,402.5v-16h2.9v16H587.9z"/>
		<path d="M595.6,390.9c0-1.7,0-3-0.1-4.3h2.6l0.2,2.6h0.1c0.8-1.5,2.6-3,5.3-3c2.2,0,5.6,1.3,5.6,6.8v9.5h-2.9v-9.2
			c0-2.6-1-4.8-3.7-4.8c-1.9,0-3.4,1.4-3.9,3c-0.1,0.4-0.2,0.9-0.2,1.4v9.6h-2.9V390.9z"/>
		<path d="M615.3,383.6c-1.1,0-1.8-0.9-1.8-1.9c0-1,0.8-1.8,1.9-1.8s1.8,0.8,1.8,1.8C617.3,382.8,616.5,383.6,615.3,383.6
			L615.3,383.6z M614,402.5v-16h2.9v16H614z"/>
		<path d="M621.7,390.9c0-1.7,0-3-0.1-4.3h2.6l0.2,2.6h0.1c0.8-1.5,2.6-3,5.3-3c2.2,0,5.6,1.3,5.6,6.8v9.5h-2.9v-9.2
			c0-2.6-1-4.8-3.7-4.8c-1.9,0-3.4,1.4-3.9,3c-0.1,0.4-0.2,0.9-0.2,1.4v9.6h-2.9V390.9z"/>
	</g>
	<g>
		<path d="M255.8,459.2l-2.1,7.8h-7.1l9.3-30.3h9l9.4,30.3h-7.4l-2.3-7.8H255.8z M263.5,454.1l-1.9-6.4c-0.5-1.8-1-4.1-1.5-5.8h-0.1
			c-0.4,1.8-0.9,4.1-1.3,5.8l-1.8,6.4H263.5z"/>
		<path d="M276,468.8l9.6-32.6h4.5l-9.6,32.6H276z"/>
		<path d="M293.2,436.7h18.5v5.6H300v6.9h10.9v5.6H300V467h-6.8V436.7z"/>
		<path d="M336.1,460c0,2.9,0.1,5.2,0.2,7.1h-5.9l-0.3-3.1h-0.1c-0.9,1.4-2.9,3.6-6.9,3.6c-4.5,0-7.7-2.8-7.7-9.6V445h6.8v11.8
			c0,3.2,1,5.1,3.5,5.1c1.9,0,3-1.3,3.4-2.4c0.2-0.4,0.3-0.9,0.3-1.5V445h6.8V460z"/>
		<path d="M337.1,471.3c1.8-0.1,3.2-0.5,4.1-1.4c1-1,1.3-2.8,1.3-7.2V445h6.8v19.3c0,4.8-1,7.7-3.1,9.6c-2,1.8-5.2,2.7-8.5,2.7
			L337.1,471.3z M345.9,442.1c-2.3,0-3.8-1.6-3.8-3.6c0-2.1,1.5-3.6,3.9-3.6c2.3,0,3.8,1.6,3.8,3.6
			C349.8,440.5,348.3,442.1,345.9,442.1L345.9,442.1z"/>
		<path d="M358.1,442.1c-2.3,0-3.8-1.6-3.8-3.6c0-2.1,1.5-3.6,3.9-3.6c2.3,0,3.8,1.6,3.8,3.6C362,440.5,360.5,442.1,358.1,442.1
			L358.1,442.1z M354.7,467v-22h6.8v22H354.7z"/>
		<path d="M385.4,461.7c0,2.1,0.1,4.1,0.4,5.3h-6.2l-0.4-2.2H379c-1.4,1.8-3.7,2.7-6.3,2.7c-4.5,0-7.1-3.2-7.1-6.8
			c0-5.7,5.1-8.4,12.9-8.4v-0.3c0-1.2-0.6-2.8-4-2.8c-2.2,0-4.6,0.8-6.1,1.6l-1.3-4.4c1.5-0.9,4.5-2,8.6-2c7.3,0,9.6,4.3,9.6,9.5
			V461.7z M378.7,456.6c-3.6,0-6.4,0.9-6.4,3.5c0,1.8,1.2,2.6,2.7,2.6c1.7,0,3.1-1.1,3.6-2.5c0.1-0.4,0.1-0.8,0.1-1.2V456.6z"/>
		<path d="M390.8,452c0-2.7-0.1-5-0.2-7h5.9l0.3,3.1h0.1c0.9-1.4,3.1-3.6,6.8-3.6c4.5,0,7.9,3,7.9,9.5v13h-6.8v-12.2
			c0-2.8-1-4.8-3.5-4.8c-1.9,0-3,1.3-3.5,2.6c-0.2,0.4-0.2,1.1-0.2,1.7V467h-6.8V452z"/>
		<path d="M415.2,468.8l9.6-32.6h4.5l-9.6,32.6H415.2z"/>
		<path d="M443.3,467v-7h-13v-4.5l11-17.8h8.4v17.1h3.5v5.1h-3.5v7H443.3z M443.3,454.9v-6.5c0-1.8,0.1-3.6,0.2-5.4h-0.1
			c-0.9,1.9-1.8,3.6-2.7,5.4l-3.9,6.4l0,0.1H443.3z"/>
		<path d="M464.9,443.9L464.9,443.9l-5.7,2.7l-1.1-5.1l7.8-3.6h5.6V467h-6.6V443.9z"/>
		<path d="M489.9,443.9L489.9,443.9l-5.7,2.7l-1.1-5.1l7.8-3.6h5.6V467h-6.6V443.9z"/>
		<path d="M505,468.8l9.6-32.6h4.5l-9.6,32.6H505z"/>
		<path d="M521.1,467v-4.1l3.7-3.4c6.4-5.8,9.5-9,9.6-12.5c0-2.4-1.4-4.3-4.8-4.3c-2.5,0-4.7,1.3-6.3,2.4l-1.9-4.9
			c2.2-1.7,5.6-3,9.5-3c6.7,0,10.3,3.9,10.3,9.2c0,4.9-3.5,8.8-7.8,12.6l-2.7,2.3v0.1h11.1v5.6H521.1z"/>
		<path d="M556.5,467.5c-7.6,0-10.9-6.8-10.9-15.1c0-8.5,3.6-15.2,11.1-15.2c7.8,0,10.9,7,10.9,15
			C567.6,461.3,564,467.5,556.5,467.5L556.5,467.5z M556.6,462.3c2.7,0,4.1-3.3,4.1-10c0-6.5-1.4-9.9-4.1-9.9
			c-2.6,0-4.2,3.3-4.2,9.9C552.4,459.1,554,462.3,556.6,462.3L556.6,462.3z"/>
		<path d="M581.5,467.5c-7.6,0-10.9-6.8-10.9-15.1c0-8.5,3.6-15.2,11.1-15.2c7.8,0,10.9,7,10.9,15
			C592.6,461.3,588.9,467.5,581.5,467.5L581.5,467.5z M581.6,462.3c2.7,0,4.1-3.3,4.1-10c0-6.5-1.4-9.9-4.1-9.9
			c-2.6,0-4.2,3.3-4.2,9.9C577.3,459.1,578.9,462.3,581.6,462.3L581.6,462.3z"/>
		<path d="M596,467v-4.1l3.7-3.4c6.4-5.8,9.5-9,9.6-12.5c0-2.4-1.4-4.3-4.8-4.3c-2.5,0-4.7,1.3-6.3,2.4l-1.9-4.9
			c2.2-1.7,5.6-3,9.5-3c6.7,0,10.3,3.9,10.3,9.2c0,4.9-3.5,8.8-7.8,12.6l-2.7,2.3v0.1h11.1v5.6H596z"/>
		<path d="M640.7,435.9c-2.5,4.1-4.5,10.2-4.5,18.2c0,7.9,2,13.9,4.5,18.1H636c-2.4-3.5-5.1-9.4-5.1-18.1c0-8.8,2.7-14.7,5.1-18.2
			H640.7z"/>
		<path d="M652.1,436.7v11.7h11.3v-11.7h6.8V467h-6.8v-12.6h-11.3V467h-6.8v-30.3H652.1z"/>
		<path d="M676.4,460.3c1.2,0.7,4,1.8,6.8,1.8c3.6,0,5.4-1.7,5.4-3.9c0-2.9-2.9-4.2-5.9-4.2h-2.8v-4.9h2.7c2.3,0,5.2-0.9,5.2-3.4
			c0-1.8-1.4-3.1-4.3-3.1c-2.4,0-4.9,1-6.1,1.8l-1.4-4.9c1.8-1.1,5.2-2.2,9-2.2c6.2,0,9.7,3.3,9.7,7.3c0,3.1-1.8,5.6-5.4,6.8v0.1
			c3.5,0.6,6.3,3.3,6.3,7.2c0,5.1-4.5,8.9-12,8.9c-3.8,0-7-1-8.7-2L676.4,460.3z"/>
		<path d="M701.2,467v-30.3h8l6.3,11.1c1.8,3.2,3.6,7,5,10.4h0.1c-0.4-4-0.5-8.1-0.5-12.7v-8.8h6.3V467h-7.2l-6.5-11.7
			c-1.8-3.3-3.8-7.2-5.3-10.7h-0.2c0.2,4.1,0.3,8.3,0.3,13.3v9.1H701.2z"/>
		<path d="M731.2,467v-4.1l3.7-3.4c6.4-5.8,9.5-9,9.6-12.5c0-2.4-1.4-4.3-4.8-4.3c-2.5,0-4.7,1.3-6.3,2.4l-1.9-4.9
			c2.2-1.7,5.6-3,9.5-3c6.7,0,10.3,3.9,10.3,9.2c0,4.9-3.5,8.8-7.8,12.6l-2.7,2.3v0.1H752v5.6H731.2z"/>
		<path d="M755.8,472.3c2.5-4.2,4.5-10.3,4.5-18.2c0-8-2-14-4.5-18.1h4.8c2.4,3.5,5.1,9.4,5.1,18.2c0,8.7-2.7,14.6-5.1,18.2H755.8z"
			/>
	</g>
	<g>
		<path d="M69.2,569l-7.3-22.2H65l3.5,11c0.9,3,1.7,5.7,2.4,8.3H71c0.6-2.6,1.5-5.4,2.5-8.3l3.8-11h3.1l-8,22.2H69.2z"/>
		<path d="M84.4,550.1c-1.1,0-1.8-0.9-1.8-1.9c0-1,0.8-1.8,1.9-1.8c1.1,0,1.8,0.8,1.8,1.8C86.4,549.3,85.6,550.1,84.4,550.1
			L84.4,550.1z M83.1,569v-16H86v16H83.1z"/>
		<path d="M90.8,558c0-1.9,0-3.5-0.1-5h2.5l0.1,3.1h0.1c0.7-2.1,2.5-3.5,4.5-3.5c0.3,0,0.5,0,0.8,0.1v2.7c-0.3,0-0.6-0.1-1-0.1
			c-2,0-3.5,1.5-3.9,3.7c-0.1,0.4-0.1,0.9-0.1,1.4v8.5h-2.9L90.8,558z"/>
		<path d="M114.9,564.7c0,1.6,0,3.1,0.1,4.4h-2.6l-0.2-2.6h-0.1c-0.7,1.3-2.4,3-5.3,3c-2.5,0-5.5-1.4-5.5-7v-9.3h2.9v8.8
			c0,3,1,5.1,3.6,5.1c1.9,0,3.3-1.4,3.8-2.7c0.2-0.4,0.3-0.9,0.3-1.5v-9.8h2.9V564.7z"/>
		<path d="M119.3,566.1c0.9,0.5,2.4,1.1,3.9,1.1c2.1,0,3.1-1,3.1-2.4c0-1.4-0.8-2.1-2.9-2.9c-2.9-1.1-4.3-2.6-4.3-4.5
			c0-2.6,2.1-4.7,5.5-4.7c1.6,0,3,0.4,3.9,1l-0.7,2.1c-0.6-0.4-1.8-0.9-3.3-0.9c-1.7,0-2.6,1-2.6,2.2c0,1.4,0.9,1.9,3,2.7
			c2.7,1,4.2,2.4,4.2,4.8c0,2.8-2.2,4.8-5.9,4.8c-1.7,0-3.4-0.5-4.5-1.1L119.3,566.1z"/>
		<path d="M70.9,588.8v3.8h4.2v2.2h-4.2v8.6c0,2,0.6,3.1,2.2,3.1c0.8,0,1.3-0.1,1.7-0.2l0.1,2.2c-0.6,0.2-1.5,0.4-2.6,0.4
			c-1.4,0-2.4-0.5-3.1-1.2c-0.8-0.9-1.1-2.3-1.1-4.2v-8.7h-2.5v-2.2h2.5v-2.9L70.9,588.8z"/>
		<path d="M79.7,592.7l3.5,9.4c0.4,1.1,0.8,2.3,1.1,3.3h0.1c0.3-1,0.6-2.2,1-3.3l3.2-9.4h3.1L87.2,604c-2.1,5.5-3.5,8.3-5.5,10
			c-1.5,1.2-2.8,1.7-3.6,1.8l-0.7-2.4c0.7-0.2,1.7-0.7,2.5-1.4c0.8-0.6,1.7-1.7,2.4-3.2c0.1-0.3,0.2-0.5,0.2-0.7
			c0-0.2-0.1-0.4-0.2-0.7l-5.9-14.8H79.7z"/>
		<path d="M94.2,597.9c0-2,0-3.7-0.1-5.2h2.6l0.2,2.7h0.1c1.2-2,3.1-3.1,5.6-3.1c3.9,0,6.8,3.3,6.8,8.1c0,5.7-3.5,8.6-7.3,8.6
			c-2.1,0-4-0.9-4.9-2.5h-0.1v8.7h-2.9V597.9z M97.1,602.1c0,0.4,0,0.8,0.1,1.2c0.5,2,2.3,3.4,4.3,3.4c3.1,0,4.9-2.5,4.9-6.2
			c0-3.2-1.7-5.9-4.7-5.9c-2,0-3.9,1.4-4.4,3.6c-0.1,0.4-0.2,0.8-0.2,1.2V602.1z"/>
		<path d="M114.7,601.1c0.1,3.9,2.5,5.5,5.4,5.5c2.1,0,3.4-0.4,4.4-0.8l0.5,2c-1,0.5-2.8,1-5.3,1c-4.9,0-7.9-3.3-7.9-8.1
			c0-4.8,2.9-8.6,7.5-8.6c5.2,0,6.6,4.6,6.6,7.5c0,0.6,0,1.1-0.1,1.4L114.7,601.1z M123.1,599.1c0-1.8-0.8-4.7-4-4.7
			c-3,0-4.2,2.7-4.5,4.7H123.1z"/>
	</g>
	<g>
		<path d="M207.6,568c-1.3,0.5-3.9,1.2-6.9,1.2c-3.4,0-6.1-0.9-8.3-2.9c-1.9-1.8-3.1-4.8-3.1-8.3c0-6.6,4.6-11.5,12-11.5
			c2.6,0,4.6,0.6,5.6,1l-0.7,2.3c-1.2-0.6-2.7-1-4.9-1c-5.4,0-8.9,3.4-8.9,8.9c0,5.6,3.4,9,8.6,9c1.9,0,3.2-0.3,3.8-0.6v-6.6h-4.5
			v-2.3h7.3V568z"/>
		<path d="M213.8,561.5c0.1,3.9,2.5,5.5,5.4,5.5c2.1,0,3.4-0.4,4.4-0.8l0.5,2c-1,0.5-2.8,1-5.3,1c-4.9,0-7.9-3.3-7.9-8.1
			c0-4.9,2.9-8.6,7.5-8.6c5.2,0,6.6,4.6,6.6,7.5c0,0.6,0,1.1-0.1,1.4L213.8,561.5z M222.3,559.5c0-1.8-0.8-4.7-4-4.7
			c-3,0-4.2,2.7-4.5,4.7H222.3z"/>
		<path d="M235.2,569.4c-4.3,0-7.7-3.2-7.7-8.2c0-5.3,3.5-8.5,7.9-8.5c4.6,0,7.7,3.3,7.7,8.2C243.2,566.8,239.1,569.4,235.2,569.4
			L235.2,569.4z M235.3,567.2c2.8,0,4.9-2.6,4.9-6.2c0-2.7-1.4-6.1-4.8-6.1c-3.4,0-4.9,3.2-4.9,6.2
			C230.5,564.6,232.5,567.2,235.3,567.2L235.3,567.2z"/>
		<path d="M260.5,566.7c0,3.7-0.8,5.9-2.3,7.3c-1.6,1.4-3.8,1.9-5.8,1.9c-1.9,0-4-0.5-5.3-1.3l0.7-2.2c1.1,0.7,2.7,1.3,4.7,1.3
			c3,0,5.1-1.6,5.1-5.6v-1.7h-0.1c-0.9,1.5-2.6,2.7-5.1,2.7c-4,0-6.8-3.4-6.8-7.8c0-5.4,3.5-8.4,7.2-8.4c2.8,0,4.3,1.4,5,2.7h0.1
			l0.1-2.4h2.6c-0.1,1.1-0.1,2.4-0.1,4.4V566.7z M257.6,559.3c0-0.5,0-0.9-0.2-1.3c-0.5-1.7-1.9-3.1-4.1-3.1c-2.8,0-4.8,2.3-4.8,6.1
			c0,3.1,1.6,5.7,4.7,5.7c1.8,0,3.4-1.1,4-3c0.2-0.5,0.2-1,0.2-1.6V559.3z"/>
		<path d="M265.4,558c0-1.9,0-3.5-0.1-5h2.5l0.1,3.1h0.1c0.7-2.1,2.5-3.5,4.5-3.5c0.3,0,0.5,0,0.8,0.1v2.7c-0.3,0-0.6-0.1-1-0.1
			c-2,0-3.5,1.5-3.9,3.7c-0.1,0.4-0.1,0.9-0.1,1.4v8.5h-2.9L265.4,558z"/>
		<path d="M287.2,565.2c0,1.4,0.1,2.7,0.2,3.8h-2.6l-0.3-2h-0.1c-0.9,1.3-2.6,2.4-4.9,2.4c-3.2,0-4.9-2.3-4.9-4.6
			c0-3.9,3.4-6,9.6-5.9v-0.3c0-1.3-0.4-3.7-3.6-3.7c-1.5,0-3.1,0.4-4.2,1.2l-0.7-1.9c1.3-0.8,3.3-1.4,5.3-1.4c4.9,0,6.1,3.3,6.1,6.5
			V565.2z M284.3,560.9c-3.2-0.1-6.8,0.5-6.8,3.6c0,1.9,1.3,2.8,2.7,2.8c2.1,0,3.5-1.3,3.9-2.7c0.1-0.3,0.1-0.6,0.1-0.9V560.9z"/>
		<path d="M291.8,558.3c0-2,0-3.7-0.1-5.2h2.6l0.2,2.7h0.1c1.2-2,3.1-3.1,5.6-3.1c3.9,0,6.8,3.3,6.8,8.1c0,5.7-3.5,8.6-7.3,8.6
			c-2.1,0-4-0.9-4.9-2.5h-0.1v8.7h-2.9V558.3z M294.7,562.5c0,0.4,0,0.8,0.1,1.2c0.5,2,2.3,3.4,4.3,3.4c3.1,0,4.9-2.5,4.9-6.2
			c0-3.2-1.7-5.9-4.7-5.9c-2,0-3.9,1.4-4.4,3.6c-0.1,0.4-0.2,0.8-0.2,1.2V562.5z"/>
		<path d="M310.6,545.6h2.9v10h0.1c0.5-0.8,1.2-1.6,2.1-2c0.9-0.5,1.9-0.8,3-0.8c2.1,0,5.6,1.3,5.6,6.8v9.5h-2.9v-9.2
			c0-2.6-1-4.8-3.7-4.8c-1.9,0-3.3,1.3-3.9,2.9c-0.2,0.4-0.2,0.8-0.2,1.4v9.6h-2.9V545.6z"/>
		<path d="M330.3,550.1c-1.1,0-1.8-0.9-1.8-1.9c0-1,0.8-1.8,1.9-1.8c1.1,0,1.8,0.8,1.8,1.8C332.2,549.3,331.5,550.1,330.3,550.1
			L330.3,550.1z M328.9,569v-16h2.9v16H328.9z"/>
		<path d="M348,568.5c-0.8,0.4-2.4,0.9-4.6,0.9c-4.8,0-8-3.3-8-8.2c0-4.9,3.4-8.5,8.6-8.5c1.7,0,3.2,0.4,4,0.9l-0.7,2.2
			c-0.7-0.4-1.8-0.8-3.4-0.8c-3.7,0-5.6,2.7-5.6,6.1c0,3.7,2.4,6,5.5,6c1.7,0,2.7-0.4,3.6-0.8L348,568.5z"/>
		<path d="M236.9,609c-4.3,0-7.7-3.2-7.7-8.2c0-5.3,3.5-8.5,7.9-8.5c4.6,0,7.7,3.3,7.7,8.2C244.8,606.4,240.7,609,236.9,609
			L236.9,609z M237,606.8c2.8,0,4.9-2.6,4.9-6.2c0-2.7-1.4-6.1-4.8-6.1c-3.4,0-4.9,3.2-4.9,6.2C232.2,604.2,234.1,606.8,237,606.8
			L237,606.8z"/>
		<path d="M248.5,597.6c0-1.9,0-3.5-0.1-5h2.5l0.1,3.1h0.1c0.7-2.1,2.5-3.5,4.5-3.5c0.3,0,0.5,0,0.8,0.1v2.7c-0.3,0-0.6-0.1-1-0.1
			c-2,0-3.5,1.6-3.9,3.7c-0.1,0.4-0.1,0.9-0.1,1.4v8.5h-2.9L248.5,597.6z"/>
		<path d="M260.8,589.7c-1.1,0-1.8-0.9-1.8-1.9c0-1,0.8-1.8,1.9-1.8s1.8,0.8,1.8,1.8C262.7,588.9,262,589.7,260.8,589.7L260.8,589.7
			z M259.4,608.6v-16h2.9v16H259.4z"/>
		<path d="M280.8,606.3c0,3.7-0.8,5.9-2.3,7.3c-1.6,1.4-3.8,1.9-5.8,1.9c-1.9,0-4-0.5-5.3-1.3l0.7-2.2c1.1,0.7,2.7,1.3,4.7,1.3
			c3,0,5.1-1.6,5.1-5.6v-1.7h-0.1c-0.9,1.5-2.6,2.7-5.1,2.7c-4,0-6.8-3.4-6.8-7.8c0-5.4,3.5-8.4,7.2-8.4c2.8,0,4.3,1.4,5,2.7h0.1
			l0.1-2.4h2.6c-0.1,1.1-0.1,2.4-0.1,4.4V606.3z M277.9,598.9c0-0.5,0-0.9-0.2-1.3c-0.5-1.7-1.9-3.1-4.1-3.1c-2.8,0-4.8,2.3-4.8,6.1
			c0,3.1,1.6,5.7,4.7,5.7c1.8,0,3.4-1.1,4-3c0.2-0.5,0.2-1,0.2-1.5V598.9z"/>
		<path d="M287,589.7c-1.1,0-1.8-0.9-1.8-1.9c0-1,0.8-1.8,1.9-1.8c1.1,0,1.8,0.8,1.8,1.8C288.9,588.9,288.2,589.7,287,589.7
			L287,589.7z M285.6,608.6v-16h2.9v16H285.6z"/>
		<path d="M293.3,597c0-1.7,0-3-0.1-4.3h2.6l0.2,2.6h0.1c0.8-1.5,2.6-3,5.3-3c2.2,0,5.6,1.3,5.6,6.8v9.5H304v-9.2
			c0-2.6-1-4.8-3.7-4.8c-1.9,0-3.4,1.4-3.9,3c-0.1,0.4-0.2,0.9-0.2,1.4v9.6h-2.9V597z"/>
	</g>
	<g>
		<path d="M416.9,565.5c1.3,0.8,3.1,1.5,5.1,1.5c2.9,0,4.7-1.5,4.7-3.8c0-2-1.2-3.3-4.2-4.4c-3.6-1.3-5.9-3.2-5.9-6.3
			c0-3.5,2.9-6,7.2-6c2.2,0,3.9,0.5,4.9,1.1l-0.8,2.3c-0.7-0.4-2.2-1.1-4.2-1.1c-3,0-4.2,1.8-4.2,3.3c0,2.1,1.4,3.1,4.4,4.3
			c3.8,1.5,5.6,3.3,5.6,6.5c0,3.4-2.5,6.4-7.8,6.4c-2.1,0-4.5-0.7-5.7-1.5L416.9,565.5z"/>
		<path d="M436.8,549.2v3.8h4.2v2.2h-4.2v8.6c0,2,0.6,3.1,2.2,3.1c0.8,0,1.3-0.1,1.7-0.2l0.1,2.2c-0.6,0.2-1.5,0.4-2.6,0.4
			c-1.4,0-2.4-0.5-3.1-1.2c-0.8-0.9-1.1-2.3-1.1-4.2v-8.7h-2.5v-2.2h2.5v-2.9L436.8,549.2z"/>
		<path d="M444.3,558c0-1.9,0-3.5-0.1-5h2.5l0.1,3.1h0.1c0.7-2.1,2.5-3.5,4.5-3.5c0.3,0,0.5,0,0.8,0.1v2.7c-0.3,0-0.6-0.1-1-0.1
			c-2,0-3.5,1.5-3.9,3.7c-0.1,0.4-0.1,0.9-0.1,1.4v8.5h-2.9L444.3,558z"/>
		<path d="M466.1,565.2c0,1.4,0.1,2.7,0.2,3.8h-2.6l-0.3-2h-0.1c-0.9,1.3-2.6,2.4-4.9,2.4c-3.2,0-4.9-2.3-4.9-4.6
			c0-3.9,3.4-6,9.6-5.9v-0.3c0-1.3-0.4-3.7-3.6-3.7c-1.5,0-3.1,0.4-4.2,1.2l-0.7-1.9c1.3-0.8,3.3-1.4,5.3-1.4c4.9,0,6.1,3.3,6.1,6.5
			V565.2z M463.3,560.9c-3.2-0.1-6.8,0.5-6.8,3.6c0,1.9,1.3,2.8,2.7,2.8c2.1,0,3.5-1.3,3.9-2.7c0.1-0.3,0.1-0.6,0.1-0.9V560.9z"/>
		<path d="M472.1,550.1c-1.1,0-1.8-0.9-1.8-1.9c0-1,0.8-1.8,1.9-1.8c1.1,0,1.8,0.8,1.8,1.8C474.1,549.3,473.3,550.1,472.1,550.1
			L472.1,550.1z M470.8,569v-16h2.9v16H470.8z"/>
		<path d="M478.5,557.4c0-1.7,0-3-0.1-4.3h2.6l0.2,2.6h0.1c0.8-1.5,2.6-3,5.3-3c2.2,0,5.6,1.3,5.6,6.8v9.5h-2.9v-9.2
			c0-2.6-1-4.8-3.7-4.8c-1.9,0-3.4,1.4-3.9,3c-0.1,0.4-0.2,0.9-0.2,1.4v9.6h-2.9V557.4z"/>
		<path d="M401.9,597c0-1.7,0-3-0.1-4.3h2.6l0.2,2.6h0.1c0.8-1.5,2.6-3,5.3-3c2.2,0,5.6,1.3,5.6,6.8v9.5h-2.9v-9.2
			c0-2.6-1-4.8-3.7-4.8c-1.9,0-3.4,1.4-3.9,3c-0.1,0.4-0.2,0.9-0.2,1.4v9.6h-2.9V597z"/>
		<path d="M433.6,604.3c0,1.7,0,3.1,0.1,4.4h-2.6L431,606h-0.1c-0.7,1.3-2.4,3-5.3,3c-2.5,0-5.5-1.4-5.5-7v-9.3h2.9v8.8
			c0,3,1,5.1,3.6,5.1c1.9,0,3.3-1.3,3.8-2.7c0.2-0.4,0.3-0.9,0.3-1.5v-9.8h2.9V604.3z"/>
		<path d="M438.4,597c0-1.7-0.1-3-0.1-4.3h2.5l0.1,2.6h0.1c0.9-1.5,2.4-2.9,5-2.9c2.1,0,3.8,1.3,4.5,3.2h0.1
			c0.5-0.9,1.2-1.6,1.8-2.1c1-0.7,2-1.1,3.5-1.1c2.1,0,5.3,1.4,5.3,6.9v9.4h-2.8v-9c0-3.1-1.2-4.9-3.5-4.9c-1.7,0-2.9,1.2-3.5,2.6
			c-0.1,0.4-0.2,1-0.2,1.5v9.9h-2.8v-9.6c0-2.6-1.1-4.4-3.3-4.4c-1.8,0-3.1,1.5-3.6,2.9c-0.2,0.4-0.2,0.9-0.2,1.4v9.6h-2.8V597z"/>
		<path d="M465.9,585.2h2.9v10h0.1c1-1.8,2.9-2.9,5.4-2.9c4,0,6.7,3.3,6.7,8.1c0,5.7-3.6,8.6-7.2,8.6c-2.3,0-4.1-0.9-5.3-3h-0.1
			l-0.2,2.6h-2.5c0.1-1.1,0.1-2.7,0.1-4.1V585.2z M468.8,602.2c0,0.4,0,0.7,0.1,1.1c0.6,2,2.3,3.4,4.4,3.4c3.1,0,4.9-2.5,4.9-6.1
			c0-3.2-1.7-6-4.8-6c-2,0-3.8,1.4-4.4,3.6c-0.1,0.4-0.2,0.8-0.2,1.2V602.2z"/>
		<path d="M486.4,601.1c0.1,3.9,2.5,5.5,5.4,5.5c2.1,0,3.4-0.4,4.4-0.8l0.5,2c-1,0.5-2.8,1-5.3,1c-4.9,0-7.9-3.3-7.9-8.1
			c0-4.8,2.9-8.6,7.5-8.6c5.2,0,6.6,4.6,6.6,7.5c0,0.6,0,1.1-0.1,1.4L486.4,601.1z M494.9,599.1c0-1.8-0.8-4.7-4-4.7
			c-3,0-4.2,2.7-4.5,4.7H494.9z"/>
		<path d="M501.3,597.6c0-1.9,0-3.5-0.1-5h2.5l0.1,3.1h0.1c0.7-2.1,2.5-3.5,4.5-3.5c0.3,0,0.5,0,0.8,0.1v2.7c-0.3,0-0.6-0.1-1-0.1
			c-2,0-3.5,1.6-3.9,3.7c-0.1,0.4-0.1,0.9-0.1,1.4v8.5h-2.9L501.3,597.6z"/>
	</g>
	<g>
		<path d="M589.3,569v-9.4l-7.1-12.8h3.3l3.1,6.1c0.8,1.7,1.5,3,2.2,4.6h0.1c0.6-1.5,1.4-2.9,2.2-4.6l3.2-6.1h3.2l-7.4,12.8v9.5
			H589.3z"/>
		<path d="M601.4,561.5c0.1,3.9,2.5,5.5,5.4,5.5c2.1,0,3.4-0.4,4.4-0.8l0.5,2c-1,0.5-2.8,1-5.3,1c-4.9,0-7.9-3.3-7.9-8.1
			c0-4.9,2.9-8.6,7.5-8.6c5.2,0,6.6,4.6,6.6,7.5c0,0.6,0,1.1-0.1,1.4L601.4,561.5z M609.9,559.5c0-1.8-0.8-4.7-4-4.7
			c-3,0-4.2,2.7-4.5,4.7H609.9z"/>
		<path d="M627.5,565.2c0,1.4,0.1,2.7,0.2,3.8h-2.6l-0.3-2h-0.1c-0.9,1.3-2.6,2.4-4.9,2.4c-3.2,0-4.9-2.3-4.9-4.6
			c0-3.9,3.4-6,9.6-5.9v-0.3c0-1.3-0.4-3.7-3.6-3.7c-1.5,0-3.1,0.4-4.2,1.2l-0.7-1.9c1.3-0.8,3.3-1.4,5.3-1.4c4.9,0,6.1,3.3,6.1,6.5
			V565.2z M624.7,560.9c-3.2-0.1-6.8,0.5-6.8,3.6c0,1.9,1.3,2.8,2.7,2.8c2.1,0,3.5-1.3,3.9-2.7c0.1-0.3,0.1-0.6,0.1-0.9V560.9z"/>
		<path d="M632.2,558c0-1.9,0-3.5-0.1-5h2.5l0.1,3.1h0.1c0.7-2.1,2.5-3.5,4.5-3.5c0.3,0,0.5,0,0.8,0.1v2.7c-0.3,0-0.6-0.1-1-0.1
			c-2,0-3.5,1.5-3.9,3.7c-0.1,0.4-0.1,0.9-0.1,1.4v8.5h-2.9L632.2,558z"/>
		<path d="M656.5,569.4c-4.3,0-7.7-3.2-7.7-8.2c0-5.3,3.5-8.5,7.9-8.5c4.6,0,7.7,3.3,7.7,8.2C664.4,566.8,660.3,569.4,656.5,569.4
			L656.5,569.4z M656.6,567.2c2.8,0,4.9-2.6,4.9-6.2c0-2.7-1.4-6.1-4.8-6.1c-3.4,0-4.9,3.2-4.9,6.2
			C651.8,564.6,653.7,567.2,656.6,567.2L656.6,567.2z"/>
		<path d="M668.4,569v-13.8h-2.2v-2.2h2.2v-0.8c0-2.2,0.5-4.3,1.9-5.6c1.1-1.1,2.5-1.5,3.9-1.5c1.1,0,1.9,0.2,2.5,0.5l-0.4,2.2
			c-0.5-0.2-1-0.4-1.9-0.4c-2.4,0-3.1,2.2-3.1,4.6v0.9h3.9v2.2h-3.8V569H668.4z"/>
		<path d="M573.6,589.7c-1.1,0-1.8-0.9-1.8-1.9c0-1,0.8-1.8,1.9-1.8s1.8,0.8,1.8,1.8C575.6,588.9,574.8,589.7,573.6,589.7
			L573.6,589.7z M572.3,608.6v-16h2.9v16H572.3z"/>
		<path d="M579.6,605.7c0.9,0.5,2.4,1.1,3.9,1.1c2.1,0,3.1-1,3.1-2.4c0-1.4-0.8-2.1-2.9-2.9c-2.9-1.1-4.3-2.6-4.3-4.5
			c0-2.6,2.1-4.7,5.5-4.7c1.6,0,3,0.4,3.9,1l-0.7,2.1c-0.6-0.4-1.8-0.9-3.3-0.9c-1.7,0-2.6,1-2.6,2.2c0,1.4,0.9,1.9,3,2.7
			c2.7,1,4.2,2.4,4.2,4.8c0,2.8-2.2,4.8-5.9,4.8c-1.8,0-3.4-0.5-4.5-1.1L579.6,605.7z"/>
		<path d="M599.5,609c-4.3,0-7.7-3.2-7.7-8.2c0-5.3,3.5-8.5,7.9-8.5c4.6,0,7.7,3.3,7.7,8.2C607.5,606.4,603.4,609,599.5,609
			L599.5,609z M599.6,606.8c2.8,0,4.9-2.6,4.9-6.2c0-2.7-1.4-6.1-4.8-6.1c-3.4,0-4.9,3.2-4.9,6.2
			C594.8,604.2,596.8,606.8,599.6,606.8L599.6,606.8z"/>
		<path d="M611.2,585.2h2.9v23.4h-2.9V585.2z"/>
		<path d="M630.1,604.8c0,1.4,0.1,2.7,0.2,3.8h-2.6l-0.3-2h-0.1c-0.9,1.3-2.6,2.4-4.9,2.4c-3.2,0-4.9-2.3-4.9-4.6
			c0-3.9,3.4-6,9.6-5.9v-0.3c0-1.3-0.4-3.7-3.6-3.7c-1.5,0-3.1,0.4-4.2,1.2l-0.7-1.9c1.3-0.8,3.3-1.4,5.3-1.4c4.9,0,6.1,3.3,6.1,6.5
			V604.8z M627.3,600.5c-3.2-0.1-6.8,0.5-6.8,3.6c0,1.9,1.3,2.8,2.7,2.8c2.1,0,3.5-1.3,3.9-2.7c0.1-0.3,0.1-0.6,0.1-0.9V600.5z"/>
		<path d="M638.2,588.8v3.8h4.2v2.2h-4.2v8.6c0,2,0.6,3.1,2.2,3.1c0.8,0,1.3-0.1,1.7-0.2l0.1,2.2c-0.6,0.2-1.5,0.4-2.6,0.4
			c-1.4,0-2.4-0.5-3.1-1.2c-0.8-0.9-1.1-2.3-1.1-4.2v-8.7h-2.5v-2.2h2.5v-2.9L638.2,588.8z"/>
		<path d="M647,589.7c-1.1,0-1.8-0.9-1.8-1.9c0-1,0.8-1.8,1.9-1.8s1.8,0.8,1.8,1.8C648.9,588.9,648.2,589.7,647,589.7L647,589.7z
			 M645.6,608.6v-16h2.9v16H645.6z"/>
		<path d="M659.8,609c-4.3,0-7.7-3.2-7.7-8.2c0-5.3,3.5-8.5,7.9-8.5c4.6,0,7.7,3.3,7.7,8.2C667.8,606.4,663.6,609,659.8,609
			L659.8,609z M659.9,606.8c2.8,0,4.9-2.6,4.9-6.2c0-2.7-1.4-6.1-4.8-6.1c-3.4,0-4.9,3.2-4.9,6.2
			C655.1,604.2,657.1,606.8,659.9,606.8L659.9,606.8z"/>
		<path d="M671.4,597c0-1.7,0-3-0.1-4.3h2.6l0.2,2.6h0.1c0.8-1.5,2.6-3,5.3-3c2.2,0,5.6,1.3,5.6,6.8v9.5h-2.9v-9.2
			c0-2.6-1-4.8-3.7-4.8c-1.9,0-3.4,1.4-3.9,3c-0.1,0.4-0.2,0.9-0.2,1.4v9.6h-2.9V597z"/>
	</g>
	<g>
		<path d="M775.7,569l-7.3-22.2h3.1l3.5,11c0.9,3,1.7,5.7,2.4,8.3h0.1c0.6-2.6,1.5-5.4,2.5-8.3l3.8-11h3.1l-8,22.2H775.7z"/>
		<path d="M790.9,550.1c-1.1,0-1.8-0.9-1.8-1.9c0-1,0.8-1.8,1.9-1.8s1.8,0.8,1.8,1.8C792.9,549.3,792.1,550.1,790.9,550.1
			L790.9,550.1z M789.6,569v-16h2.9v16H789.6z"/>
		<path d="M797.3,558c0-1.9,0-3.5-0.1-5h2.5l0.1,3.1h0.1c0.7-2.1,2.5-3.5,4.5-3.5c0.3,0,0.5,0,0.8,0.1v2.7c-0.3,0-0.6-0.1-1-0.1
			c-2,0-3.5,1.5-3.9,3.7c-0.1,0.4-0.1,0.9-0.1,1.4v8.5h-2.9L797.3,558z"/>
		<path d="M821.4,564.7c0,1.6,0,3.1,0.1,4.4h-2.6l-0.2-2.6h-0.1c-0.7,1.3-2.4,3-5.3,3c-2.5,0-5.5-1.4-5.5-7v-9.3h2.9v8.8
			c0,3,1,5.1,3.6,5.1c1.9,0,3.3-1.4,3.8-2.7c0.2-0.4,0.3-0.9,0.3-1.5v-9.8h2.9V564.7z"/>
		<path d="M825.8,566.1c0.9,0.5,2.4,1.1,3.9,1.1c2.1,0,3.1-1,3.1-2.4c0-1.4-0.8-2.1-2.9-2.9c-2.9-1.1-4.3-2.6-4.3-4.5
			c0-2.6,2.1-4.7,5.5-4.7c1.6,0,3,0.4,3.9,1l-0.7,2.1c-0.6-0.4-1.8-0.9-3.3-0.9c-1.7,0-2.6,1-2.6,2.2c0,1.4,0.9,1.9,3,2.7
			c2.7,1,4.2,2.4,4.2,4.8c0,2.8-2.2,4.8-5.9,4.8c-1.8,0-3.4-0.5-4.5-1.1L825.8,566.1z"/>
		<path d="M748.5,605.7c0.9,0.5,2.4,1.1,3.9,1.1c2.1,0,3.1-1,3.1-2.4c0-1.4-0.8-2.1-2.9-2.9c-2.9-1.1-4.3-2.6-4.3-4.5
			c0-2.6,2.1-4.7,5.5-4.7c1.6,0,3,0.4,3.9,1l-0.7,2.1c-0.6-0.4-1.8-0.9-3.3-0.9c-1.7,0-2.6,1-2.6,2.2c0,1.4,0.9,1.9,3,2.7
			c2.7,1,4.2,2.4,4.2,4.8c0,2.8-2.2,4.8-5.9,4.8c-1.7,0-3.4-0.5-4.5-1.1L748.5,605.7z"/>
		<path d="M775.4,604.3c0,1.7,0,3.1,0.1,4.4h-2.6l-0.2-2.6h-0.1c-0.7,1.3-2.4,3-5.3,3c-2.5,0-5.5-1.4-5.5-7v-9.3h2.9v8.8
			c0,3,1,5.1,3.6,5.1c1.9,0,3.3-1.3,3.8-2.7c0.2-0.4,0.3-0.9,0.3-1.5v-9.8h2.9V604.3z"/>
		<path d="M780.2,585.2h2.9v10h0.1c1-1.8,2.9-2.9,5.4-2.9c4,0,6.7,3.3,6.7,8.1c0,5.7-3.6,8.6-7.2,8.6c-2.3,0-4.1-0.9-5.3-3h-0.1
			l-0.2,2.6H780c0.1-1.1,0.1-2.7,0.1-4.1V585.2z M783.1,602.2c0,0.4,0,0.7,0.1,1.1c0.6,2,2.3,3.4,4.4,3.4c3.1,0,4.9-2.5,4.9-6.1
			c0-3.2-1.7-6-4.8-6c-2,0-3.8,1.4-4.4,3.6c-0.1,0.4-0.2,0.8-0.2,1.2V602.2z"/>
		<path d="M802.5,588.8v3.8h4.2v2.2h-4.2v8.6c0,2,0.6,3.1,2.2,3.1c0.8,0,1.3-0.1,1.7-0.2l0.1,2.2c-0.6,0.2-1.4,0.4-2.6,0.4
			c-1.4,0-2.4-0.5-3.1-1.2c-0.8-0.9-1.1-2.3-1.1-4.2v-8.7h-2.5v-2.2h2.5v-2.9L802.5,588.8z"/>
		<path d="M811.2,592.7l3.5,9.4c0.4,1.1,0.8,2.3,1.1,3.3h0.1c0.3-1,0.6-2.2,1-3.3l3.2-9.4h3.1l-4.4,11.4c-2.1,5.5-3.5,8.3-5.5,10
			c-1.5,1.2-2.8,1.7-3.6,1.8l-0.7-2.4c0.7-0.2,1.7-0.7,2.5-1.4c0.8-0.6,1.7-1.7,2.4-3.2c0.1-0.3,0.2-0.5,0.2-0.7
			c0-0.2-0.1-0.4-0.2-0.7l-5.9-14.8H811.2z"/>
		<path d="M825.7,597.9c0-2,0-3.7-0.1-5.2h2.6l0.2,2.7h0.1c1.2-2,3.1-3.1,5.6-3.1c3.9,0,6.8,3.3,6.8,8.1c0,5.7-3.5,8.6-7.3,8.6
			c-2.1,0-4-0.9-4.9-2.5h-0.1v8.7h-2.9V597.9z M828.6,602.1c0,0.4,0,0.8,0.1,1.2c0.5,2,2.3,3.4,4.3,3.4c3.1,0,4.9-2.5,4.9-6.2
			c0-3.2-1.7-5.9-4.7-5.9c-2,0-3.9,1.4-4.4,3.6c-0.1,0.4-0.2,0.8-0.2,1.2V602.1z"/>
		<path d="M846.2,601.1c0.1,3.9,2.5,5.5,5.4,5.5c2.1,0,3.4-0.4,4.4-0.8l0.5,2c-1,0.5-2.8,1-5.3,1c-4.9,0-7.9-3.3-7.9-8.1
			c0-4.8,2.9-8.6,7.5-8.6c5.2,0,6.6,4.6,6.6,7.5c0,0.6,0,1.1-0.1,1.4L846.2,601.1z M854.7,599.1c0-1.8-0.8-4.7-4-4.7
			c-3,0-4.2,2.7-4.5,4.7H854.7z"/>
	</g>
	<g>
		<g>
			<line style="fill:none;stroke:#000000;stroke-width:3;" x1="102.1" y1="534.5" x2="223.6" y2="468.5"/>
			<path d="M233.1,463.3c-3.6,4.1-7.6,10-9.4,14.9l-1.4-9l-6.8-6C220.6,464.3,227.7,464.1,233.1,463.3z"/>
		</g>
	</g>
	<g>
		<g>
			<line style="fill:none;stroke:#000000;stroke-width:3;" x1="294.1" y1="534.5" x2="325.6" y2="488"/>
			<path d="M331.7,479c-1.3,5.3-2.2,12.4-1.5,17.5l-5.3-7.4L316,487C321,485.6,327.2,482.2,331.7,479z"/>
		</g>
	</g>
	<g>
		<g>
			<line style="fill:none;stroke:#000000;stroke-width:3;" x1="459.8" y1="534.5" x2="461.3" y2="488"/>
			<path d="M461.6,477.2c1.7,5.2,4.8,11.6,8.1,15.7l-8.5-3.4l-8.7,2.8C456.1,488.5,459.5,482.2,461.6,477.2z"/>
		</g>
	</g>
	<g>
		<g>
			<line style="fill:none;stroke:#000000;stroke-width:3;" x1="625" y1="534.5" x2="587.5" y2="488"/>
			<path d="M580.7,479.6c4.7,2.8,11.2,5.7,16.3,6.6l-8.6,3l-4.7,7.8C583.9,491.7,582.4,484.7,580.7,479.6z"/>
		</g>
	</g>
	<g>
		<g>
			<line style="fill:none;stroke:#000000;stroke-width:3;" x1="793.2" y1="534.5" x2="749.6" y2="488"/>
			<path d="M742.2,480.1c4.9,2.4,11.6,4.9,16.8,5.4l-8.4,3.6l-4.1,8.1C746.3,492,744.3,485.1,742.2,480.1z"/>
		</g>
	</g>
	<g>
		<g>
			<polyline style="fill:none;stroke:#000000;stroke-width:3;" points="261.1,408.5 261.1,353 431.9,235.8 			"/>
			<path d="M261.1,419.4c-1.9-5.1-5.1-11.5-8.6-15.4l8.6,3.1l8.6-3.1C266.2,407.9,263,414.3,261.1,419.4z"/>
		</g>
	</g>
	<g>
		<g>
			<polyline style="fill:none;stroke:#000000;stroke-width:3;" points="657.1,408.5 657.1,377 590.3,310.3 			"/>
			<path d="M657.1,419.4c-1.9-5.1-5.1-11.5-8.6-15.4l8.6,3.1l8.6-3.1C662.2,407.9,659,414.3,657.1,419.4z"/>
		</g>
	</g>
	<g>
		<g>
			<polyline style="fill:none;stroke:#000000;stroke-width:3;" points="714.1,408.5 714.1,320 654.1,260 			"/>
			<path d="M714.1,419.4c-1.9-5.1-5.1-11.5-8.6-15.4l8.6,3.1l8.6-3.1C719.2,407.9,716,414.3,714.1,419.4z"/>
		</g>
	</g>
	<rect style="fill:none;" width="975" height="642"/>
</g>
</svg>
