<?xml version="1.0" encoding="UTF-8" standalone="no"?>
<!-- Created with Inkscape (http://www.inkscape.org/) -->

<svg
   xmlns:dc="http://purl.org/dc/elements/1.1/"
   xmlns:cc="http://creativecommons.org/ns#"
   xmlns:rdf="http://www.w3.org/1999/02/22-rdf-syntax-ns#"
   xmlns:svg="http://www.w3.org/2000/svg"
   xmlns="http://www.w3.org/2000/svg"
   xmlns:xlink="http://www.w3.org/1999/xlink"
   xmlns:sodipodi="http://sodipodi.sourceforge.net/DTD/sodipodi-0.dtd"
   xmlns:inkscape="http://www.inkscape.org/namespaces/inkscape"
   width="744.09448819"
   height="1052.3622047"
   id="svg5604"
   version="1.1"
   inkscape:version="0.48.2 r9819"
   sodipodi:docname="prodotto.pdf">
  <defs
     id="defs5606" />
  <sodipodi:namedview
     id="base"
     pagecolor="#ffffff"
     bordercolor="#666666"
     borderopacity="1.0"
     inkscape:pageopacity="0.0"
     inkscape:pageshadow="2"
     inkscape:zoom="0.7"
     inkscape:cx="15.897239"
     inkscape:cy="478.52391"
     inkscape:document-units="px"
     inkscape:current-layer="layer1"
     showgrid="false"
     inkscape:window-width="1280"
     inkscape:window-height="750"
     inkscape:window-x="0"
     inkscape:window-y="24"
     inkscape:window-maximized="1" />
  <metadata
     id="metadata5609">
    <rdf:RDF>
      <cc:Work
         rdf:about="">
        <dc:format>image/svg+xml</dc:format>
        <dc:type
           rdf:resource="http://purl.org/dc/dcmitype/StillImage" />
        <dc:title></dc:title>
      </cc:Work>
    </rdf:RDF>
  </metadata>
  <g
     inkscape:label="Layer 1"
     inkscape:groupmode="layer"
     id="layer1">
    <path
       d="m 262.4994,325.46454 8.3871,27.55423 5.8082,0 8.3639,-27.55423 -4.5304,0 -6.7376,21.83893 -6.7608,-21.83893 -4.5304,0"
       style="font-size:144px;font-style:normal;font-variant:normal;font-weight:normal;font-stretch:normal;line-height:125%;letter-spacing:0px;word-spacing:0px;fill:#000000;fill-opacity:1;stroke:none;font-family:DejaVu Sans;-inkscape-font-specification:DejaVu Sans"
       id="path4942"
       inkscape:connector-curvature="0" />
    <g
       id="g4948"
       transform="translate(-163.879,2.8883971)">
      <g
         id="g4950"
         transform="translate(39.495065,58.10036)"
         inkscape:export-filename="/home/fake/Tesi-Magistrale/prodotto_partizioni.png"
         inkscape:export-xdpi="150.04359"
         inkscape:export-ydpi="150.04359">
        <flowRoot
           xml:space="preserve"
           id="flowRoot4952"
           style="font-size:40px;font-style:normal;font-variant:normal;font-weight:normal;font-stretch:normal;text-align:start;line-height:125%;letter-spacing:0px;word-spacing:0px;text-anchor:start;fill:#000000;fill-opacity:1;stroke:none;font-family:DejaVu Sans Mono;-inkscape-font-specification:DejaVu Sans Mono"
           transform="translate(-2.3569481,-5.2777864)"
           inkscape:export-filename="/home/fake/Tesi-Magistrale/prodotto_partizioni.png"
           inkscape:export-xdpi="150.04359"
           inkscape:export-ydpi="150.04359"><flowRegion
             id="flowRegion4954"><rect
               id="rect4956"
               width="458.57144"
               height="477.14285"
               x="190"
               y="186.6479"
               style="font-style:normal;font-variant:normal;font-weight:normal;font-stretch:normal;text-align:start;text-anchor:start;font-family:DejaVu Sans Mono;-inkscape-font-specification:DejaVu Sans Mono" /></flowRegion><flowPara
             id="flowPara4958">1 1 3 1</flowPara><flowPara
             id="flowPara4960">2 1 3 1</flowPara><flowPara
             id="flowPara4963">2 1 1 1</flowPara><flowPara
             id="flowPara4965">2 2 2 1</flowPara></flowRoot>        <g
           inkscape:label="MajorXGridlines"
           id="g4967"
           transform="matrix(1.0140746,0,0,1.0140746,170.50317,179.99722)"
           inkscape:export-filename="/home/fake/Tesi-Magistrale/prodotto_partizioni.png"
           inkscape:export-xdpi="150.04359"
           inkscape:export-ydpi="150.04359">
          <path
             inkscape:connector-curvature="0"
             inkscape:label="MajorXDiv1"
             style="fill:none;stroke:#000000;stroke-width:2"
             d="m 50,0 0,200"
             id="path4969" />
          <path
             inkscape:connector-curvature="0"
             inkscape:label="MajorXDiv2"
             style="fill:none;stroke:#000000;stroke-width:2"
             d="m 100,0 0,200"
             id="path4971" />
          <path
             inkscape:connector-curvature="0"
             inkscape:label="MajorXDiv3"
             style="fill:none;stroke:#000000;stroke-width:2"
             d="m 150,0 0,200"
             id="path4973" />
        </g>
        <g
           inkscape:label="MajorYGridlines"
           id="g4975"
           transform="matrix(1.0140746,0,0,1.0140746,170.50317,179.99722)"
           inkscape:export-filename="/home/fake/Tesi-Magistrale/prodotto_partizioni.png"
           inkscape:export-xdpi="150.04359"
           inkscape:export-ydpi="150.04359">
          <path
             inkscape:connector-curvature="0"
             inkscape:label="MajorYDiv1"
             style="fill:none;stroke:#000000;stroke-width:2"
             d="m 0,50 200,0"
             id="path4977" />
          <path
             inkscape:connector-curvature="0"
             inkscape:label="MajorYDiv2"
             style="fill:none;stroke:#000000;stroke-width:2"
             d="m 0,100 200,0"
             id="path4979" />
          <path
             inkscape:connector-curvature="0"
             inkscape:label="MajorYDiv3"
             style="fill:none;stroke:#000000;stroke-width:2"
             d="m 0,150 200,0"
             id="path4981" />
        </g>
        <rect
           style="fill:none;stroke:#000000;stroke-width:3.04222369"
           width="202.81493"
           height="202.81493"
           inkscape:label="Border"
           y="179.99722"
           x="170.50317"
           id="rect4983"
           inkscape:export-filename="/home/fake/Tesi-Magistrale/prodotto_partizioni.png"
           inkscape:export-xdpi="150.04359"
           inkscape:export-ydpi="150.04359" />
      </g>
      <path
         inkscape:connector-curvature="0"
         id="path4985"
         d="m 212.30269,264.01977 0,-23.57143 23.57143,0 23.57143,0 0,23.57143 0,23.57143 -23.57143,0 -23.57143,0 0,-23.57143 z m 36.75518,14.03872 c 0.30379,-0.92156 -0.93114,-1.88585 -2.74428,-2.14286 -3.13565,-0.44447 -3.31664,-1.11023 -3.70675,-13.63526 l -0.41014,-13.16797 -4.58986,0.85688 c -2.52443,0.47129 -5.14456,1.35872 -5.82253,1.97207 -2.01334,1.82146 0.29425,4.01241 3.37695,3.20626 2.67065,-0.69839 2.85572,-0.0416 2.85572,10.13412 0,9.92852 -0.25008,10.8809 -2.85715,10.8809 -1.62818,0 -2.85714,0.95238 -2.85714,2.21415 0,1.78989 1.55232,2.13205 8.10142,1.78571 4.57877,-0.24214 8.34159,-1.157 8.65376,-2.104 z"
         style="fill:#80b4ff;fill-opacity:1;stroke:none" />
      <path
         inkscape:connector-curvature="0"
         id="path4987"
         d="m 262.30269,264.01977 0,-23.57143 23.57143,0 23.57143,0 0,23.57143 0,23.57143 -23.57143,0 -23.57143,0 0,-23.57143 z m 34.28572,14.28572 c 0,-1.19048 -1.26985,-2.14286 -2.85715,-2.14286 -2.6441,0 -2.85714,-0.95238 -2.85714,-12.77283 0,-7.02506 -0.53722,-13.10486 -1.19383,-13.51066 -2.13218,-1.31776 -9.50853,1.4271 -9.94674,3.70134 -0.32081,1.66494 0.47454,2.04018 3.21428,1.51644 l 3.64058,-0.69594 0,10.88083 c 0,10.65383 -0.0745,10.88082 -3.57143,10.88082 -3.46838,0 -4.56134,1.39104 -2.61905,3.33333 0.52381,0.52381 4.38095,0.95238 8.57143,0.95238 5.8201,0 7.61905,-0.50595 7.61905,-2.14285 z"
         style="fill:#80b4ff;fill-opacity:1;stroke:none" />
      <path
         inkscape:connector-curvature="0"
         id="path4989"
         d="m 363.73126,264.01977 0,-23.57143 23.57143,0 23.57143,0 0,23.57143 0,23.57143 -23.57143,0 -23.57143,0 0,-23.57143 z m 29.64905,13.92857 c 0.34492,-1.04564 -0.64441,-1.78571 -2.38714,-1.78571 -2.79396,0 -2.97619,-0.78208 -2.97619,-12.77283 0,-7.02506 -0.49803,-13.08063 -1.10673,-13.45683 -0.60869,-0.37619 -3.34084,-0.22707 -6.07142,0.3314 -5.57277,1.13975 -7.18106,5.49215 -1.75042,4.73703 3.08939,-0.42957 3.21428,-0.0271 3.21428,10.35715 0,9.8517 -0.25185,10.80408 -2.85714,10.80408 -1.62819,0 -2.85714,0.95238 -2.85714,2.21415 0,1.78989 1.55232,2.13205 8.10142,1.78571 4.88284,-0.25822 8.33544,-1.13787 8.69048,-2.21415 z"
         style="fill:#80b4ff;fill-opacity:1;stroke:none" />
      <path
         inkscape:connector-curvature="0"
         id="path4991"
         d="m 363.73126,314.01977 0,-23.57143 23.57143,0 23.57143,0 0,23.57143 0,23.57143 -23.57143,0 -23.57143,0 0,-23.57143 z m 29.64905,13.92858 c 0.34492,-1.04564 -0.64441,-1.78572 -2.38714,-1.78572 -2.79396,0 -2.97619,-0.78208 -2.97619,-12.77283 0,-7.02506 -0.49803,-13.08063 -1.10673,-13.45683 -0.60869,-0.37619 -3.34084,-0.22707 -6.07142,0.3314 -5.57277,1.13975 -7.18106,5.49215 -1.75042,4.73704 3.08939,-0.42958 3.21428,-0.0271 3.21428,10.35714 0,9.8517 -0.25185,10.80408 -2.85714,10.80408 -1.62819,0 -2.85714,0.95238 -2.85714,2.21415 0,1.78989 1.55232,2.13206 8.10142,1.78571 4.88284,-0.25822 8.33544,-1.13787 8.69048,-2.21414 z"
         style="fill:#80b4ff;fill-opacity:1;stroke:none" />
      <path
         inkscape:connector-curvature="0"
         id="path4993"
         d="m 363.73126,364.73406 0,-24.28571 23.57143,0 23.57143,0 0,24.28571 0,24.28571 -23.57143,0 -23.57143,0 0,-24.28571 z m 29.64905,13.21429 c 0.34492,-1.04564 -0.64441,-1.78572 -2.38714,-1.78572 -2.79396,0 -2.97619,-0.78208 -2.97619,-12.77283 0,-7.02506 -0.49803,-13.08063 -1.10673,-13.45683 -0.60869,-0.37619 -3.34084,-0.22706 -6.07142,0.3314 -5.57277,1.13975 -7.18106,5.49215 -1.75042,4.73704 3.08939,-0.42958 3.21428,-0.0271 3.21428,10.35714 0,9.8517 -0.25185,10.80408 -2.85714,10.80408 -1.62819,0 -2.85714,0.95238 -2.85714,2.21415 0,1.78989 1.55232,2.13206 8.10142,1.78571 4.88284,-0.25822 8.33544,-1.13787 8.69048,-2.21414 z"
         style="fill:#80b4ff;fill-opacity:1;stroke:none" />
      <path
         inkscape:connector-curvature="0"
         id="path4995"
         d="m 375.15984,402.5912 c 0,-1.17857 0.62268,-2.14285 1.38373,-2.14285 0.76106,0 1.01371,0.96428 0.56145,2.14285 -0.45226,1.17857 -1.07495,2.14286 -1.38374,2.14286 -0.30879,0 -0.56144,-0.96429 -0.56144,-2.14286 z"
         style="fill:#80b4ff;fill-opacity:1;stroke:none" />
      <path
         inkscape:connector-curvature="0"
         id="path4997"
         d="m 363.73126,415.44835 0,-23.57143 23.57143,0 23.57143,0 0,23.57143 0,23.57142 -23.57143,0 -23.57143,0 0,-23.57142 z m 29.64905,12.5 c 0.34492,-1.04564 -0.64441,-1.78572 -2.38714,-1.78572 -2.79396,0 -2.97619,-0.78208 -2.97619,-12.77283 0,-7.02506 -0.48214,-13.04259 -1.07143,-13.37228 -0.58929,-0.32969 -3.515,-0.29347 -6.50158,0.0805 -4.06491,0.509 -5.31315,1.26706 -4.96478,3.01513 0.29918,1.50128 1.60062,2.17558 3.64443,1.88825 3.04554,-0.42817 3.17907,0.007 3.17907,10.35714 0,9.8517 -0.25185,10.80408 -2.85714,10.80408 -1.62819,0 -2.85714,0.95238 -2.85714,2.21415 0,1.78989 1.55232,2.13206 8.10142,1.78571 4.88284,-0.25822 8.33544,-1.13787 8.69048,-2.21414 z"
         style="fill:#80b4ff;fill-opacity:1;stroke:none" />
      <path
         inkscape:connector-curvature="0"
         id="path4999"
         d="m 312.30269,364.73406 0,-24.28571 24.28572,0 24.28571,0 0,24.28571 0,24.28571 -24.28571,0 -24.28572,0 0,-24.28571 z m 32.85715,13.57143 c 0,-1.19048 -1.26985,-2.14286 -2.85715,-2.14286 -2.6441,0 -2.85714,-0.95238 -2.85714,-12.77283 0,-7.02506 -0.48214,-13.05566 -1.07143,-13.40133 -0.58928,-0.34567 -3.16071,-0.31065 -5.71429,0.0778 -3.24905,0.49429 -4.64285,1.47523 -4.64285,3.26759 0,1.85793 0.78458,2.35608 2.85714,1.8141 2.67246,-0.69887 2.85714,-0.0438 2.85714,10.13374 0,9.92852 -0.25008,10.8809 -2.85714,10.8809 -2.84606,0 -3.71589,1.5222 -1.90476,3.33333 0.52381,0.52381 4.38095,0.95239 8.57143,0.95239 5.8201,0 7.61905,-0.50596 7.61905,-2.14286 z"
         style="fill:#80b4ff;fill-opacity:1;stroke:none" />
      <path
         inkscape:connector-curvature="0"
         id="path5001"
         d="m 262.30269,364.73406 0,-24.28571 23.57143,0 23.57143,0 0,24.28571 0,24.28571 -23.57143,0 -23.57143,0 0,-24.28571 z m 34.28572,13.57143 c 0,-1.19048 -1.26985,-2.14286 -2.85715,-2.14286 -2.6441,0 -2.85714,-0.95238 -2.85714,-12.77283 0,-7.02506 -0.53722,-13.10486 -1.19383,-13.51066 -2.13218,-1.31776 -9.50853,1.4271 -9.94674,3.70134 -0.32081,1.66495 0.47454,2.04018 3.21428,1.51644 l 3.64058,-0.69594 0,10.88083 c 0,10.65383 -0.0745,10.88082 -3.57143,10.88082 -3.46838,0 -4.56134,1.39104 -2.61905,3.33333 0.52381,0.52381 4.38095,0.95239 8.57143,0.95239 5.8201,0 7.61905,-0.50596 7.61905,-2.14286 z"
         style="fill:#80b4ff;fill-opacity:1;stroke:none" />
      <path
         inkscape:connector-curvature="0"
         id="path5003"
         d="m 262.30269,314.01977 0,-23.57143 23.57143,0 23.57143,0 0,23.57143 0,23.57143 -23.57143,0 -23.57143,0 0,-23.57143 z m 34.28572,14.28572 c 0,-1.19048 -1.26985,-2.14286 -2.85715,-2.14286 -2.6441,0 -2.85714,-0.95238 -2.85714,-12.77283 0,-7.02506 -0.53722,-13.10486 -1.19383,-13.51066 -2.13218,-1.31776 -9.50853,1.4271 -9.94674,3.70134 -0.32081,1.66495 0.47454,2.04018 3.21428,1.51644 l 3.64058,-0.69594 0,10.88083 c 0,10.65383 -0.0745,10.88082 -3.57143,10.88082 -3.46838,0 -4.56134,1.39104 -2.61905,3.33333 0.52381,0.52381 4.38095,0.95239 8.57143,0.95239 5.8201,0 7.61905,-0.50596 7.61905,-2.14286 z"
         style="fill:#80b4ff;fill-opacity:1;stroke:none" />
      <path
         inkscape:connector-curvature="0"
         id="path5005"
         d="m 212.30269,314.01977 0,-23.57143 23.57143,0 23.57143,0 0,23.57143 0,23.57143 -23.57143,0 -23.57143,0 0,-23.57143 z m 35.71429,14.28572 c 0,-1.54762 -1.5873,-2.14286 -5.71429,-2.14286 -3.14286,0 -5.71428,-0.3835 -5.71428,-0.85221 0,-0.46872 2.57142,-3.77351 5.71428,-7.34399 3.21747,-3.65524 5.71429,-7.9644 5.71429,-9.86207 0,-7.06281 -8.85875,-11.32499 -15.8082,-7.60575 -3.58013,1.91602 -3.82339,6.42992 -0.26323,4.88444 1.375,-0.5969 4.10714,-1.14782 6.07143,-1.22427 2.86836,-0.11164 3.65972,0.62718 4.01994,3.75309 0.34551,2.99827 -1.08674,5.5334 -6.23668,11.03909 -8.66846,9.26729 -7.97009,11.49739 3.60047,11.49739 6.70652,0 8.61627,-0.47496 8.61627,-2.14286 z"
         style="fill:#55ff55;fill-opacity:1;stroke:none" />
      <path
         inkscape:connector-curvature="0"
         id="path5007"
         d="m 212.30269,364.73406 0,-24.28571 23.57143,0 23.57143,0 0,24.28571 0,24.28571 -23.57143,0 -23.57143,0 0,-24.28571 z m 35.71429,13.57143 c 0,-1.54762 -1.5873,-2.14286 -5.71429,-2.14286 -3.14286,0 -5.71428,-0.3835 -5.71428,-0.85221 0,-0.46872 2.57142,-3.77351 5.71428,-7.34399 3.21747,-3.65524 5.71429,-7.9644 5.71429,-9.86207 0,-7.06281 -8.85875,-11.32499 -15.8082,-7.60575 -3.58013,1.91602 -3.82339,6.42992 -0.26323,4.88444 1.375,-0.5969 4.10714,-1.14782 6.07143,-1.22427 2.86836,-0.11164 3.65972,0.62718 4.01994,3.75309 0.34551,2.99827 -1.08674,5.5334 -6.23668,11.03909 -8.66846,9.26729 -7.97009,11.49739 3.60047,11.49739 6.70652,0 8.61627,-0.47496 8.61627,-2.14286 z"
         style="fill:#55ff55;fill-opacity:1;stroke:none" />
      <path
         inkscape:connector-curvature="0"
         id="path5009"
         d="m 212.30269,415.44835 0,-23.57143 23.57143,0 23.57143,0 0,23.57143 0,23.57142 -23.57143,0 -23.57143,0 0,-23.57142 z m 35.71429,12.85714 c 0,-1.54762 -1.5873,-2.14286 -5.71429,-2.14286 -3.14286,0 -5.71428,-0.3835 -5.71428,-0.85221 0,-0.46872 2.57142,-3.77351 5.71428,-7.34399 3.21747,-3.65524 5.71429,-7.9644 5.71429,-9.86207 0,-7.06281 -8.85875,-11.32499 -15.8082,-7.60575 -3.58013,1.91602 -3.82339,6.42992 -0.26323,4.88444 1.375,-0.5969 4.10714,-1.14782 6.07143,-1.22427 2.86836,-0.11164 3.65972,0.62718 4.01994,3.75309 0.34551,2.99827 -1.08674,5.5334 -6.23668,11.03909 -8.66846,9.26729 -7.97009,11.49739 3.60047,11.49739 6.70652,0 8.61627,-0.47496 8.61627,-2.14286 z"
         style="fill:#55ff55;fill-opacity:1;stroke:none" />
      <path
         inkscape:connector-curvature="0"
         id="path5011"
         d="m 262.30269,415.44835 0,-23.57143 23.57143,0 23.57143,0 0,23.57143 0,23.57142 -23.57143,0 -23.57143,0 0,-23.57142 z m 33.93424,12.5 c 0.40718,-1.23329 -1.21504,-1.78572 -5.24376,-1.78572 -6.73844,0 -7.18928,-1.08526 -2.34239,-5.63867 5.35792,-5.03351 8.37576,-12.30193 6.53546,-15.74056 -2.26576,-4.23361 -6.85733,-6.14012 -12.31969,-5.11537 -3.49572,0.6558 -4.84957,1.66859 -4.84957,3.62788 0,2.40223 0.5001,2.54376 4.30359,1.21785 10.42551,-3.63435 11.52937,3.74432 2.12498,14.20427 -9.07526,10.09387 -8.68278,11.97541 2.38661,11.44134 5.45822,-0.26334 9.03971,-1.10534 9.40477,-2.21102 z"
         style="fill:#55ff55;fill-opacity:1;stroke:none" />
      <path
         inkscape:connector-curvature="0"
         id="path5013"
         d="m 312.30269,415.44835 0,-23.57143 24.28572,0 24.28571,0 0,23.57143 0,23.57142 -24.28571,0 -24.28572,0 0,-23.57142 z m 32.50567,12.5 c 0.40718,-1.23329 -1.21504,-1.78572 -5.24376,-1.78572 -3.20834,0 -5.8271,-0.48214 -5.81947,-1.07143 0.008,-0.58928 2.25763,-3.89404 5,-7.3439 6.08226,-7.65138 6.56603,-13.34076 1.42101,-16.71191 -4.7543,-3.11513 -13.57773,-1.67849 -13.57773,2.21074 0,2.35562 0.48881,2.48381 4.17119,1.09387 3.21076,-1.21193 4.69095,-1.14308 6.42857,0.29901 3.51674,2.91864 2.78928,5.02187 -4.95605,14.32882 -3.96739,4.7673 -6.80425,9.3299 -6.30413,10.13911 1.30027,2.10389 18.14449,1.07024 18.88037,-1.15859 l 0,0 z"
         style="fill:#55ff55;fill-opacity:1;stroke:none" />
      <path
         inkscape:connector-curvature="0"
         id="path5015"
         d="m 312.30269,314.01977 0,-23.57143 24.28572,0 24.28571,0 0,23.57143 0,23.57143 -24.28571,0 -24.28572,0 0,-23.57143 z m 29.55079,13.32241 c 3.84819,-3.61519 4.15339,-6.47737 1.14818,-10.7679 -1.36609,-1.95036 -1.62824,-3.40875 -0.71429,-3.97361 2.71424,-1.67749 1.5938,-9.02817 -1.73111,-11.35703 -5.14177,-3.60143 -13.96785,-2.55549 -13.96785,1.65527 0,1.59335 0.9496,1.90655 3.69291,1.21802 5.14427,-1.29112 9.16423,0.29079 9.16423,3.60626 0,1.96446 -1.27521,3.05163 -4.28571,3.65373 -5.36964,1.07392 -5.60806,4.44378 -0.35715,5.04797 3.05027,0.35097 4.02699,1.30292 4.36877,4.25797 0.51833,4.48147 -3.06445,6.22859 -9.75801,4.75843 -3.24984,-0.71378 -4.25362,-0.4265 -4.25362,1.21737 0,4.4823 12.12172,4.97862 16.69365,0.68352 l 0,0 z"
         style="fill:#ff9855;fill-opacity:1;stroke:none" />
      <path
         inkscape:connector-curvature="0"
         id="path5017"
         d="m 312.30269,264.01977 0,-23.57143 24.28572,0 24.28571,0 0,23.57143 0,23.57143 -24.28571,0 -24.28572,0 0,-23.57143 z m 29.55079,13.32241 c 3.84819,-3.61519 4.15339,-6.47737 1.14818,-10.76791 -1.36609,-1.95035 -1.62824,-3.40874 -0.71429,-3.9736 2.71424,-1.67749 1.5938,-9.02817 -1.73111,-11.35703 -5.14177,-3.60143 -13.96785,-2.55549 -13.96785,1.65527 0,1.59335 0.9496,1.90655 3.69291,1.21802 5.14427,-1.29113 9.16423,0.29078 9.16423,3.60625 0,1.96447 -1.27521,3.05164 -4.28571,3.65374 -5.36964,1.07392 -5.60806,4.44378 -0.35715,5.04796 3.05027,0.35098 4.02699,1.30293 4.36877,4.25798 0.51833,4.48146 -3.06445,6.22859 -9.75801,4.75843 -3.24984,-0.71378 -4.25362,-0.4265 -4.25362,1.21737 0,4.4823 12.12172,4.97862 16.69365,0.68352 l 0,0 z"
         style="fill:#ff9855;fill-opacity:1;stroke:none" />
    </g>
    <g
       id="g5019"
       transform="translate(-163.879,2.8883971)">
      <g
         id="g5021"
         transform="translate(39.495067,0)"
         inkscape:export-filename="/home/fake/Tesi-Magistrale/prodotto_partizioni.png"
         inkscape:export-xdpi="150.04359"
         inkscape:export-ydpi="150.04359">
        <flowRoot
           xml:space="preserve"
           id="flowRoot5023"
           style="font-size:40px;font-style:normal;font-variant:normal;font-weight:normal;font-stretch:normal;text-align:start;line-height:125%;letter-spacing:0px;word-spacing:0px;text-anchor:start;fill:#000000;fill-opacity:1;stroke:none;font-family:DejaVu Sans Mono;-inkscape-font-specification:DejaVu Sans Mono"
           transform="translate(248.58957,52.822573)"><flowRegion
             id="flowRegion5025"><rect
               id="rect5027"
               width="458.57144"
               height="477.14285"
               x="190"
               y="186.6479"
               style="font-style:normal;font-variant:normal;font-weight:normal;font-stretch:normal;text-align:start;text-anchor:start;font-family:DejaVu Sans Mono;-inkscape-font-specification:DejaVu Sans Mono" /></flowRegion><flowPara
             id="flowPara5029">1 1 1 1</flowPara><flowPara
             id="flowPara5031">2 2 3 1</flowPara><flowPara
             id="flowPara5033">2 3 3 3</flowPara><flowPara
             id="flowPara5035">2 2 3 1</flowPara></flowRoot>        <g
           id="g5037"
           transform="matrix(1.0140746,0,0,1.0140746,421.44969,238.09758)"
           inkscape:label="Grid_Polar:X4:Y4">
          <g
             id="g5039"
             inkscape:label="MajorXGridlines">
            <path
               id="path5041"
               d="m 50,0 0,200"
               style="fill:none;stroke:#000000;stroke-width:2"
               inkscape:label="MajorXDiv1"
               inkscape:connector-curvature="0" />
            <path
               id="path5043"
               d="m 100,0 0,200"
               style="fill:none;stroke:#000000;stroke-width:2"
               inkscape:label="MajorXDiv2"
               inkscape:connector-curvature="0" />
            <path
               id="path5045"
               d="m 150,0 0,200"
               style="fill:none;stroke:#000000;stroke-width:2"
               inkscape:label="MajorXDiv3"
               inkscape:connector-curvature="0" />
          </g>
          <g
             id="g5047"
             inkscape:label="MajorYGridlines">
            <path
               id="path5049"
               d="m 0,50 200,0"
               style="fill:none;stroke:#000000;stroke-width:2"
               inkscape:label="MajorYDiv1"
               inkscape:connector-curvature="0" />
            <path
               id="path5051"
               d="m 0,100 200,0"
               style="fill:none;stroke:#000000;stroke-width:2"
               inkscape:label="MajorYDiv2"
               inkscape:connector-curvature="0" />
            <path
               id="path5053"
               d="m 0,150 200,0"
               style="fill:none;stroke:#000000;stroke-width:2"
               inkscape:label="MajorYDiv3"
               inkscape:connector-curvature="0" />
          </g>
          <rect
             id="rect5055"
             x="0"
             y="0"
             inkscape:label="Border"
             height="200"
             width="200"
             style="fill:none;stroke:#000000;stroke-width:3" />
        </g>
      </g>
      <path
         inkscape:connector-curvature="0"
         id="path5057"
         d="m 462.30269,264.01977 0,-23.57143 23.57143,0 23.57143,0 0,23.57143 0,23.57143 -23.57143,0 -23.57143,0 0,-23.57143 z m 37.14286,14.28572 c 0,-1.19048 -1.26984,-2.14286 -2.85714,-2.14286 -2.64411,0 -2.85715,-0.95238 -2.85715,-12.77283 0,-7.02506 -0.53722,-13.10486 -1.19383,-13.51066 -2.13218,-1.31776 -9.50853,1.4271 -9.94674,3.70134 -0.3208,1.66494 0.47455,2.04018 3.21429,1.51644 l 3.64057,-0.69594 0,10.88083 c 0,10.65383 -0.0745,10.88082 -3.57143,10.88082 -3.46838,0 -4.56134,1.39104 -2.61905,3.33333 0.52381,0.52381 4.38096,0.95238 8.57143,0.95238 5.82011,0 7.61905,-0.50595 7.61905,-2.14285 z"
         style="fill:#80b4ff;fill-opacity:1;stroke:none" />
      <path
         inkscape:connector-curvature="0"
         id="path5059"
         d="m 513.73126,264.01977 0,-23.57143 23.57143,0 23.57143,0 0,23.57143 0,23.57143 -23.57143,0 -23.57143,0 0,-23.57143 z m 34.28572,14.28572 c 0,-1.19048 -1.26984,-2.14286 -2.85714,-2.14286 -2.64411,0 -2.85715,-0.95238 -2.85715,-12.77283 0,-7.02506 -0.48214,-13.05566 -1.07143,-13.40133 -0.58928,-0.34567 -3.16071,-0.31065 -5.71428,0.0778 -3.24905,0.49429 -4.64286,1.47523 -4.64286,3.26759 0,1.85793 0.78458,2.35608 2.85714,1.8141 2.67247,-0.69887 2.85715,-0.0438 2.85715,10.13374 0,9.92852 -0.25008,10.8809 -2.85715,10.8809 -2.84606,0 -3.71589,1.5222 -1.90476,3.33333 0.52381,0.52381 4.38095,0.95238 8.57143,0.95238 5.82011,0 7.61905,-0.50595 7.61905,-2.14285 z"
         style="fill:#80b4ff;fill-opacity:1;stroke:none" />
      <path
         inkscape:connector-curvature="0"
         id="path5061"
         d="m 563.73126,264.01977 0,-23.57143 23.57143,0 23.57143,0 0,23.57143 0,23.57143 -23.57143,0 -23.57143,0 0,-23.57143 z m 32.46947,14.03872 c 0.30379,-0.92156 -0.93114,-1.88585 -2.74428,-2.14286 -3.13565,-0.44447 -3.31664,-1.11023 -3.70675,-13.63526 l -0.41014,-13.16797 -4.58986,0.85688 c -2.52443,0.47129 -5.14456,1.35872 -5.82253,1.97207 -2.01334,1.82146 0.29424,4.01241 3.37695,3.20626 2.67065,-0.69839 2.85572,-0.0416 2.85572,10.13412 0,9.92852 -0.25008,10.8809 -2.85715,10.8809 -1.62819,0 -2.85714,0.95238 -2.85714,2.21415 0,1.78989 1.55232,2.13205 8.10142,1.78571 4.57877,-0.24214 8.34159,-1.157 8.65376,-2.104 z"
         style="fill:#80b4ff;fill-opacity:1;stroke:none" />
      <path
         inkscape:connector-curvature="0"
         id="path5063"
         d="m 615.15984,264.01977 0,-23.57143 23.57142,0 23.57143,0 0,23.57143 0,23.57143 -23.57143,0 -23.57142,0 0,-23.57143 z m 28.57142,14.28572 c 0,-1.19048 -1.26984,-2.14286 -2.85714,-2.14286 -2.6441,0 -2.85714,-0.95238 -2.85714,-12.77283 0,-7.02506 -0.53722,-13.10486 -1.19383,-13.51066 -2.13219,-1.31776 -9.50854,1.4271 -9.94674,3.70134 -0.32081,1.66494 0.47454,2.04018 3.21428,1.51644 l 3.64057,-0.69594 0,10.88083 c 0,10.65383 -0.0745,10.88082 -3.57142,10.88082 -3.46838,0 -4.56134,1.39104 -2.61905,3.33333 0.52381,0.52381 4.38095,0.95238 8.57143,0.95238 5.8201,0 7.61904,-0.50595 7.61904,-2.14285 z"
         style="fill:#80b4ff;fill-opacity:1;stroke:none" />
      <path
         inkscape:connector-curvature="0"
         id="path5065"
         d="m 615.15984,314.01977 0,-23.57143 23.57142,0 23.57143,0 0,23.57143 0,23.57143 -23.57143,0 -23.57142,0 0,-23.57143 z m 28.57142,14.28572 c 0,-1.19048 -1.26984,-2.14286 -2.85714,-2.14286 -2.6441,0 -2.85714,-0.95238 -2.85714,-12.77283 0,-7.02506 -0.53722,-13.10486 -1.19383,-13.51066 -2.13219,-1.31776 -9.50854,1.4271 -9.94674,3.70134 -0.32081,1.66495 0.47454,2.04018 3.21428,1.51644 l 3.64057,-0.69594 0,10.88083 c 0,10.65383 -0.0745,10.88082 -3.57142,10.88082 -3.46838,0 -4.56134,1.39104 -2.61905,3.33333 0.52381,0.52381 4.38095,0.95239 8.57143,0.95239 5.8201,0 7.61904,-0.50596 7.61904,-2.14286 z"
         style="fill:#80b4ff;fill-opacity:1;stroke:none" />
      <path
         inkscape:connector-curvature="0"
         id="path5067"
         d="m 615.15984,415.44835 0,-23.57143 23.57142,0 23.57143,0 0,23.57143 0,23.57142 -23.57143,0 -23.57142,0 0,-23.57142 z m 28.57142,12.85714 c 0,-1.19048 -1.26984,-2.14286 -2.85714,-2.14286 -2.6441,0 -2.85714,-0.95238 -2.85714,-12.77283 0,-7.02506 -0.53722,-13.10486 -1.19383,-13.51066 -2.13219,-1.31776 -9.50854,1.4271 -9.94674,3.70134 -0.32081,1.66495 0.47454,2.04018 3.21428,1.51644 l 3.64057,-0.69594 0,10.88083 c 0,10.65383 -0.0745,10.88082 -3.57142,10.88082 -3.46838,0 -4.56134,1.39104 -2.61905,3.33333 0.52381,0.52381 4.38095,0.95239 8.57143,0.95239 5.8201,0 7.61904,-0.50596 7.61904,-2.14286 z"
         style="fill:#80b4ff;fill-opacity:1;stroke:none" />
      <path
         inkscape:connector-curvature="0"
         id="path5069"
         d="m 462.30269,314.01977 0,-23.57143 23.57143,0 23.57143,0 0,23.57143 0,23.57143 -23.57143,0 -23.57143,0 0,-23.57143 z m 36.79138,13.92858 c 0.40718,-1.23329 -1.21503,-1.78572 -5.24376,-1.78572 -6.73844,0 -7.18927,-1.08526 -2.34239,-5.63867 5.35793,-5.03351 8.37577,-12.30193 6.53547,-15.74056 -2.26576,-4.23361 -6.85734,-6.14012 -12.31969,-5.11537 -3.49573,0.6558 -4.84958,1.66859 -4.84958,3.62788 0,2.40223 0.50011,2.54376 4.30359,1.21785 10.42551,-3.63435 11.52938,3.74432 2.12498,14.20427 -9.07526,10.09387 -8.68278,11.97541 2.38662,11.44134 5.45821,-0.26334 9.03971,-1.10534 9.40476,-2.21102 z"
         style="fill:#55ff55;fill-opacity:1;stroke:none" />
      <path
         inkscape:connector-curvature="0"
         id="path5071"
         d="m 513.73126,314.01977 0,-23.57143 23.57143,0 23.57143,0 0,23.57143 0,23.57143 -23.57143,0 -23.57143,0 0,-23.57143 z m 33.93424,13.92858 c 0.40718,-1.23329 -1.21503,-1.78572 -5.24376,-1.78572 -3.20833,0 -5.83333,-0.58203 -5.83333,-1.29341 0,-0.71137 2.25,-3.98648 5,-7.27802 6.13121,-7.33858 6.63477,-13.1487 1.43487,-16.55581 -4.75429,-3.11513 -13.57773,-1.67849 -13.57773,2.21074 0,2.35562 0.48882,2.48381 4.17119,1.09387 3.21077,-1.21193 4.69095,-1.14308 6.42857,0.29901 3.51674,2.91864 2.78928,5.02187 -4.95605,14.32882 -3.96739,4.7673 -6.80424,9.3299 -6.30413,10.13911 1.30028,2.10389 18.14449,1.07024 18.88037,-1.15859 l 0,0 z"
         style="fill:#55ff55;fill-opacity:1;stroke:none" />
      <path
         inkscape:connector-curvature="0"
         id="path5073"
         d="m 462.62529,365.0912 0.39169,-23.92857 23.21428,-0.39253 23.21429,-0.39253 0,24.3211 0,24.3211 -23.60597,0 -23.60597,0 0.39168,-23.92857 z m 36.46878,12.85715 c 0.40718,-1.23329 -1.21503,-1.78572 -5.24376,-1.78572 -6.73844,0 -7.18927,-1.08526 -2.34239,-5.63867 5.35793,-5.03351 8.37577,-12.30193 6.53547,-15.74056 -2.26576,-4.23361 -6.85734,-6.14012 -12.31969,-5.11537 -3.49573,0.6558 -4.84958,1.66859 -4.84958,3.62788 0,2.40223 0.50011,2.54376 4.30359,1.21785 10.42551,-3.63435 11.52938,3.74432 2.12498,14.20427 -9.07526,10.09387 -8.68278,11.97541 2.38662,11.44134 5.45821,-0.26334 9.03971,-1.10534 9.40476,-2.21102 z"
         style="fill:#55ff55;fill-opacity:1;stroke:none" />
      <path
         inkscape:connector-curvature="0"
         id="path5075"
         d="m 462.30269,415.44835 0,-23.57143 23.57143,0 23.57143,0 0,23.57143 0,23.57142 -23.57143,0 -23.57143,0 0,-23.57142 z m 36.79138,12.5 c 0.40718,-1.23329 -1.21503,-1.78572 -5.24376,-1.78572 -6.73844,0 -7.18927,-1.08526 -2.34239,-5.63867 5.35793,-5.03351 8.37577,-12.30193 6.53547,-15.74056 -2.26576,-4.23361 -6.85734,-6.14012 -12.31969,-5.11537 -3.49573,0.6558 -4.84958,1.66859 -4.84958,3.62788 0,2.40223 0.50011,2.54376 4.30359,1.21785 10.42551,-3.63435 11.52938,3.74432 2.12498,14.20427 -9.07526,10.09387 -8.68278,11.97541 2.38662,11.44134 5.45821,-0.26334 9.03971,-1.10534 9.40476,-2.21102 z"
         style="fill:#55ff55;fill-opacity:1;stroke:none" />
      <path
         inkscape:connector-curvature="0"
         id="path5077"
         d="m 513.73126,415.44835 0,-23.57143 23.57143,0 23.57143,0 0,23.57143 0,23.57142 -23.57143,0 -23.57143,0 0,-23.57142 z m 33.93424,12.5 c 0.40718,-1.23329 -1.21503,-1.78572 -5.24376,-1.78572 -3.20833,0 -5.83333,-0.58203 -5.83333,-1.29341 0,-0.71137 2.25,-3.98648 5,-7.27802 6.13121,-7.33858 6.63477,-13.1487 1.43487,-16.55581 -4.75429,-3.11513 -13.57773,-1.67849 -13.57773,2.21074 0,2.35562 0.48882,2.48381 4.17119,1.09387 3.21077,-1.21193 4.69095,-1.14308 6.42857,0.29901 3.51674,2.91864 2.78928,5.02187 -4.95605,14.32882 -3.96739,4.7673 -6.80424,9.3299 -6.30413,10.13911 1.30028,2.10389 18.14449,1.07024 18.88037,-1.15859 l 0,0 z"
         style="fill:#55ff55;fill-opacity:1;stroke:none" />
      <path
         inkscape:connector-curvature="0"
         id="path5079"
         d="m 563.73126,314.01977 0,-23.57143 23.57143,0 23.57143,0 0,23.57143 0,23.57143 -23.57143,0 -23.57143,0 0,-23.57143 z m 28.25357,14.20471 c 3.44851,-2.41543 4.42625,-10.23918 1.62915,-13.03628 -1.10877,-1.10877 -1.0303,-2.37142 0.27753,-4.46558 4.00778,-6.41748 -3.60798,-13.29855 -12.3031,-11.11621 -5.61769,1.40995 -4.60977,5.11652 1.13769,4.18383 5.80655,-0.94227 9.62856,2.43856 6.71945,5.94382 -0.97813,1.17857 -2.98541,2.14286 -4.46064,2.14286 -4.25355,0 -3.15695,4.04114 1.23414,4.54797 4.43113,0.51144 5.93016,4.33717 3.05626,7.80001 -1.33985,1.61442 -3.29833,1.97669 -7.26082,1.34306 -4.15501,-0.66441 -5.42608,-0.38963 -5.42608,1.17303 0,4.0355 10.33166,5.03099 15.39642,1.48349 z"
         style="fill:#ff9855;fill-opacity:1;stroke:none" />
      <path
         inkscape:connector-curvature="0"
         id="path5081"
         d="m 563.73126,364.73406 0,-24.28571 23.57143,0 23.57143,0 0,24.28571 0,24.28571 -23.57143,0 -23.57143,0 0,-24.28571 z m 28.25357,13.49042 c 3.44851,-2.41543 4.42625,-10.23918 1.62915,-13.03628 -1.10877,-1.10877 -1.0303,-2.37142 0.27753,-4.46558 4.00778,-6.41748 -3.60798,-13.29855 -12.3031,-11.11621 -5.61769,1.40995 -4.60977,5.11652 1.13769,4.18383 3.29229,-0.53426 5.27909,-0.0774 6.6035,1.51839 2.34315,2.82332 0.0779,6.16922 -4.63065,6.83967 -4.4658,0.63588 -3.68521,3.17245 1.23872,4.02534 4.67862,0.8104 6.23372,4.5617 3.33764,8.05126 -1.33985,1.61442 -3.29833,1.97669 -7.26082,1.34306 -4.15501,-0.66441 -5.42608,-0.38963 -5.42608,1.17303 0,4.0355 10.33166,5.03099 15.39642,1.48349 z"
         style="fill:#ff9855;fill-opacity:1;stroke:none" />
      <path
         inkscape:connector-curvature="0"
         id="path5083"
         d="m 513.73126,364.73406 0,-24.28571 23.57143,0 23.57143,0 0,24.28571 0,24.28571 -23.57143,0 -23.57143,0 0,-24.28571 z m 30.77923,12.20779 c 4.06595,-4.06595 4.33157,-6.10837 1.34831,-10.36757 -1.36608,-1.95036 -1.62824,-3.40875 -0.71428,-3.97361 2.71423,-1.67749 1.59379,-9.02817 -1.73112,-11.35703 -5.14176,-3.60143 -13.96785,-2.55549 -13.96785,1.65527 0,1.59335 0.9496,1.90655 3.69292,1.21802 5.14426,-1.29112 9.16422,0.29079 9.16422,3.60626 0,1.96446 -1.27521,3.05163 -4.28571,3.65373 -5.36964,1.07392 -5.60806,4.44378 -0.35714,5.04797 3.05026,0.35097 4.02698,1.30292 4.36877,4.25797 0.51833,4.48147 -3.06446,6.22859 -9.75802,4.75843 -3.24983,-0.71378 -4.25361,-0.4265 -4.25361,1.21737 0,4.72519 11.84808,4.92862 16.49351,0.28319 z"
         style="fill:#ff9855;fill-opacity:1;stroke:none" />
      <path
         inkscape:connector-curvature="0"
         id="path5085"
         d="m 563.73126,415.44835 0,-23.57143 23.57143,0 23.57143,0 0,23.57143 0,23.57142 -23.57143,0 -23.57143,0 0,-23.57142 z m 28.25357,12.77613 c 3.44851,-2.41543 4.42625,-10.23918 1.62915,-13.03628 -1.10877,-1.10877 -1.0303,-2.37142 0.27753,-4.46558 4.00778,-6.41748 -3.60798,-13.29855 -12.3031,-11.11621 -5.61769,1.40995 -4.60977,5.11652 1.13769,4.18383 3.29229,-0.53426 5.27909,-0.0774 6.6035,1.51839 2.34315,2.82332 0.0779,6.16922 -4.63065,6.83967 -4.4658,0.63588 -3.68521,3.17245 1.23872,4.02534 4.67862,0.8104 6.23372,4.5617 3.33764,8.05126 -1.33985,1.61442 -3.29833,1.97669 -7.26082,1.34306 -4.15501,-0.66441 -5.42608,-0.38963 -5.42608,1.17303 0,4.0355 10.33166,5.03099 15.39642,1.48349 z"
         style="fill:#ff9855;fill-opacity:1;stroke:none" />
      <path
         inkscape:connector-curvature="0"
         id="path5087"
         d="m 615.15984,364.73406 0,-24.28571 23.57142,0 23.57143,0 0,24.28571 0,24.28571 -23.57143,0 -23.57142,0 0,-24.28571 z m 25.39642,13.49042 c 3.68321,-2.57982 4.29483,-9.35406 1.08506,-12.01794 -1.83104,-1.51962 -1.81846,-2.14885 0.10152,-5.07912 4.14033,-6.31894 -2.83277,-13.12917 -11.73343,-11.45939 -7.31019,1.37139 -6.36155,4.96004 1.22185,4.62221 5.59594,-0.24928 6.07143,0.009 6.07143,3.30096 0,2.83414 -0.81102,3.66475 -3.92857,4.02346 -5.02191,0.57784 -5.13085,4.21459 -0.14409,4.81023 5.05565,0.60386 7.43229,4.40744 4.76338,7.62328 -1.47255,1.77431 -3.43069,2.21896 -7.41716,1.68426 -3.90356,-0.52358 -5.41641,-0.1992 -5.41641,1.16138 0,3.89584 10.44526,4.7986 15.39642,1.33067 z"
         style="fill:#ff9855;fill-opacity:1;stroke:none" />
    </g>
    <g
       id="g5286"
       transform="translate(-1028.8793,2.8883971)">
      <g
         inkscape:export-ydpi="150.04359"
         inkscape:export-xdpi="150.04359"
         inkscape:export-filename="/home/fake/Tesi-Magistrale/prodotto_partizioni.png"
         style="opacity:0.62452105"
         transform="translate(1435.1429,-68.571429)"
         id="g5091">
        <g
           id="g5093"
           transform="matrix(1.6991637,0,0,1.6991637,-359.91636,549.58868)"
           inkscape:label="Grid_Polar:X4:Y4">
          <g
             id="g5095"
             inkscape:label="MajorXGridlines">
            <path
               id="path5097"
               d="m 50,0 0,200"
               style="fill:none;stroke:#000000;stroke-width:1.19361615"
               inkscape:label="MajorXDiv1"
               inkscape:connector-curvature="0" />
            <path
               id="path5099"
               d="m 100,0 0,200"
               style="fill:none;stroke:#000000;stroke-width:1.19361615"
               inkscape:label="MajorXDiv2"
               inkscape:connector-curvature="0" />
            <path
               id="path5101"
               d="m 150,0 0,200"
               style="fill:none;stroke:#000000;stroke-width:1.19361615"
               inkscape:label="MajorXDiv3"
               inkscape:connector-curvature="0" />
          </g>
          <g
             id="g5103"
             inkscape:label="MajorYGridlines">
            <path
               id="path5105"
               d="m 0,50 200,0"
               style="fill:none;stroke:#000000;stroke-width:1.19361615"
               inkscape:label="MajorYDiv1"
               inkscape:connector-curvature="0" />
            <path
               id="path5107"
               d="m 0,100 200,0"
               style="fill:none;stroke:#000000;stroke-width:1.19361615"
               inkscape:label="MajorYDiv2"
               inkscape:connector-curvature="0" />
            <path
               id="path5109"
               d="m 0,150 200,0"
               style="fill:none;stroke:#000000;stroke-width:1.19361615"
               inkscape:label="MajorYDiv3"
               inkscape:connector-curvature="0" />
          </g>
          <rect
             id="rect5111"
             x="0"
             y="0"
             inkscape:label="Border"
             height="200"
             width="200"
             style="fill:none;stroke:#000000;stroke-width:1.79042423" />
        </g>
        <path
           style="fill:#80ffe6;fill-opacity:1;stroke:none"
           d="m -188.14997,677.1317 0,-40.71428 40.71429,0 40.71429,0 0,40.71428 0,40.71429 -40.71429,0 -40.71429,0 0,-40.71429 z"
           id="path5113"
           inkscape:connector-curvature="0" />
        <path
           style="fill:#ffaacc;fill-opacity:1;stroke:none"
           d="m -188.14997,592.84599 0,-40.71429 40.71429,0 40.71429,0 0,40.71429 0,40.71428 -40.71429,0 -40.71429,0 0,-40.71428 z"
           id="path5115"
           inkscape:connector-curvature="0" />
        <path
           style="fill:#ff9955;fill-opacity:1;stroke:none"
           d="m -188.14997,847.1317 0,-40.71428 40.71429,0 40.71429,0 0,40.71428 0,40.71429 -40.71429,0 -40.71429,0 0,-40.71429 z"
           id="path5117"
           inkscape:connector-curvature="0" />
        <path
           style="fill:#55ff55;fill-opacity:1;stroke:none"
           d="m -358.14997,677.1317 0,-40.71428 40.71429,0 40.71429,0 0,40.71428 0,40.71429 -40.71429,0 -40.71429,0 0,-40.71429 z"
           id="path5119"
           inkscape:connector-curvature="0" />
        <path
           style="fill:#55ff55;fill-opacity:1;stroke:none"
           d="m -358.14997,761.41742 0,-40.71429 40.71429,0 40.71429,0 0,40.71429 0,40.71428 -40.71429,0 -40.71429,0 0,-40.71428 z"
           id="path5121"
           inkscape:connector-curvature="0" />
        <path
           style="fill:#55ff55;fill-opacity:1;stroke:none"
           d="m -358.14997,847.1317 0,-40.71428 40.71429,0 40.71429,0 0,40.71428 0,40.71429 -40.71429,0 -40.71429,0 0,-40.71429 z"
           id="path5123"
           inkscape:connector-curvature="0" />
        <path
           style="fill:#55ff55;fill-opacity:1;stroke:none"
           d="m -273.86425,847.1317 0,-40.71428 41.42857,0 41.42857,0 0,40.71428 0,40.71429 -41.42857,0 -41.42857,0 0,-40.71429 z"
           id="path5125"
           inkscape:connector-curvature="0" />
        <path
           style="fill:#80b3ff;fill-opacity:1;stroke:none"
           d="m -358.14997,592.84599 0,-40.71429 40.71429,0 40.71429,0 0,40.71429 0,40.71428 -40.71429,0 -40.71429,0 0,-40.71428 z"
           id="path5127"
           inkscape:connector-curvature="0" />
        <path
           style="fill:#80b3ff;fill-opacity:1;stroke:none"
           d="m -273.86425,592.84599 0,-40.71429 41.42857,0 41.42857,0 0,40.71429 0,40.71428 -41.42857,0 -41.42857,0 0,-40.71428 z"
           id="path5129"
           inkscape:connector-curvature="0" />
        <path
           style="fill:#80b3ff;fill-opacity:1;stroke:none"
           d="m -103.86425,592.84599 0,-40.71429 40.714285,0 40.714286,0 0,40.71429 0,40.71428 -40.714286,0 -40.714285,0 0,-40.71428 z"
           id="path5131"
           inkscape:connector-curvature="0" />
        <path
           style="fill:#80b3ff;fill-opacity:1;stroke:none"
           d="m -103.86425,677.1317 0,-40.71428 40.714285,0 40.714286,0 0,40.71428 0,40.71429 -40.714286,0 -40.714285,0 0,-40.71429 z"
           id="path5133"
           inkscape:connector-curvature="0" />
        <path
           style="fill:#80b3ff;fill-opacity:1;stroke:none"
           d="m -103.86425,847.1317 0,-40.71428 40.714285,0 40.714286,0 0,40.71428 0,40.71429 -40.714286,0 -40.714285,0 0,-40.71429 z"
           id="path5135"
           inkscape:connector-curvature="0" />
        <path
           style="fill:#e5ff80;fill-opacity:1;stroke:none"
           d="m -273.86425,761.41742 0,-40.71429 41.42857,0 41.42857,0 0,40.71429 0,40.71428 -41.42857,0 -41.42857,0 0,-40.71428 z"
           id="path5137"
           inkscape:connector-curvature="0" />
        <path
           style="fill:#e5ff80;fill-opacity:1;stroke:none"
           d="m -188.14997,761.41742 0,-40.71429 40.71429,0 40.71429,0 0,40.71429 0,40.71428 -40.71429,0 -40.71429,0 0,-40.71428 z"
           id="path5139"
           inkscape:connector-curvature="0" />
        <path
           style="fill:#e5ff80;fill-opacity:1;stroke:none"
           d="m -103.86425,761.41742 0,-40.71429 40.714285,0 40.714286,0 0,40.71429 0,40.71428 -40.714286,0 -40.714285,0 0,-40.71428 z"
           id="path5141"
           inkscape:connector-curvature="0" />
        <path
           style="fill:#d3bc5f;fill-opacity:1;stroke:none"
           d="m -273.86425,677.1317 0,-40.71428 41.42857,0 41.42857,0 0,40.71428 0,40.71429 -41.42857,0 -41.42857,0 0,-40.71429 z"
           id="path5143"
           inkscape:connector-curvature="0" />
      </g>
      <flowRoot
         inkscape:export-ydpi="150.04359"
         inkscape:export-xdpi="150.04359"
         inkscape:export-filename="/home/fake/Tesi-Magistrale/prodotto_partizioni.png"
         transform="matrix(0.75195005,0,0,0.75195005,965.62159,366.15741)"
         style="font-size:40px;font-style:normal;font-variant:normal;font-weight:normal;font-stretch:normal;text-align:start;line-height:279.99999523%;letter-spacing:-5px;word-spacing:0px;text-anchor:start;fill:#000000;fill-opacity:1;stroke:none;font-family:DejaVu Sans Mono;-inkscape-font-specification:DejaVu Sans Mono"
         id="flowRoot5145"
         xml:space="preserve"><flowRegion
           id="flowRegion5147"><rect
             ry="0"
             style="font-size:40px;font-style:normal;font-variant:normal;font-weight:normal;font-stretch:normal;text-align:start;line-height:279.99999523%;letter-spacing:-5px;text-anchor:start;font-family:DejaVu Sans Mono;-inkscape-font-specification:DejaVu Sans Mono"
             y="133.79076"
             x="150"
             height="504.28568"
             width="510.00003"
             id="rect5149" /></flowRegion><flowPara
           id="flowPara5151">(1,1) (1,1) (3,1) (1,1)</flowPara><flowPara
           id="flowPara5153">(2,2) (1,2) (3,3) (1,1)</flowPara><flowPara
           id="flowPara5155">(2,2) (1,3) (1,3) (1,3)</flowPara><flowPara
           id="flowPara5157">(2,2) (2,2) (2,3) (1,1)</flowPara></flowRoot>    </g>
    <text
       xml:space="preserve"
       style="font-size:36px;font-style:normal;font-variant:normal;font-weight:normal;font-stretch:normal;line-height:125%;letter-spacing:0px;word-spacing:0px;fill:#000000;fill-opacity:1;stroke:none;font-family:DejaVu Sans Mono;-inkscape-font-specification:DejaVu Sans Mono"
       x="425.69214"
       y="530.96484"
       id="text5161"
       sodipodi:linespacing="125%"><tspan
         sodipodi:role="line"
         id="tspan5163"
         x="425.69214"
         y="530.96484">(1,1) </tspan><tspan
         sodipodi:role="line"
         x="425.69214"
         y="575.96484"
         id="tspan5165">(1,2) </tspan><tspan
         sodipodi:role="line"
         x="425.69214"
         y="620.96484"
         id="tspan5167">(1,3) </tspan><tspan
         sodipodi:role="line"
         x="425.69214"
         y="665.96484"
         id="tspan5169">(2,2) </tspan><tspan
         sodipodi:role="line"
         x="425.69214"
         y="710.96484"
         id="tspan5171">(2,3) </tspan><tspan
         sodipodi:role="line"
         x="425.69214"
         y="755.96484"
         id="tspan5173">(3,1) </tspan><tspan
         sodipodi:role="line"
         x="425.69214"
         y="800.96484"
         id="tspan5175">(3,3) </tspan></text>
    <rect
       ry="0"
       y="641.23468"
       x="554.26355"
       height="29.115154"
       width="29.115154"
       id="rect5177"
       style="fill:#55ff55;stroke:#000000;stroke-width:2;stroke-miterlimit:4;stroke-opacity:1;stroke-dasharray:none" />
    <rect
       style="fill:#d3bc5f;fill-opacity:1;stroke:#000000;stroke-width:2;stroke-miterlimit:4;stroke-opacity:1;stroke-dasharray:none"
       id="rect5179"
       width="29.115154"
       height="29.115154"
       x="554.26355"
       y="550.0072"
       ry="0" />
    <rect
       style="fill:#ff9955;fill-opacity:1;stroke:#000000;stroke-width:2;stroke-miterlimit:4;stroke-opacity:1;stroke-dasharray:none"
       id="rect5181"
       width="29.115154"
       height="29.115154"
       x="554.26355"
       y="686.84839"
       ry="0" />
    <rect
       style="fill:#ffaacc;fill-opacity:1;stroke:#000000;stroke-width:2;stroke-miterlimit:4;stroke-opacity:1;stroke-dasharray:none"
       id="rect5183"
       width="29.115154"
       height="29.115154"
       x="554.26355"
       y="732.4621"
       ry="0" />
    <rect
       style="fill:#80ffe6;fill-opacity:1;stroke:#000000;stroke-width:2;stroke-miterlimit:4;stroke-opacity:1;stroke-dasharray:none"
       id="rect5185"
       width="29.115154"
       height="29.115154"
       x="554.26355"
       y="778.07587"
       ry="0" />
    <g
       id="g5187"
       transform="translate(29.1207,2.8883971)"
       style="fill:#80b3ff;fill-opacity:1">
      <rect
         ry="0"
         y="500.90515"
         x="555.40833"
         height="29.115154"
         width="29.115154"
         id="rect5189"
         style="fill:#80b3ff;fill-opacity:1;stroke:#000000;stroke-width:2;stroke-miterlimit:4;stroke-opacity:1;stroke-dasharray:none" />
      <rect
         ry="0"
         y="500.90515"
         x="524.29315"
         height="29.115154"
         width="29.115154"
         id="rect5191"
         style="fill:#80b3ff;fill-opacity:1;stroke:#000000;stroke-width:2;stroke-miterlimit:4;stroke-opacity:1;stroke-dasharray:none" />
      <rect
         style="fill:#80b3ff;fill-opacity:1;stroke:#000000;stroke-width:2.0380609;stroke-miterlimit:4;stroke-opacity:1;stroke-dasharray:none"
         id="rect5193"
         width="29.669228"
         height="29.669228"
         x="649.36493"
         y="500.62811"
         ry="0" />
      <rect
         style="fill:#80b3ff;fill-opacity:1;stroke:#000000;stroke-width:2.0380609;stroke-miterlimit:4;stroke-opacity:1;stroke-dasharray:none"
         id="rect5195"
         width="29.669228"
         height="29.669228"
         x="617.65765"
         y="500.62811"
         ry="0" />
      <rect
         ry="0"
         y="500.90515"
         x="586.5235"
         height="29.115154"
         width="29.115154"
         id="rect5197"
         style="fill:#80b3ff;fill-opacity:1;stroke:#000000;stroke-width:2;stroke-miterlimit:4;stroke-opacity:1;stroke-dasharray:none" />
    </g>
    <use
       x="0"
       y="0"
       xlink:href="#rect6724"
       id="use5199"
       transform="translate(29.1207,2.8883971)"
       width="744.09448"
       height="1052.3622" />
    <use
       x="0"
       y="0"
       xlink:href="#rect6724"
       id="use5201"
       transform="translate(59.1207,2.8883971)"
       width="744.09448"
       height="1052.3622" />
    <use
       x="0"
       y="0"
       xlink:href="#use7137"
       id="use5203"
       transform="translate(59.1207,2.8883971)"
       width="744.09448"
       height="1052.3622" />
    <g
       id="g5205"
       transform="translate(-32.8793,2.8883971)">
      <rect
         style="fill:#e5ff80;stroke:#000000;stroke-width:2;stroke-miterlimit:4;stroke-opacity:1;stroke-dasharray:none"
         id="rect5207"
         width="29.115154"
         height="29.115154"
         x="617.14288"
         y="594.16107"
         ry="0" />
      <use
         height="1052.3622"
         width="744.09448"
         transform="translate(-31.115155,-2.9325075e-8)"
         id="use5209"
         xlink:href="#rect6732"
         y="0"
         x="0" />
      <use
         height="1052.3622"
         width="744.09448"
         transform="translate(62.230309,-2.9325075e-8)"
         id="use5211"
         xlink:href="#use7164"
         y="0"
         x="0" />
    </g>
    <flowRoot
       xml:space="preserve"
       id="flowRoot3117"
       style="font-size:48px;font-style:normal;font-variant:normal;font-weight:bold;font-stretch:normal;line-height:125%;letter-spacing:0px;word-spacing:0px;fill:#000000;fill-opacity:1;stroke:none;font-family:DejaVu Sans Mono;-inkscape-font-specification:DejaVu Sans Mono Bold"
       transform="translate(488,-307.14286)"><flowRegion
         id="flowRegion3119"><rect
           id="rect3121"
           width="62.857143"
           height="111.42857"
           x="28.571428"
           y="615.2193"
           style="font-size:48px;font-weight:bold;-inkscape-font-specification:DejaVu Sans Mono Bold" /></flowRegion><flowPara
         id="flowPara3123">=</flowPara></flowRoot>    <g
       transform="translate(-62.8793,2.8883971)"
       id="g3213">
      <rect
         ry="0"
         y="594.16107"
         x="617.14288"
         height="29.115154"
         width="29.115154"
         id="rect3215"
         style="fill:#e5ff80;stroke:#000000;stroke-width:2;stroke-miterlimit:4;stroke-opacity:1;stroke-dasharray:none" />
      <use
         x="0"
         y="0"
         xlink:href="#rect6732"
         id="use3217"
         transform="translate(-31.115155,-2.9325075e-8)"
         width="744.09448"
         height="1052.3622" />
      <use
         x="0"
         y="0"
         xlink:href="#use7164"
         id="use3219"
         transform="translate(62.230309,-2.9325075e-8)"
         width="744.09448"
         height="1052.3622" />
    </g>
    <g
       id="g3221"
       transform="translate(-2.8793,2.8883971)">
      <rect
         style="fill:#e5ff80;stroke:#000000;stroke-width:2;stroke-miterlimit:4;stroke-opacity:1;stroke-dasharray:none"
         id="rect3223"
         width="29.115154"
         height="29.115154"
         x="617.14288"
         y="594.16107"
         ry="0" />
      <use
         height="1052.3622"
         width="744.09448"
         transform="translate(-31.115155,-2.9325075e-8)"
         id="use3225"
         xlink:href="#rect6732"
         y="0"
         x="0" />
      <use
         height="1052.3622"
         width="744.09448"
         transform="translate(62.230309,-2.9325075e-8)"
         id="use3227"
         xlink:href="#use7164"
         y="0"
         x="0" />
    </g>
  </g>
</svg>
