<?xml version="1.0" encoding="UTF-8" standalone="no"?>
<!-- Created with Inkscape (http://www.inkscape.org/) -->

<svg
   xmlns:dc="http://purl.org/dc/elements/1.1/"
   xmlns:cc="http://creativecommons.org/ns#"
   xmlns:rdf="http://www.w3.org/1999/02/22-rdf-syntax-ns#"
   xmlns:svg="http://www.w3.org/2000/svg"
   xmlns="http://www.w3.org/2000/svg"
   xmlns:xlink="http://www.w3.org/1999/xlink"
   xmlns:sodipodi="http://sodipodi.sourceforge.net/DTD/sodipodi-0.dtd"
   xmlns:inkscape="http://www.inkscape.org/namespaces/inkscape"
   width="744.09448819"
   height="1052.3622047"
   id="svg2"
   version="1.1"
   inkscape:version="0.48.2 r9819"
   sodipodi:docname="semplice_prodotto2.svg">
  <defs
     id="defs4" />
  <sodipodi:namedview
     id="base"
     pagecolor="#ffffff"
     bordercolor="#666666"
     borderopacity="1.0"
     inkscape:pageopacity="0.0"
     inkscape:pageshadow="2"
     inkscape:zoom="0.49497475"
     inkscape:cx="192.1821"
     inkscape:cy="485.51885"
     inkscape:document-units="px"
     inkscape:current-layer="layer1"
     showgrid="false"
     inkscape:snap-bbox="true"
     inkscape:bbox-paths="true"
     inkscape:bbox-nodes="true"
     inkscape:snap-bbox-edge-midpoints="true"
     inkscape:snap-bbox-midpoints="true"
     inkscape:object-paths="true"
     inkscape:window-width="1280"
     inkscape:window-height="750"
     inkscape:window-x="0"
     inkscape:window-y="24"
     inkscape:window-maximized="1" />
  <metadata
     id="metadata7">
    <rdf:RDF>
      <cc:Work
         rdf:about="">
        <dc:format>image/svg+xml</dc:format>
        <dc:type
           rdf:resource="http://purl.org/dc/dcmitype/StillImage" />
        <dc:title />
      </cc:Work>
    </rdf:RDF>
  </metadata>
  <g
     inkscape:label="Layer 1"
     inkscape:groupmode="layer"
     id="layer1">
    <text
       sodipodi:linespacing="125%"
       id="text3808"
       y="131.25116"
       x="-267.49033"
       style="font-size:30px;font-style:normal;font-variant:normal;font-weight:normal;font-stretch:normal;line-height:125%;letter-spacing:0px;word-spacing:0px;fill:#000000;fill-opacity:1;stroke:none;font-family:OpenSymbol;-inkscape-font-specification:OpenSymbol"
       xml:space="preserve"><tspan
         sodipodi:role="line"
         id="tspan3035"
         x="-267.49033"
         y="131.25116">ναβγ≤∧</tspan></text>
    <text
       sodipodi:linespacing="125%"
       id="text3800-5"
       y="453.74335"
       x="136.05765"
       style="font-size:24px;font-style:normal;font-variant:normal;font-weight:normal;font-stretch:normal;line-height:125%;letter-spacing:0px;word-spacing:0px;fill:#000000;fill-opacity:1;stroke:none;font-family:OpenSymbol;-inkscape-font-specification:OpenSymbol;text-anchor:start;text-align:start;writing-mode:lr"
       xml:space="preserve"
       inkscape:export-filename="/home/fake/Tesi-Magistrale/prodotto_bordi.png"
       inkscape:export-xdpi="200.03999"
       inkscape:export-ydpi="200.03999"><tspan
         y="453.74335"
         x="136.05765"
         id="tspan3802-0"
         sodipodi:role="line"
         style="font-size:24px;-inkscape-font-specification:OpenSymbol;font-family:OpenSymbol;font-weight:normal;font-style:normal;font-stretch:normal;font-variant:normal;text-anchor:start;text-align:start;writing-mode:lr;line-height:125%">α</tspan></text>
    <text
       xml:space="preserve"
       style="font-size:24px;font-style:normal;font-variant:normal;font-weight:normal;font-stretch:normal;line-height:125%;letter-spacing:0px;word-spacing:0px;fill:#000000;fill-opacity:1;stroke:none;font-family:OpenSymbol;-inkscape-font-specification:OpenSymbol;text-anchor:start;text-align:start;writing-mode:lr"
       x="392.67026"
       y="457.23004"
       id="text3804-4"
       sodipodi:linespacing="125%"
       inkscape:export-filename="/home/fake/Tesi-Magistrale/prodotto_bordi.png"
       inkscape:export-xdpi="200.03999"
       inkscape:export-ydpi="200.03999"><tspan
         sodipodi:role="line"
         id="tspan3806-7"
         x="392.67026"
         y="457.23004">β</tspan></text>
    <rect
       style="fill:none;stroke:#000000;stroke-width:2;stroke-miterlimit:4;stroke-opacity:1;stroke-dasharray:none"
       id="rect3240"
       width="212.13203"
       height="212.13203"
       x="51.731049"
       y="201.81374"
       inkscape:export-filename="/home/fake/Tesi-Magistrale/prodotto_bordi.png"
       inkscape:export-xdpi="200.03999"
       inkscape:export-ydpi="200.03999" />
    <path
       style="fill:none;stroke:#000000;stroke-width:3;stroke-linecap:butt;stroke-linejoin:miter;stroke-miterlimit:4;stroke-opacity:1;stroke-dasharray:9, 9;stroke-dashoffset:0"
       d="m 100.21836,413.94577 0,-212.13203"
       id="path3242"
       inkscape:connector-curvature="0"
       inkscape:export-filename="/home/fake/Tesi-Magistrale/prodotto_bordi.png"
       inkscape:export-xdpi="200.03999"
       inkscape:export-ydpi="200.03999" />
    <path
       style="fill:none;stroke:#000000;stroke-width:3;stroke-linecap:butt;stroke-linejoin:miter;stroke-miterlimit:4;stroke-opacity:1;stroke-dasharray:9, 9;stroke-dashoffset:3"
       d="m 51.73105,309.90006 212.13203,0"
       id="path3244"
       inkscape:connector-curvature="0"
       inkscape:export-filename="/home/fake/Tesi-Magistrale/prodotto_bordi.png"
       inkscape:export-xdpi="200.03999"
       inkscape:export-ydpi="200.03999" />
    <path
       style="fill:none;stroke:#000000;stroke-width:3;stroke-linecap:butt;stroke-linejoin:miter;stroke-miterlimit:4;stroke-opacity:1;stroke-dasharray:9, 9;stroke-dashoffset:3;marker-start:none"
       d="m 51.73105,258.38228 113.13707,0 0,155.56349"
       id="path3246"
       inkscape:connector-curvature="0"
       inkscape:export-filename="/home/fake/Tesi-Magistrale/prodotto_bordi.png"
       inkscape:export-xdpi="200.03999"
       inkscape:export-ydpi="200.03999" />
    <rect
       y="201.81374"
       x="291.73105"
       height="212.13203"
       width="212.13203"
       id="rect3248"
       style="fill:none;stroke:#000000;stroke-width:2;stroke-miterlimit:4;stroke-opacity:1;stroke-dasharray:none"
       inkscape:export-filename="/home/fake/Tesi-Magistrale/prodotto_bordi.png"
       inkscape:export-xdpi="200.03999"
       inkscape:export-ydpi="200.03999" />
    <path
       inkscape:connector-curvature="0"
       id="path3252"
       d="m 291.73105,309.90006 212.13203,0"
       style="fill:none;stroke:#000000;stroke-width:3;stroke-linecap:butt;stroke-linejoin:miter;stroke-miterlimit:4;stroke-opacity:1;stroke-dasharray:9, 9;stroke-dashoffset:12"
       inkscape:export-filename="/home/fake/Tesi-Magistrale/prodotto_bordi.png"
       inkscape:export-xdpi="200.03999"
       inkscape:export-ydpi="200.03999" />
    <path
       inkscape:connector-curvature="0"
       id="path3254"
       d="m 291.73105,258.38228 113.13707,0 0,155.56349"
       style="fill:none;stroke:#000000;stroke-width:3;stroke-linecap:butt;stroke-linejoin:miter;stroke-miterlimit:4;stroke-opacity:1;stroke-dasharray:9, 9;stroke-dashoffset:12"
       inkscape:export-filename="/home/fake/Tesi-Magistrale/prodotto_bordi.png"
       inkscape:export-xdpi="200.03999"
       inkscape:export-ydpi="200.03999" />
    <path
       style="fill:none;stroke:#000000;stroke-width:3;stroke-linecap:butt;stroke-linejoin:miter;stroke-miterlimit:4;stroke-opacity:1;stroke-dasharray:9, 9;stroke-dashoffset:0"
       d="m 291.73105,360.40769 212.13203,0"
       id="path4026"
       inkscape:connector-curvature="0"
       inkscape:export-filename="/home/fake/Tesi-Magistrale/prodotto_bordi.png"
       inkscape:export-xdpi="200.03999"
       inkscape:export-ydpi="200.03999" />
    <path
       style="fill:none;stroke:#000000;stroke-width:3;stroke-linecap:butt;stroke-linejoin:miter;stroke-miterlimit:4;stroke-opacity:1;stroke-dasharray:9, 9;stroke-dashoffset:13.2"
       d="m 448.72099,201.81374 0,212.13203"
       id="path4028"
       inkscape:connector-curvature="0"
       inkscape:export-filename="/home/fake/Tesi-Magistrale/prodotto_bordi.png"
       inkscape:export-xdpi="200.03999"
       inkscape:export-ydpi="200.03999" />
    <use
       x="0"
       y="0"
       xlink:href="#rect3240"
       id="use5222"
       transform="translate(480,0)"
       width="744.09448"
       height="1052.3622"
       inkscape:export-filename="/home/fake/Tesi-Magistrale/prodotto_bordi.png"
       inkscape:export-xdpi="200.03999"
       inkscape:export-ydpi="200.03999" />
    <use
       x="0"
       y="0"
       xlink:href="#path3242"
       id="use5224"
       transform="translate(480,0)"
       width="744.09448"
       height="1052.3622"
       inkscape:export-filename="/home/fake/Tesi-Magistrale/prodotto_bordi.png"
       inkscape:export-xdpi="200.03999"
       inkscape:export-ydpi="200.03999" />
    <use
       x="0"
       y="0"
       xlink:href="#path3244"
       id="use5226"
       transform="translate(480,0)"
       width="744.09448"
       height="1052.3622"
       inkscape:export-filename="/home/fake/Tesi-Magistrale/prodotto_bordi.png"
       inkscape:export-xdpi="200.03999"
       inkscape:export-ydpi="200.03999" />
    <use
       x="0"
       y="0"
       xlink:href="#path3246"
       id="use5228"
       transform="translate(480,0)"
       width="744.09448"
       height="1052.3622"
       inkscape:export-filename="/home/fake/Tesi-Magistrale/prodotto_bordi.png"
       inkscape:export-xdpi="200.03999"
       inkscape:export-ydpi="200.03999" />
    <use
       x="0"
       y="0"
       xlink:href="#rect3248"
       id="use5230"
       transform="translate(240,0)"
       width="744.09448"
       height="1052.3622"
       inkscape:export-filename="/home/fake/Tesi-Magistrale/prodotto_bordi.png"
       inkscape:export-xdpi="200.03999"
       inkscape:export-ydpi="200.03999" />
    <use
       x="0"
       y="0"
       xlink:href="#path3252"
       id="use5232"
       transform="translate(240,0)"
       width="744.09448"
       height="1052.3622"
       inkscape:export-filename="/home/fake/Tesi-Magistrale/prodotto_bordi.png"
       inkscape:export-xdpi="200.03999"
       inkscape:export-ydpi="200.03999" />
    <use
       x="0"
       y="0"
       xlink:href="#path3254"
       id="use5234"
       transform="translate(240,0)"
       width="744.09448"
       height="1052.3622"
       inkscape:export-filename="/home/fake/Tesi-Magistrale/prodotto_bordi.png"
       inkscape:export-xdpi="200.03999"
       inkscape:export-ydpi="200.03999" />
    <use
       x="0"
       y="0"
       xlink:href="#path4026"
       id="use5236"
       transform="translate(240,0)"
       width="744.09448"
       height="1052.3622"
       inkscape:export-filename="/home/fake/Tesi-Magistrale/prodotto_bordi.png"
       inkscape:export-xdpi="200.03999"
       inkscape:export-ydpi="200.03999" />
    <use
       x="0"
       y="0"
       xlink:href="#path4028"
       id="use5238"
       transform="translate(240,0)"
       width="744.09448"
       height="1052.3622"
       inkscape:export-filename="/home/fake/Tesi-Magistrale/prodotto_bordi.png"
       inkscape:export-xdpi="200.03999"
       inkscape:export-ydpi="200.03999" />
    <text
       xml:space="preserve"
       style="font-size:40px;font-style:normal;font-variant:normal;font-weight:normal;font-stretch:normal;line-height:125%;letter-spacing:0px;word-spacing:0px;fill:#000000;fill-opacity:1;stroke:none;font-family:DejaVu Serif;-inkscape-font-specification:DejaVu Serif"
       x="208.09142"
       y="652.3418"
       id="text5302"
       sodipodi:linespacing="125%"><tspan
         sodipodi:role="line"
         id="tspan5304"
         x="208.09142"
         y="652.3418" /></text>
    <g
       id="g5484"
       transform="translate(-22,-2)"
       inkscape:export-filename="/home/fake/Tesi-Magistrale/prodotto_bordi.png"
       inkscape:export-xdpi="200.03999"
       inkscape:export-ydpi="200.03999">
      <use
         x="0"
         y="0"
         xlink:href="#rect3240"
         id="use5240"
         transform="translate(126,300)"
         width="744.09448"
         height="1052.3622" />
      <use
         x="0"
         y="0"
         xlink:href="#path3244"
         id="use5244"
         transform="translate(126,300)"
         width="744.09448"
         height="1052.3622" />
      <use
         x="0"
         y="0"
         xlink:href="#path3246"
         id="use5246"
         transform="translate(126,300)"
         width="744.09448"
         height="1052.3622" />
      <use
         x="0"
         y="0"
         xlink:href="#rect3248"
         id="use5248"
         transform="translate(-114,300)"
         width="744.09448"
         height="1052.3622" />
      <use
         x="0"
         y="0"
         xlink:href="#path3252"
         id="use5250"
         transform="translate(-114,300)"
         width="744.09448"
         height="1052.3622" />
      <use
         x="0"
         y="0"
         xlink:href="#path3254"
         id="use5252"
         transform="translate(-114,300)"
         width="744.09448"
         height="1052.3622" />
      <text
         sodipodi:linespacing="125%"
         id="text5294"
         y="563.44836"
         x="330.25897"
         style="font-size:24px;font-style:normal;font-variant:normal;font-weight:normal;font-stretch:normal;text-align:start;line-height:125%;letter-spacing:0px;word-spacing:0px;writing-mode:lr-tb;text-anchor:start;fill:#000000;fill-opacity:1;stroke:none;font-family:DejaVu Sans;-inkscape-font-specification:DejaVu Sans"
         xml:space="preserve"><tspan
           style="font-size:24px;font-style:normal;font-variant:normal;font-weight:normal;font-stretch:normal;text-align:start;line-height:125%;writing-mode:lr-tb;text-anchor:start;font-family:DejaVu Sans;-inkscape-font-specification:DejaVu Sans"
           y="563.44836"
           x="330.25897"
           id="tspan5296"
           sodipodi:role="line">1</tspan></text>
      <text
         sodipodi:linespacing="125%"
         id="text5298"
         y="594.30017"
         x="227.23055"
         style="font-size:24px;font-style:normal;font-variant:normal;font-weight:normal;font-stretch:normal;text-align:start;line-height:125%;letter-spacing:0px;word-spacing:0px;writing-mode:lr-tb;text-anchor:start;fill:#000000;fill-opacity:1;stroke:none;font-family:DejaVu Sans;-inkscape-font-specification:DejaVu Sans"
         xml:space="preserve"><tspan
           y="594.30017"
           x="227.23055"
           id="tspan5300"
           sodipodi:role="line">2</tspan></text>
      <text
         sodipodi:linespacing="125%"
         id="text5306"
         y="673.34259"
         x="227.2234"
         style="font-size:24px;font-style:normal;font-variant:normal;font-weight:normal;font-stretch:normal;text-align:start;line-height:125%;letter-spacing:0px;word-spacing:0px;writing-mode:lr-tb;text-anchor:start;fill:#000000;fill-opacity:1;stroke:none;font-family:DejaVu Sans;-inkscape-font-specification:DejaVu Sans"
         xml:space="preserve"><tspan
           y="673.34259"
           x="227.2234"
           id="tspan5308"
           sodipodi:role="line">3</tspan></text>
      <text
         sodipodi:linespacing="125%"
         id="text5310"
         y="673.55499"
         x="333.28943"
         style="font-size:24px;font-style:normal;font-variant:normal;font-weight:normal;font-stretch:normal;text-align:start;line-height:125%;letter-spacing:0px;word-spacing:0px;writing-mode:lr-tb;text-anchor:start;fill:#000000;fill-opacity:1;stroke:none;font-family:DejaVu Sans;-inkscape-font-specification:DejaVu Sans"
         xml:space="preserve"><tspan
           y="673.55499"
           x="333.28943"
           id="tspan5312"
           sodipodi:role="line">4</tspan></text>
    </g>
    <g
       id="g5500"
       transform="translate(6,-2)"
       inkscape:export-filename="/home/fake/Tesi-Magistrale/prodotto_bordi.png"
       inkscape:export-xdpi="200.03999"
       inkscape:export-ydpi="200.03999">
      <rect
         style="fill:none;stroke:#000000;stroke-width:2;stroke-miterlimit:4;stroke-opacity:1;stroke-dasharray:none;stroke-dashoffset:8.8"
         id="use5258"
         width="212.13203"
         height="212.13203"
         x="457.73105"
         y="501.81372" />
      <path
         style="fill:none;stroke:#000000;stroke-width:3;stroke-linecap:butt;stroke-linejoin:miter;stroke-miterlimit:4;stroke-opacity:1;stroke-dasharray:none;stroke-dashoffset:13.2"
         d="m 506.21836,713.94577 0,-212.13203"
         id="use5260"
         inkscape:connector-curvature="0" />
      <path
         style="fill:none;stroke:#000000;stroke-width:3;stroke-linecap:butt;stroke-linejoin:miter;stroke-miterlimit:4;stroke-opacity:1;stroke-dasharray:none;stroke-dashoffset:13.2"
         d="m 457.73105,609.90006 212.13203,0"
         id="use5262"
         inkscape:connector-curvature="0" />
      <path
         style="fill:none;stroke:#000000;stroke-width:3;stroke-linecap:butt;stroke-linejoin:miter;stroke-miterlimit:4;stroke-opacity:1;stroke-dasharray:none;stroke-dashoffset:13.2;marker-start:none"
         d="m 457.73105,558.38228 113.13707,0 0,155.56349"
         id="use5264"
         inkscape:connector-curvature="0" />
      <rect
         y="501.81372"
         x="457.73105"
         height="212.13203"
         width="212.13203"
         id="use5266"
         style="fill:none;stroke:#000000;stroke-width:2;stroke-miterlimit:4;stroke-opacity:1;stroke-dasharray:none;stroke-dashoffset:8.8" />
      <path
         inkscape:connector-curvature="0"
         id="use5268"
         d="m 457.73105,609.90006 212.13203,0"
         style="fill:none;stroke:#000000;stroke-width:3;stroke-linecap:butt;stroke-linejoin:miter;stroke-miterlimit:4;stroke-opacity:1;stroke-dasharray:none;stroke-dashoffset:13.2" />
      <path
         inkscape:connector-curvature="0"
         id="use5270"
         d="m 457.73105,558.38228 113.13707,0 0,155.56349"
         style="fill:none;stroke:#000000;stroke-width:3;stroke-linecap:butt;stroke-linejoin:miter;stroke-miterlimit:4;stroke-opacity:1;stroke-dasharray:none;stroke-dashoffset:13.2" />
      <path
         style="fill:none;stroke:#000000;stroke-width:3;stroke-linecap:butt;stroke-linejoin:miter;stroke-miterlimit:4;stroke-opacity:1;stroke-dasharray:none;stroke-dashoffset:13.2"
         d="m 457.73105,660.40769 212.13203,0"
         id="use5272"
         inkscape:connector-curvature="0" />
      <path
         style="fill:none;stroke:#000000;stroke-width:3;stroke-linecap:butt;stroke-linejoin:miter;stroke-miterlimit:4;stroke-opacity:1;stroke-dasharray:none;stroke-dashoffset:13.2"
         d="m 614.72099,501.81374 0,212.13203"
         id="use5274"
         inkscape:connector-curvature="0" />
      <text
         sodipodi:linespacing="125%"
         id="text5314"
         y="542.48816"
         x="471.33618"
         style="font-size:24px;font-style:normal;font-variant:normal;font-weight:normal;font-stretch:normal;text-align:start;line-height:125%;letter-spacing:0px;word-spacing:0px;writing-mode:lr-tb;text-anchor:start;fill:#000000;fill-opacity:1;stroke:none;font-family:DejaVu Serif;-inkscape-font-specification:DejaVu Serif"
         xml:space="preserve"><tspan
           y="542.48816"
           x="471.33618"
           id="tspan5316"
           sodipodi:role="line">1</tspan></text>
      <text
         sodipodi:linespacing="125%"
         id="text5318"
         y="542.44757"
         x="559.00421"
         style="font-size:24px;font-style:normal;font-variant:normal;font-weight:normal;font-stretch:normal;text-align:start;line-height:125%;letter-spacing:0px;word-spacing:0px;writing-mode:lr-tb;text-anchor:start;fill:#000000;fill-opacity:1;stroke:none;font-family:DejaVu Serif;-inkscape-font-specification:DejaVu Serif"
         xml:space="preserve"><tspan
           y="542.44757"
           x="559.00421"
           id="tspan5320"
           sodipodi:role="line">2</tspan></text>
      <text
         sodipodi:linespacing="125%"
         id="text5322"
         y="542.23517"
         x="636.69629"
         style="font-size:24px;font-style:normal;font-variant:normal;font-weight:normal;font-stretch:normal;text-align:start;line-height:125%;letter-spacing:0px;word-spacing:0px;writing-mode:lr-tb;text-anchor:start;fill:#000000;fill-opacity:1;stroke:none;font-family:DejaVu Serif;-inkscape-font-specification:DejaVu Serif"
         xml:space="preserve"><tspan
           y="542.23517"
           x="636.69629"
           id="tspan5324"
           sodipodi:role="line">3</tspan></text>
      <text
         sodipodi:linespacing="125%"
         id="text5326"
         y="590.72247"
         x="471.32886"
         style="font-size:24px;font-style:normal;font-variant:normal;font-weight:normal;font-stretch:normal;text-align:start;line-height:125%;letter-spacing:0px;word-spacing:0px;writing-mode:lr-tb;text-anchor:start;fill:#000000;fill-opacity:1;stroke:none;font-family:DejaVu Serif;-inkscape-font-specification:DejaVu Serif"
         xml:space="preserve"><tspan
           y="590.72247"
           x="471.32886"
           id="tspan5328"
           sodipodi:role="line">4</tspan></text>
      <text
         sodipodi:linespacing="125%"
         id="text5330"
         y="590.72247"
         x="530.43292"
         style="font-size:24px;font-style:normal;font-variant:normal;font-weight:normal;font-stretch:normal;text-align:start;line-height:125%;letter-spacing:0px;word-spacing:0px;writing-mode:lr-tb;text-anchor:start;fill:#000000;fill-opacity:1;stroke:none;font-family:DejaVu Serif;-inkscape-font-specification:DejaVu Serif"
         xml:space="preserve"><tspan
           y="590.72247"
           x="530.43292"
           id="tspan5332"
           sodipodi:role="line">5</tspan></text>
      <text
         sodipodi:linespacing="125%"
         id="text5334"
         y="645.20978"
         x="470.97729"
         style="font-size:24px;font-style:normal;font-variant:normal;font-weight:normal;font-stretch:normal;text-align:start;line-height:125%;letter-spacing:0px;word-spacing:0px;writing-mode:lr-tb;text-anchor:start;fill:#000000;fill-opacity:1;stroke:none;font-family:DejaVu Serif;-inkscape-font-specification:DejaVu Serif"
         xml:space="preserve"><tspan
           y="645.20978"
           x="470.97729"
           id="tspan5336"
           sodipodi:role="line">6</tspan></text>
      <text
         sodipodi:linespacing="125%"
         id="text5338"
         y="645.22443"
         x="530.37433"
         style="font-size:24px;font-style:normal;font-variant:normal;font-weight:normal;font-stretch:normal;text-align:start;line-height:125%;letter-spacing:0px;word-spacing:0px;writing-mode:lr-tb;text-anchor:start;fill:#000000;fill-opacity:1;stroke:none;font-family:DejaVu Serif;-inkscape-font-specification:DejaVu Serif"
         xml:space="preserve"><tspan
           y="645.22443"
           x="530.37433"
           id="tspan5340"
           sodipodi:role="line">7</tspan></text>
      <text
         sodipodi:linespacing="125%"
         id="text5342"
         y="645.20978"
         x="585.78516"
         style="font-size:24px;font-style:normal;font-variant:normal;font-weight:normal;font-stretch:normal;text-align:start;line-height:125%;letter-spacing:0px;word-spacing:0px;writing-mode:lr-tb;text-anchor:start;fill:#000000;fill-opacity:1;stroke:none;font-family:DejaVu Serif;-inkscape-font-specification:DejaVu Serif"
         xml:space="preserve"><tspan
           y="645.20978"
           x="585.78516"
           id="tspan5344"
           sodipodi:role="line">8</tspan></text>
      <text
         sodipodi:linespacing="125%"
         id="text5346"
         y="645.20978"
         x="636.7915"
         style="font-size:24px;font-style:normal;font-variant:normal;font-weight:normal;font-stretch:normal;text-align:start;line-height:125%;letter-spacing:0px;word-spacing:0px;writing-mode:lr-tb;text-anchor:start;fill:#000000;fill-opacity:1;stroke:none;font-family:DejaVu Serif;-inkscape-font-specification:DejaVu Serif"
         xml:space="preserve"><tspan
           y="645.20978"
           x="636.7915"
           id="tspan5348"
           sodipodi:role="line">9</tspan></text>
      <text
         sodipodi:linespacing="125%"
         id="text5350"
         y="696.78851"
         x="460.65015"
         style="font-size:24px;font-style:normal;font-variant:normal;font-weight:normal;font-stretch:normal;text-align:start;line-height:125%;letter-spacing:0px;word-spacing:0px;writing-mode:lr-tb;text-anchor:start;fill:#000000;fill-opacity:1;stroke:none;font-family:DejaVu Serif;-inkscape-font-specification:DejaVu Serif"
         xml:space="preserve"><tspan
           y="696.78851"
           x="460.65015"
           id="tspan5352"
           sodipodi:role="line">10</tspan></text>
      <text
         sodipodi:linespacing="125%"
         id="text5354"
         y="697.00092"
         x="521.29962"
         style="font-size:24px;font-style:normal;font-variant:normal;font-weight:normal;font-stretch:normal;text-align:start;line-height:125%;letter-spacing:0px;word-spacing:0px;writing-mode:lr-tb;text-anchor:start;fill:#000000;fill-opacity:1;stroke:none;font-family:DejaVu Serif;-inkscape-font-specification:DejaVu Serif"
         xml:space="preserve"><tspan
           y="697.00092"
           x="521.29962"
           id="tspan5356"
           sodipodi:role="line">11</tspan></text>
      <text
         sodipodi:linespacing="125%"
         id="text5358"
         y="697.00092"
         x="575.86816"
         style="font-size:24px;font-style:normal;font-variant:normal;font-weight:normal;font-stretch:normal;text-align:start;line-height:125%;letter-spacing:0px;word-spacing:0px;writing-mode:lr-tb;text-anchor:start;fill:#000000;fill-opacity:1;stroke:none;font-family:DejaVu Serif;-inkscape-font-specification:DejaVu Serif"
         xml:space="preserve"><tspan
           y="697.00092"
           x="575.86816"
           id="tspan5360"
           sodipodi:role="line">12</tspan></text>
      <text
         sodipodi:linespacing="125%"
         id="text5362"
         y="696.78851"
         x="626.45703"
         style="font-size:24px;font-style:normal;font-variant:normal;font-weight:normal;font-stretch:normal;text-align:start;line-height:125%;letter-spacing:0px;word-spacing:0px;writing-mode:lr-tb;text-anchor:start;fill:#000000;fill-opacity:1;stroke:none;font-family:DejaVu Serif;-inkscape-font-specification:DejaVu Serif"
         xml:space="preserve"><tspan
           id="tspan5366"
           y="696.78851"
           x="626.45703"
           sodipodi:role="line">13</tspan></text>
    </g>
    <text
       xml:space="preserve"
       style="font-size:24px;font-style:normal;font-variant:normal;font-weight:normal;font-stretch:normal;text-align:start;line-height:125%;letter-spacing:0px;word-spacing:0px;writing-mode:lr-tb;text-anchor:start;fill:#000000;fill-opacity:1;stroke:none;font-family:OpenSymbol;-inkscape-font-specification:OpenSymbol"
       x="547.35809"
       y="453.34171"
       id="text5370"
       sodipodi:linespacing="125%"
       inkscape:export-filename="/home/fake/Tesi-Magistrale/prodotto_bordi.png"
       inkscape:export-xdpi="200.03999"
       inkscape:export-ydpi="200.03999"><tspan
         sodipodi:role="line"
         id="tspan5372"
         x="547.35809"
         y="453.34171">sovrapposizione</tspan></text>
    <text
       xml:space="preserve"
       style="font-size:24px;font-style:normal;font-variant:normal;font-weight:normal;font-stretch:normal;text-align:start;line-height:125%;letter-spacing:0px;word-spacing:0px;writing-mode:lr-tb;text-anchor:start;fill:#000000;fill-opacity:1;stroke:none;font-family:OpenSymbol;-inkscape-font-specification:OpenSymbol"
       x="187.71112"
       y="753.78406"
       id="text5374"
       sodipodi:linespacing="125%"
       inkscape:export-filename="/home/fake/Tesi-Magistrale/prodotto_bordi.png"
       inkscape:export-xdpi="200.03999"
       inkscape:export-ydpi="200.03999"><tspan
         sodipodi:role="line"
         id="tspan5376"
         x="187.71112"
         y="753.78406">intersezione</tspan></text>
    <text
       xml:space="preserve"
       style="font-size:24px;font-style:normal;font-variant:normal;font-weight:normal;font-stretch:normal;text-align:start;line-height:125%;letter-spacing:0px;word-spacing:0px;writing-mode:lr-tb;text-anchor:start;fill:#000000;fill-opacity:1;stroke:none;font-family:OpenSymbol;-inkscape-font-specification:OpenSymbol"
       x="518.00604"
       y="751.45789"
       id="text5378"
       sodipodi:linespacing="125%"
       inkscape:export-filename="/home/fake/Tesi-Magistrale/prodotto_bordi.png"
       inkscape:export-xdpi="200.03999"
       inkscape:export-ydpi="200.03999"><tspan
         sodipodi:role="line"
         id="tspan5380"
         x="518.00604"
         y="751.45789">prodotto</tspan></text>
    <path
       style="fill:#000000"
       d="m 144.53178,1216.8062 c 0.3669,-19.1253 0.6239,-21.7283 2.57041,-26.0337 1.65971,-3.6712 3.024,-5.1437 5.86569,-6.331 12.17571,-5.0873 22.16751,8.896 11.15456,15.6105 -2.10506,1.2835 -2.66222,1.9981 -1.55973,2.0005 2.84626,0.01 8.66683,5.858 9.327,9.377 0.75059,4.001 -1.88278,10.9713 -4.87699,12.9091 -3.42779,2.2184 -7.17131,2.7858 -10.56778,1.6018 -3.43956,-1.1991 -6.2611,-4.8842 -3.7396,-4.8842 0.7855,0 1.68721,0.675 2.0038,1.5 0.76524,1.9942 7.00315,1.9704 8.66591,-0.033 1.86299,-2.2447 2.4389,-10.9265 0.96143,-14.4934 -1.56437,-3.7767 -4.24499,-5.2957 -7.92083,-4.4883 -2.01327,0.4421 -2.98057,0.1855 -3.39767,-0.9014 -0.73037,-1.9033 0.66693,-2.8136 3.70726,-2.4152 3.65235,0.4786 5.62227,-1.8465 5.62227,-6.6359 0,-4.8741 -2.22122,-7.5326 -6.29356,-7.5326 -4.7108,0 -5.17703,2.3793 -5.53576,28.25 l -0.32932,23.75 -3.03237,0 -3.03237,0 0.40765,-21.25 z m 263.47072,19.4213 c -2.64991,-2.9281 -1.9627,-5.8749 2.34501,-10.0553 2.2,-2.1351 4,-4.4159 4,-5.0685 0,-0.6525 -1.39222,-4.5308 -3.09383,-8.6182 -3.11194,-7.4752 -6.5857,-11.4293 -10.04103,-11.4293 -2.14254,0 -2.39642,-1.0687 -0.66514,-2.8 4.47164,-4.4716 13.26145,2.2899 17.0496,13.1153 l 2.38488,6.8154 3.29485,-6.4914 c 2.53728,-4.9989 3.20551,-7.4281 2.90633,-10.5653 -0.38293,-4.0154 -0.3414,-4.074 2.88791,-4.074 3.05408,0 3.27643,0.2289 3.27643,3.3717 0,2.3938 -1.51573,5.6568 -5.22582,11.25 -4.95064,7.4635 -5.23128,8.234 -5.32971,14.6326 -0.0865,5.624 -0.49625,7.172 -2.44849,9.25 -2.90153,3.0886 -8.83378,3.4374 -11.34099,0.667 z m 6.77358,-2.7427 c 1.61655,-1.6165 2.21001,-7.4286 0.75852,-7.4286 -0.4471,0 -2.0907,1.3338 -3.65245,2.9639 -2.37577,2.4798 -2.63132,3.2147 -1.56465,4.5 1.60931,1.9391 2.49119,1.9321 4.45858,-0.035 z m 159.75151,-17.1786 c 0.28476,-19.3597 0.53971,-22.1895 2.31992,-25.75 2.64235,-5.2847 7.70067,-8.0601 12.90906,-7.083 9.4483,1.7725 11.9093,12.7226 3.8158,16.9783 l -2.72486,1.4327 2.75295,0.6952 c 1.51412,0.3823 3.87662,2.0306 5.25,3.6627 3.32666,3.9535 3.48447,11.2891 0.32915,15.3005 -4.30093,5.4677 -12.56967,6.6711 -16.44152,2.3927 -2.19864,-2.4294 -0.98869,-3.7303 1.43203,-1.5396 2.52192,2.2823 6.4865,2.0815 8.7724,-0.4444 1.41355,-1.562 1.90499,-3.605 1.90499,-7.9195 0,-7.4644 -2.89629,-11.1661 -8.40705,-10.7448 -2.74164,0.2096 -3.60529,-0.1373 -3.89714,-1.5651 -0.31819,-1.5567 0.18245,-1.7863 3.30771,-1.517 4.34557,0.3743 6.49648,-1.8165 6.49648,-6.6173 0,-4.734 -2.56071,-7.7055 -6.32326,-7.3375 -5.23731,0.5121 -5.64552,2.5709 -5.662,28.5561 l -0.0147,23.25 -3.06992,0 -3.06992,0 0.31992,-21.75 z m 199.31642,19.385 c -2.0119,-3.0704 -0.8467,-6.2423 3.7878,-10.3114 l 3.4769,-3.0527 -2.3151,-6.6202 c -3.7809,-10.8123 -6.9253,-14.6507 -12.0016,-14.6507 -1.2111,0 -1.2475,-0.3425 -0.2124,-2 2.6473,-4.239 10.2997,-1.3953 14.1424,5.2556 1.3488,2.3345 3.0116,6.1537 3.6951,8.4873 1.5359,5.244 2.6137,4.5826 6.445,-3.9548 2.3169,-5.1627 2.6002,-6.6455 1.717,-8.9855 -1.0314,-2.7324 -0.9716,-2.8026 2.3866,-2.8026 2.0612,0 3.6645,0.5732 3.9922,1.4272 0.7412,1.9315 -2.5492,9.1199 -7.5354,16.4624 -3.6289,5.3438 -4.035,6.5081 -3.4803,9.9775 0.7548,4.7201 -1.0429,10.7673 -3.609,12.1406 -3.5246,1.8863 -8.8068,1.1951 -10.4892,-1.3727 z m 7.3035,-1.835 c 1.262,-1.262 1.6932,-7.8 0.5145,-7.8 -1.4118,0 -5.3145,4.4117 -5.3145,6.0077 0,3.0459 2.5822,4.0101 4.8,1.7923 z m 111.2,-17.4842 c 0,-19.7968 0.1779,-22.0519 2.0442,-25.9071 3.8594,-7.9724 13.5497,-9.7018 19.2058,-3.4276 1.5125,1.6778 2.75,4.1339 2.75,5.458 0,2.8916 -4.5103,8.5521 -6.8389,8.5829 -0.9136,0.012 0.2216,0.8767 2.5226,1.9214 5.2708,2.393 7.7508,6.7805 6.9994,12.3828 -0.7241,5.3986 -3.5396,8.908 -8.4107,10.4838 -3.4421,1.1136 -4.5911,1.0837 -7.6609,-0.1989 -1.9863,-0.83 -3.6115,-2.207 -3.6115,-3.06 0,-1.9675 1.3899,-1.9911 3,-0.051 0.6847,0.825 2.5294,1.5 4.0994,1.5 4.3705,0 6.2409,-3.6191 5.7043,-11.0374 -0.5224,-7.2213 -2.3166,-9.4626 -7.575,-9.4626 -2.7921,0 -3.7856,-0.4497 -4.0533,-1.8348 -0.2831,-1.4642 0.2188,-1.7962 2.485,-1.644 4.8036,0.3226 5.2548,0.082 6.1469,-3.2712 0.9591,-3.6057 -0.083,-8.6729 -2.039,-9.9144 -2.1592,-1.3704 -5.3815,-0.9206 -7.1133,0.9931 -1.4439,1.5955 -1.655,4.9117 -1.655,26 l 0,24.1713 -3,0 -3,0 0,-21.6843 z m -397.35745,9.6664 c -11.61648,-3.5231 -13.10911,-20.3306 -2.40169,-27.0438 4.94615,-3.1011 10.3653,-2.1087 14.50914,2.6571 2.76551,3.1806 3.25,3.427 3.25,1.6529 0,-3.8092 1.12618,-5.2484 4.10699,-5.2484 3.57907,0 3.60028,0.6579 0.35259,10.9386 -1.96929,6.2339 -2.2986,8.4937 -1.46481,10.0517 1.09421,2.0445 5.00523,2.8336 5.00523,1.0097 0,-0.55 0.45,-1 1,-1 1.5807,0 1.16348,4.6937 -0.57143,6.4286 -0.86428,0.8643 -1.98928,1.5714 -2.5,1.5714 -1.47648,0 -4.92857,-3.8523 -4.92857,-5.5 0,-1.9128 -1.6122,-1.9529 -2.33927,-0.058 -1.37276,3.5774 -9.02316,6.0553 -14.01818,4.5404 z m 9.77747,-4.2322 c 0.80637,-1.2375 2.0188,-4.3266 2.6943,-6.8648 1.12775,-4.2374 1.0302,-5.0142 -1.19307,-9.5 -2.14517,-4.3281 -2.82617,-4.9192 -5.97236,-5.1837 -5.70737,-0.4797 -7.44889,2.2787 -7.44889,11.7985 0,6.2572 0.37484,8.2043 1.90499,9.8951 2.6474,2.9253 8.06547,2.8468 10.01503,-0.1451 z m 355.91288,4.1527 c -9.4977,-2.7497 -12.3782,-17.0574 -4.9329,-24.5027 6.1282,-6.1282 14.9949,-5.4355 18.526,1.4474 l 1.8286,3.5643 0.7106,-4.2058 c 0.6694,-3.9623 0.9045,-4.2059 4.059,-4.2059 l 3.3484,0 -1.9814,7.15 c -1.0897,3.9324 -2.443,8.0126 -3.0073,9.067 -0.7622,1.4241 -0.6161,2.5429 0.5681,4.3501 1.5826,2.4153 4.548,3.3497 4.548,1.4329 0,-0.55 0.45,-1 1,-1 1.6809,0 1.1324,5.8266 -0.642,6.8196 -2.6682,1.4932 -5.2263,0.1866 -6.493,-3.3164 l -1.1848,-3.2765 -2.4044,2.8574 c -1.9553,2.3237 -8.0722,5.1931 -10.2758,4.8202 -0.275,-0.046 -1.9252,-0.4972 -3.6671,-1.0016 z m 11.4817,-6.9027 c 2.7453,-5.3375 2.5184,-11.7376 -0.5626,-15.8642 -1.5373,-2.0591 -2.8193,-2.6358 -5.8599,-2.6358 -3.4377,0 -4.1028,0.4087 -5.697,3.5 -2.2438,4.3513 -1.8912,13.5257 0.6701,17.4347 1.4628,2.2324 2.3703,2.6278 5.4451,2.3721 3.2464,-0.2699 3.9678,-0.8474 6.0043,-4.8068 z m -1063.3146,5.8971 c -3.73491,-1.146 -5.6503,-2.6289 -7.94052,-6.1476 -2.31292,-3.5536 -2.36015,-11.5948 -0.0905,-15.3998 5.08466,-8.5243 15.92791,-9.6784 20.48752,-2.1807 1.97672,3.2504 2.50726,2.9774 3.2431,-1.669 0.23038,-1.4546 1.22655,-2.0873 3.65348,-2.3204 3.29556,-0.3165 3.32778,-0.2797 2.61133,2.9823 -0.39897,1.8165 -1.60319,5.9766 -2.67605,9.2447 -1.50145,4.5736 -1.70662,6.4775 -0.89096,8.2677 1.09126,2.395 3.51094,3.092 4.60256,1.3257 1.04512,-1.691 2.5,-1.109 2.5,1 0,2.668 -3.5454,6.1117 -5.5143,5.3562 -0.85782,-0.3292 -2.21032,-1.8567 -3.00555,-3.3945 l -1.44589,-2.7961 -3.12288,2.9172 c -1.71759,1.6045 -3.9385,2.9172 -4.93535,2.9172 -0.99685,0 -2.41176,0.184 -3.14424,0.4088 -0.73249,0.2248 -2.68179,0 -4.33179,-0.5117 z m 8.90364,-3.4436 c 2.59602,-2.596 4.5901,-10.8923 3.53581,-14.7106 -2.13803,-7.7433 -9.06815,-10.1676 -13.19418,-4.6156 -3.45349,4.647 -2.4044,17.3973 1.65443,20.1074 1.90046,1.269 6.39218,0.8306 8.00394,-0.7812 z m 710.64936,3.7965 c 0.0291,-0.4125 4.02296,-8.6199 8.87515,-18.2388 l 8.82216,-17.4889 9.13011,18.2389 c 7.96304,15.9074 8.87319,18.2388 7.12014,18.2388 -1.58179,0 -3.44327,-2.8759 -8.73811,-13.5 -3.70047,-7.425 -6.96857,-13.5 -7.26245,-13.5 -0.29388,0 -3.56198,6.075 -7.26245,13.5 -5.28605,10.6065 -7.15781,13.5 -8.73284,13.5 -1.10259,0 -1.98086,-0.3375 -1.95171,-0.75 z m -88.053,-11.25 c 0,-1.9279 0.66667,-2 18.5,-2 17.83333,0 18.5,0.072 18.5,2 0,1.928 -0.66667,2 -18.5,2 -17.83333,0 -18.5,-0.072 -18.5,-2 z m 367,0 c 0,-1.9259 0.6667,-2 18,-2 17.3333,0 18,0.074 18,2 0,1.926 -0.6667,2 -18,2 -17.3333,0 -18,-0.074 -18,-2 z m -367,-11.5 c 0,-1.2792 2.72222,-1.5 18.5,-1.5 15.77778,0 18.5,0.2208 18.5,1.5 0,1.2793 -2.72222,1.5 -18.5,1.5 -15.77778,0 -18.5,-0.2207 -18.5,-1.5 z m 367,0 c 0,-1.2777 2.6667,-1.5 18,-1.5 15.3333,0 18,0.2223 18,1.5 0,1.2778 -2.6667,1.5 -18,1.5 -15.3333,0 -18,-0.2222 -18,-1.5 z m -1127,-183.5 0,-129.99995 136.5,0 136.499998,0 0,129.99995 0,130 -136.499998,0 -136.5,0 0,-130 z m 139,64 0,-61 -18,0 -18,0 0,42 0,42 -39,0 -39,0 0,-42 0,-42 -10,0 -10,0 0,61 0,61 67,0 67,0 0,-61 z m 127.999998,0 0,-61 -61.499998,0 -61.5,0 0,61 0,61 61.5,0 61.499998,0 0,-61 z m -168.999998,-21.5 0,-39.5 -34,0 -34,0 0,39.5 0,39.5 34,0 34,0 0,-39.5 z m -73,-87.99995 0,-43.5 39,0 39,0 0,43.5 0,43.49995 18,0 18,0 0,-61.49995 0,-61.5 -67,0 -67,0 0,61.5 0,61.49995 10,0 10,0 0,-43.49995 z m 73,2.5 0,-41 -34,0 -34,0 0,41 0,40.99995 34,0 34,0 0,-40.99995 z m 168.999998,-20.5 0,-61.5 -61.499998,0 -61.5,0 0,61.5 0,61.49995 61.5,0 61.499998,0 0,-61.49995 z m 74,63.49995 0,-129.99995 137.000002,0 137,0 0,129.99995 0,130 -137,0 -137.000002,0 0,-130 z m 140.000002,87 0,-38 -42,0 -42.000002,0 0,-22 0,-22 -25.5,0 -25.5,0 0,60 0,60 67.5,0 67.500002,0 0,-38 z m 128,-22 0,-60 -25.5,0 -25.5,0 0,22 0,22 -35.5,0 -35.5,0 0,38 0,38 61,0 61,0 0,-60 z m -128,-41 0,-19 -39.5,0 -39.500002,0 0,19 0,19 39.500002,0 39.5,0 0,-19 z m 72,0 0,-19 -33,0 -33,0 0,19 0,19 33,0 33,0 0,-19 z m -156.000002,-48.99995 0,-24 42.000002,0 42,0 0,-37 0,-37 -67.500002,0 -67.5,0 0,61 0,60.99995 25.5,0 25.5,0 0,-23.99995 z m 84.000002,2.5 0,-21.5 -39.5,0 -39.500002,0 0,21.5 0,21.49995 39.500002,0 39.5,0 0,-21.49995 z m 72,0 0,-21.5 -33,0 -33,0 0,21.5 0,21.49995 33,0 33,0 0,-21.49995 z m 56,-39.5 0,-61 -61,0 -61,0 0,37 0,37 35.5,0 35.5,0 0,24 0,23.99995 25.5,0 25.5,0 0,-60.99995 z m 74,61.99995 0,-129.99995 137,0 137.00003,0 0,129.99995 0,130 -137.00003,0 -137,0 0,-130 z m 140,65 0,-60 -67.5,0 -67.5,0 0,60 0,60 67.5,0 67.5,0 0,-60 z m 128.00003,0 0,-60 -61.50003,0 -61.5,0 0,60 0,60 61.5,0 61.50003,0 0,-60 z m -128.00003,-126.99995 0,-61 -67.5,0 -67.5,0 0,61 0,60.99995 67.5,0 67.5,0 0,-60.99995 z m 128.00003,0 0,-61 -61.50003,0 -61.5,0 0,61 0,60.99995 61.5,0 61.50003,0 0,-60.99995 z m 73.99997,61.99995 0,-129.99995 136.5,0 136.5,0 0,129.99995 0,130 -136.5,0 -136.5,0 0,-130 z m 140,87 0,-38 -18.5,0 -18.5,0 0,20 0,20 -38.5,0 -38.5,0 0,-42 0,-42 -10,0 -10,0 0,60 0,60 67,0 67,0 0,-38 z m 128,-22 0,-60 -24.9805,0 -24.9805,0 -0.2695,21.75 -0.2695,21.75 -36.25,0.2625 -36.25,0.2625 0,37.9875 0,37.9875 61.5,0 61.5,0 0,-60 z m -169,1.5 0,-17.5 -21.5,0 -21.5,0 0,-22 0,-22 -13,0 -13,0 0,39.5 0,39.5 34.5,0 34.5,0 0,-17.5 z m 0,-42.5 0,-19 -19,0 -19,0 0,19 0,19 19,0 19,0 0,-19 z m 41,0 0,-19 -18.5,0 -18.5,0 0,19 0,19 18.5,0 18.5,0 0,-19 z m 72,0 0,-19 -33.5,0 -33.5,0 0,19 0,19 33.5,0 33.5,0 0,-19 z m -186,-67.99995 0,-43 38.5,0 38.5,0 0,19 0,19 18.5,0 18.5,0 0,-37 0,-37 -67,0 -67,0 0,61 0,60.99995 10,0 10,0 0,-42.99995 z m 30,19 0,-24 21.5,0 21.5,0 0,-17 0,-17 -34.5,0 -34.5,0 0,41 0,40.99995 13,0 13,0 0,-23.99995 z m 43,2.5 0,-21.5 -19,0 -19,0 0,21.5 0,21.49995 19,0 19,0 0,-21.49995 z m 41,0 0,-21.5 -18.5,0 -18.5,0 0,21.5 0,21.49995 18.5,0 18.5,0 0,-21.49995 z m 72,0 0,-21.5 -33.5,0 -33.5,0 0,21.5 0,21.49995 33.5,0 33.5,0 0,-21.49995 z m 56,-39.5 0,-61 -61.5,0 -61.5,0 0,37 0,37 36.5,0 36.5,0 0,24 0,23.99995 25,0 25,0 0,-60.99995 z"
       id="path11564"
       inkscape:connector-curvature="0"
       inkscape:export-filename="/home/fake/Tesi-Magistrale/immagini/semplice.png"
       inkscape:export-xdpi="200"
       inkscape:export-ydpi="200" />
    <rect
       style="fill:#ffffff;stroke:none"
       id="rect11670"
       width="327.41879"
       height="98.620125"
       x="679.13745"
       y="1167.1393"
       inkscape:export-filename="/home/fake/Tesi-Magistrale/immagini/semplice.png"
       inkscape:export-xdpi="200"
       inkscape:export-ydpi="200" />
    <text
       xml:space="preserve"
       style="font-size:70.21879578px;font-style:normal;font-variant:normal;font-weight:normal;font-stretch:normal;line-height:125%;letter-spacing:0px;word-spacing:0px;fill:#000000;fill-opacity:1;stroke:none;font-family:OpenSymbol;-inkscape-font-specification:OpenSymbol"
       x="726.41113"
       y="1226.8224"
       id="text12619"
       sodipodi:linespacing="125%"
       inkscape:export-filename="/home/fake/Tesi-Magistrale/immagini/semplice.png"
       inkscape:export-xdpi="200"
       inkscape:export-ydpi="200"><tspan
         y="1226.8224"
         x="726.41113"
         id="tspan12621"
         sodipodi:role="line">γ=α∨β</tspan></text>
    <rect
       style="fill:#ffffff;fill-opacity:1;stroke:none"
       id="rect12627"
       width="248.52271"
       height="85.470772"
       x="372.75754"
       y="1177.6588"
       inkscape:export-filename="/home/fake/Tesi-Magistrale/immagini/semplice.png"
       inkscape:export-xdpi="200"
       inkscape:export-ydpi="200" />
    <text
       xml:space="preserve"
       style="font-size:70.21879578px;font-style:normal;font-variant:normal;font-weight:normal;font-stretch:normal;line-height:125%;letter-spacing:0px;word-spacing:0px;fill:#000000;fill-opacity:1;stroke:none;font-family:OpenSymbol;-inkscape-font-specification:OpenSymbol"
       x="387.15787"
       y="1226.8224"
       id="text12623"
       sodipodi:linespacing="125%"
       inkscape:export-filename="/home/fake/Tesi-Magistrale/immagini/semplice.png"
       inkscape:export-xdpi="200"
       inkscape:export-ydpi="200"><tspan
         y="1226.8224"
         x="387.15787"
         id="tspan12625"
         sodipodi:role="line">γ=α∧β</tspan></text>
  </g>
</svg>
