<?xml version="1.0" encoding="UTF-8" standalone="no"?>
<!-- Created with Inkscape (http://www.inkscape.org/) -->

<svg
   xmlns:dc="http://purl.org/dc/elements/1.1/"
   xmlns:cc="http://creativecommons.org/ns#"
   xmlns:rdf="http://www.w3.org/1999/02/22-rdf-syntax-ns#"
   xmlns:svg="http://www.w3.org/2000/svg"
   xmlns="http://www.w3.org/2000/svg"
   xmlns:sodipodi="http://sodipodi.sourceforge.net/DTD/sodipodi-0.dtd"
   xmlns:inkscape="http://www.inkscape.org/namespaces/inkscape"
   width="744.09448819"
   height="1052.3622047"
   id="svg2"
   version="1.1"
   inkscape:version="0.48.2 r9819"
   sodipodi:docname="spectral_cut.svg">
  <defs
     id="defs4" />
  <sodipodi:namedview
     id="base"
     pagecolor="#ffffff"
     bordercolor="#666666"
     borderopacity="1.0"
     inkscape:pageopacity="0.0"
     inkscape:pageshadow="2"
     inkscape:zoom="0.35"
     inkscape:cx="375"
     inkscape:cy="520"
     inkscape:document-units="px"
     inkscape:current-layer="layer1"
     showgrid="false"
     inkscape:window-width="1280"
     inkscape:window-height="750"
     inkscape:window-x="0"
     inkscape:window-y="24"
     inkscape:window-maximized="1" />
  <metadata
     id="metadata7">
    <rdf:RDF>
      <cc:Work
         rdf:about="">
        <dc:format>image/svg+xml</dc:format>
        <dc:type
           rdf:resource="http://purl.org/dc/dcmitype/StillImage" />
        <dc:title></dc:title>
      </cc:Work>
    </rdf:RDF>
  </metadata>
  <g
     inkscape:label="Layer 1"
     inkscape:groupmode="layer"
     id="layer1">
    <path
       style="fill:#000000"
       d="m -39.5,863.86218 c 0,-9.11111 0.25758,-11 1.5,-11 1.24242,0 1.5,1.88889 1.5,11 0,9.11111 -0.25758,11 -1.5,11 -1.24242,0 -1.5,-1.88889 -1.5,-11 z m -307.49692,-23.29692 c -6.77726,-6.77726 -7.35119,-20.82108 -1.16153,-28.42203 l 2.26468,-2.78105 -21.59872,-101.5 -21.59872,-101.5 -2.95439,-0.33008 c -3.59691,-0.40186 -7.24247,-3.56761 -9.08328,-7.8878 -1.62853,-3.822 -1.80961,-14.99135 -0.3075,-18.96702 1.66168,-4.398 5.93824,-8.3151 9.07816,-8.3151 2.32778,0 2.86673,-0.51648 3.39143,-3.25 24.84945,-129.4571 26.06697,-136.25353 24.52122,-136.88197 -9.03083,-3.67158 -10.79799,-23.97062 -2.78441,-31.9842 5.09557,-5.09557 12.74696,-3.08547 15.73754,4.13442 0.70305,1.69732 1.77646,2.88978 2.38536,2.64991 0.60889,-0.23987 25.06958,-12.02751 54.35708,-26.19474 l 53.25,-25.75861 0.006,-3.60741 c 0.009,-5.70046 1.94237,-11.2092 5.01177,-14.2786 6.00433,-6.00432 14.60158,-2.19915 17.05623,7.54915 1.14859,4.56143 1.21803,4.6221 5.29513,4.62577 6.08803,0.005 299.8776,-13.88601 308.38129,-14.58145 6.57525,-0.53773 7.25204,-0.79437 7.27196,-2.75759 0.0341,-3.3604 3.50861,-10.22247 6.09233,-12.03218 1.2819,-0.89787 3.85005,-1.6325 5.70701,-1.6325 4.18398,0 8.81457,4.5421 9.75812,9.57163 0.35374,1.88561 0.89568,3.42837 1.20432,3.42837 0.81721,0 114.39196,-24.0079 116.46626,-24.61912 1.30044,-0.38319 1.75564,-1.59012 1.77196,-4.69827 0.0268,-5.11166 2.94757,-11.84743 6.09233,-14.05011 12.62269,-8.84128 23.23967,17.28593 12.30495,30.28111 l -2.5039,2.97571 12.04233,69.0745 c 6.62286,37.99097 12.04191,69.29087 12.04191,69.55534 0,0.26446 0.69735,0.48084 1.54966,0.48084 12.57162,0 15.96557,28.04334 4.23182,34.96642 l -3.31037,1.95317 -4.31638,116.20157 -4.31639,116.20158 2.96497,2.32043 c 7.81818,6.11865 8.41583,23.94045 1.03982,31.00712 -5.48232,5.2524 -13.14037,2.70061 -16.05095,-5.34845 -0.66712,-1.84489 -1.68077,-3.1792 -2.25256,-2.96512 -0.57179,0.21407 -24.99806,9.11339 -54.2806,19.77625 l -53.24098,19.38703 -0.0146,3 c -0.0644,13.2421 -10.49041,21.16687 -17.98609,13.6712 -2.59539,-2.59539 -4.99813,-8.44788 -5.01177,-12.20746 -0.005,-1.33673 -10.23405,-2.02391 -78.75558,-5.29069 -43.3125,-2.06494 -81.1125,-4.01297 -84,-4.32896 -5.14147,-0.56266 -5.25,-0.52048 -5.25,2.04069 0,1.65797 -0.54904,2.61522 -1.5,2.61522 -0.93333,0 -1.5,-0.94444 -1.5,-2.5 0,-1.70963 -0.55326,-2.50386 -1.75,-2.51222 -0.9625,-0.007 -28.525,-1.35311 -61.25,-2.99197 -32.725,-1.63887 -60.9625,-2.98337 -62.75,-2.98779 -2.8157,-0.007 -3.25,0.33138 -3.25,2.53182 0,1.39691 -0.92651,4.35595 -2.05891,6.57564 -4.53141,8.88229 -14.0434,8.37301 -18.23287,-0.97619 L -191,784.07362 l -62.5,18.38392 c -34.375,10.11116 -65.5375,19.30154 -69.25,20.42307 l -6.75,2.03914 -0.022,3.72121 c -0.0278,4.70592 -3.05713,11.46278 -6.09233,13.58872 -3.75058,2.62701 -7.66335,2.05486 -11.38263,-1.66442 z m 87.02777,-40.5945 c 37.17192,-10.94027 67.78366,-20.08976 68.02608,-20.33218 0.24243,-0.24243 0.8385,-2.5697 1.32461,-5.17172 l 0.88384,-4.73095 -30.56206,-34.93686 c -16.80913,-19.21528 -30.81884,-34.91306 -31.13269,-34.88396 -0.31385,0.0291 -14.52063,20.38345 -31.57063,45.23189 -17.05,24.84843 -34.87639,50.81256 -39.61419,57.69806 -7.13829,10.37414 -8.47165,12.90443 -7.78223,14.76812 0.45759,1.23696 1.28422,2.24902 1.83697,2.24902 0.55274,0 31.41838,-8.95114 68.5903,-19.89142 z m -33.10972,-46.62748 39.23856,-56.95803 -14.07985,-16.07925 c -9.91578,-11.32386 -14.31635,-15.68953 -14.87954,-14.76151 -1.21851,2.00784 -6.54446,4.46266 -8.94166,4.12137 -2.00166,-0.28497 -3.38175,4.00832 -22.40403,69.69632 -11.14903,38.5 -20.28978,70.375 -20.31279,70.83333 -0.023,0.45834 0.44926,0.66964 1.04947,0.46957 0.60021,-0.20007 18.74864,-25.99488 40.32984,-57.3218 z m -24.01589,-15.54529 20.27096,-70.26324 -2.39403,-4.2834 c -1.63118,-2.9185 -2.48955,-6.23922 -2.69377,-10.42124 l -0.29972,-6.13784 -23.77241,-14.90332 -23.7724,-14.90332 0.61489,8.73827 c 0.33819,4.80606 2.48341,47.66328 4.76714,95.23828 3.81034,79.37728 4.58965,89.61778 6.66228,87.54515 0.19036,-0.19035 9.46804,-31.96456 20.61706,-70.60934 z m -30.88563,-27.75652 c -2.48579,-50.66315 -4.51961,-92.7515 -4.51961,-93.52967 0,-0.77816 -6.525,-5.49431 -14.5,-10.48033 -7.975,-4.98601 -14.5,-8.70164 -14.5,-8.25693 0,0.4447 -1.02626,2.33384 -2.28057,4.19809 l -2.28057,3.38955 20.97338,98.72385 c 11.53536,54.29812 21.12045,98.5768 21.30019,98.39706 0.17973,-0.17974 -1.70703,-41.77847 -4.19282,-92.44162 z m 480.97523,75.47642 1.68099,-5.34428 -18.20038,-40.06449 -18.20037,-40.06449 -2.77741,0.96821 c -4.46178,1.55538 -9.27417,-1.02465 -11.85488,-6.3557 -3.92223,-8.10225 -2.18911,-22.20835 3.28528,-26.73923 0.95976,-0.79435 3.55045,-1.69435 5.75708,-2 l 4.01207,-0.55573 14.78741,-46.70648 14.78742,-46.70648 -2.38603,-4.713 C 122.57371,564.64407 121.5,561.24949 121.5,559.6927 c 0,-1.59729 -0.54461,-2.8309 -1.25,-2.83138 -0.6875,-4.8e-4 -36.05683,-4.05048 -78.59852,-9 -42.54168,-4.94953 -77.52918,-8.99914 -77.75,-8.99914 -0.22081,0 -0.40148,1.125 -0.40148,2.5 0,3.4697 -2.7807,3.25133 -3.18358,-0.25 l -0.31642,-2.75 -44.5,-5.15674 c -24.475,-2.83621 -46.3842,-5.41122 -48.68711,-5.72225 l -4.18711,-0.56551 -1.53161,5.26855 c -1.46038,5.02354 -4.33218,8.76483 -7.60089,9.9022 -1.21019,0.42109 -4.22879,22.00448 -15.33777,109.66703 l -13.83104,109.14277 3.2859,3.73197 c 1.80725,2.05259 3.62183,3.62778 4.03242,3.50043 0.41058,-0.12735 66.04324,-44.78985 145.85034,-99.25 79.80711,-54.46015 145.30701,-99.01845 145.55535,-99.01845 0.24834,0 0.44548,1.0125 0.4381,2.25 -0.0111,1.8639 -25.05944,19.32416 -145.96963,101.75 -80.27592,54.725 -145.96988,100.07662 -145.98658,100.78138 -0.0167,0.70477 0.53213,1.46139 1.21963,1.6814 0.6875,0.22 26,1.56025 56.25,2.97832 30.25,1.41808 58.7125,2.85218 63.25,3.18689 l 8.25,0.60856 0,-6.11827 c 0,-4.7718 0.33011,-6.11828 1.5,-6.11828 1.16667,0 1.5,1.33333 1.5,6 0,5.02106 0.28552,6.01138 1.75,6.06972 0.9625,0.0384 35.05,1.7828 75.75,3.87656 40.7,2.09376 77.67062,3.86238 82.15693,3.93027 l 8.15693,0.12345 1.68098,-5.34429 z M -39.5,739.86218 c 0,-9.11111 0.25758,-11 1.5,-11 1.24242,0 1.5,1.88889 1.5,11 0,9.11111 -0.25758,11 -1.5,11 -1.24242,0 -1.5,-1.88889 -1.5,-11 z m 0,-41.5 c 0,-8.66667 0.2619,-10.5 1.5,-10.5 1.2381,0 1.5,1.83333 1.5,10.5 0,8.66667 -0.2619,10.5 -1.5,10.5 -1.2381,0 -1.5,-1.83333 -1.5,-10.5 z m 0,-41.5 c 0,-9.11111 0.25758,-11 1.5,-11 1.24242,0 1.5,1.88889 1.5,11 0,9.11111 -0.25758,11 -1.5,11 -1.24242,0 -1.5,-1.88889 -1.5,-11 z m 0,-41 c 0,-9.11111 0.25758,-11 1.5,-11 1.24242,0 1.5,1.88889 1.5,11 0,9.11111 -0.25758,11 -1.5,11 -1.24242,0 -1.5,-1.88889 -1.5,-11 z m 0,-41.5 c 0,-8.66667 0.2619,-10.5 1.5,-10.5 1.2381,0 1.5,1.83333 1.5,10.5 0,8.66667 -0.2619,10.5 -1.5,10.5 -1.2381,0 -1.5,-1.83333 -1.5,-10.5 z m 248.00424,193.85101 c 48.06604,-17.49117 53.99314,-19.87972 53.97191,-21.75 -0.021,-1.84823 -4.42245,-3.70923 -36.58318,-15.46783 -25.11291,-9.18179 -36.88222,-13.04393 -37.59064,-12.33551 -0.56722,0.56722 -9.00138,15.12397 -18.74257,32.34832 -16.28558,28.79612 -17.62715,31.53987 -16.66628,34.08551 0.57475,1.52268 1.17325,2.7685 1.33,2.7685 0.15675,0 24.58309,-8.84205 54.28076,-19.64899 z M 167.9917,746.54757 c 9.2285,-16.39803 16.38066,-30.15791 15.89369,-30.5775 -1.51611,-1.30635 -26.63712,-10.18949 -27.20614,-9.62047 -0.29633,0.29632 -2.64263,16.39538 -5.214,35.77568 -4.58517,34.55813 -4.76254,39.18514 -1.35894,35.45074 0.60847,-0.66761 8.6569,-14.63041 17.88539,-31.02845 z m -27.84547,29.79414 c 0.77878,-2.02947 -2.52898,-76.76778 -3.43663,-77.65024 -1.40887,-1.36975 -31.37373,-11.84589 -32.28025,-11.28562 -0.51114,0.3159 -0.93212,1.33531 -0.93551,2.26535 -0.003,0.93004 -0.64982,2.92484 -1.4365,4.4329 -1.37578,2.63731 -0.81834,4.08697 14.61223,38 8.82342,19.39194 17.09508,37.62058 18.38148,40.50808 2.36125,5.30019 4.02511,6.51809 5.09518,3.72953 z m 8.30979,-34.97953 c 2.20986,-17.05 4.24774,-32.35 4.52862,-34 0.49205,-2.89051 0.28551,-3.08193 -5.65891,-5.24473 -3.39328,-1.23461 -6.32972,-2.08461 -6.52542,-1.88891 -0.1957,0.1957 0.33076,15.60583 1.16991,34.24473 0.83916,18.6389 1.57885,35.46391 1.64376,37.38891 0.17328,5.13871 0.44355,3.43628 4.84204,-30.5 z M -186.5,763.33748 c 0,-1.15906 -22.3898,-72.45613 -31.6381,-100.74693 l -2.54055,-7.77163 -13.93331,20.24146 c -7.66332,11.1328 -13.71937,20.79896 -13.45789,21.48036 0.93652,2.44055 59.97259,69.19056 60.7627,68.70225 0.44393,-0.27436 0.80715,-1.13184 0.80715,-1.90551 z m 8.00469,-3.7253 c 0.003,-0.6875 6.08083,-49.13425 13.50723,-107.65944 7.42639,-58.52519 13.38678,-106.51618 13.24531,-106.64665 -0.14148,-0.13046 -10.83223,14.00378 -23.75723,31.40944 l -23.5,31.64665 0.29974,9 c 0.25917,7.78165 -0.0116,9.60917 -2,13.5 -1.45564,2.84832 -3.5341,5.1163 -5.66274,6.17912 -2.01072,1.00394 -5.06696,4.22079 -7.60058,8 l -4.23758,6.32088 16.60058,52.21209 c 9.13032,28.71665 16.71505,51.88575 16.85495,51.48688 0.13991,-0.39886 -3.54541,-27.2693 -8.18959,-59.71209 -7.67385,-53.60714 -8.59272,-62.84815 -5.99047,-60.2459 0.43183,0.43183 18.42569,122.95911 18.42569,125.4678 0,0.16017 0.45,0.29122 1,0.29122 0.55,0 1.00211,-0.5625 1.00469,-1.25 z m 442.83662,-22.72463 c 0.96256,-2.76119 -0.21257,-5.32639 -16.37727,-35.75 -9.57783,-18.02645 -17.76295,-32.76148 -18.18914,-32.7445 -0.4262,0.017 -2.20864,0.38391 -3.961,0.81542 -2.18388,0.53776 -4.06362,0.32477 -5.97581,-0.67713 l -2.78972,-1.46169 -13.13964,23.14627 c -7.2268,12.73044 -12.86268,23.28549 -12.52418,23.45566 2.00993,1.01041 69.82208,26.01456 70.76762,26.09391 0.6337,0.0532 1.61881,-1.24189 2.18914,-2.87794 z m -8.87121,-70.66617 c -7.22417,-34.02151 -13.22038,-61.94282 -13.32492,-62.04735 -0.10454,-0.10454 -2.75177,7.20842 -5.88274,16.25101 l -5.69267,16.44107 1.92964,3.27049 c 2.78131,4.71397 3.4779,13.13198 1.59091,19.22558 l -1.54833,5 11.13413,21 c 6.12377,11.55 14.10127,26.59586 17.72778,33.43524 3.62651,6.83938 6.73032,11.72559 6.89736,10.85824 0.16703,-0.86735 -5.60699,-29.41277 -12.83116,-63.43428 z M 273.5,726.03862 c 0,-1.55295 1.78321,-50.71545 3.96269,-109.25 4.7133,-126.58545 4.59129,-122.24508 3.44675,-122.61052 -0.68288,-0.21804 -30.15431,82.76631 -35.79401,100.78718 -0.68588,2.19164 2.23409,17.54609 13,68.35966 7.63652,36.04324 14.22207,65.53407 14.63457,65.5352 0.4125,10e-4 0.75,-1.26856 0.75,-2.82152 z m -72.35392,-38.17644 c 10.44846,-18.39443 13.22283,-24.0427 12.76995,-25.99795 -0.31823,-1.37387 -0.74744,-2.66679 -0.95379,-2.87315 -0.53399,-0.53399 -50.82972,10.8556 -51.59914,11.68476 -0.79012,0.85145 -4.42289,29.97529 -3.8086,30.53351 1.11925,1.01709 27.60279,10.51528 28.84427,10.34485 0.76933,-0.10561 7.40561,-10.76702 14.74731,-23.69202 z m -45.77579,1.75 c 0.69575,-5.6375 1.51576,-12.12627 1.82224,-14.41949 l 0.55725,-4.16949 -8.37489,1.89382 c -4.60619,1.0416 -8.71239,1.90537 -9.12489,1.91949 -0.90703,0.031 -0.86165,9.81381 0.0741,15.97756 0.64973,4.27961 0.88871,4.5372 6.17588,6.65653 3.025,1.21255 5.97369,2.2467 6.55264,2.29811 0.60099,0.0534 1.59541,-4.30445 2.31765,-10.15653 z m -18.50329,-4.5 c -0.35456,-4.8125 -0.69891,-8.82922 -0.76522,-8.92606 -0.0663,-0.0968 -6.52139,1.22311 -14.34464,2.9332 -7.82324,1.71009 -13.97819,3.36432 -13.67765,3.67606 0.57758,0.59912 27.38335,10.8794 28.67634,10.99767 0.41571,0.038 0.46574,-3.86837 0.11117,-8.68087 z m -372.9603,-14.46234 c 7.47632,-10.84179 13.5933,-20.31214 13.5933,-21.04523 0,-0.73309 -1.2375,-4.97931 -2.75,-9.43604 l -2.75,-8.10316 -24.89395,8.67136 c -26.71444,9.3055 -26.09076,8.9231 -26.73424,16.39195 -0.28664,3.32694 0.67668,4.7111 13.65715,19.62348 10.78722,12.3927 14.22941,15.76707 15.12499,14.82702 0.6377,-0.66937 7.27644,-10.08759 14.75275,-20.92938 z M 122,674.77099 c 7.7,-1.72568 14.08148,-3.20511 14.18108,-3.28762 0.0996,-0.0825 -0.67777,-19.49353 -1.72748,-43.1356 -1.0497,-23.64207 -1.91869,-45.57309 -1.93107,-48.73559 -0.0188,-4.80717 -0.30948,-5.74736 -1.77253,-5.73392 -1.42954,0.0131 -4.4717,8.6727 -16.61318,47.28972 l -14.86318,47.27364 2.10944,3.46028 c 1.16019,1.90315 2.11113,4.30026 2.11318,5.32691 0.003,1.44437 0.51272,1.73239 2.25374,1.27321 1.2375,-0.32639 8.55,-2.00535 16.25,-3.73103 z m 28.5,-6.48629 c 4.125,-0.91275 7.5822,-1.72592 7.68266,-1.80703 0.10047,-0.0811 2.29718,-15.9903 4.88158,-35.35374 l 4.69892,-35.20625 -12.72514,-13.49573 -12.72513,-13.49574 -3.40642,2.71799 c -4.08582,3.26008 -3.91252,-1.07251 -1.90864,47.71798 2.01771,49.1273 2.2373,51.71109 4.34116,51.08018 0.91355,-0.27396 5.03601,-1.2449 9.16101,-2.15766 z m 37.70557,-8.52852 24.20557,-5.394 0.29443,-5.5 0.29443,-5.5 -21,-22.11499 c -11.55,-12.16325 -21.12551,-22.01274 -21.2789,-21.88776 -0.1534,0.12497 -2.06355,13.67672 -4.24477,30.11499 -2.18123,16.43827 -4.22493,31.41057 -4.54155,33.27179 -0.434,2.55111 -0.25069,3.26341 0.74476,2.89399 0.72625,-0.26951 12.21297,-2.91733 25.52603,-5.88402 z m -404.28895,-18.05693 c 2.55155,-3.6045 2.72386,-4.26118 1.37658,-5.24633 -0.84702,-0.61936 -2.38697,-2.51878 -3.42212,-4.22094 -1.59968,-2.63046 -2.23455,-2.96445 -4.2311,-2.22588 -1.32295,0.48939 -2.13174,1.43516 -1.8516,2.1652 0.27357,0.71293 1.27991,4.08503 2.23629,7.49356 0.95638,3.40852 2.01708,6.18771 2.35711,6.17597 0.34002,-0.0117 1.9307,-1.87545 3.53484,-4.14158 z m -38.21273,-4.94181 c 12.81286,-4.45761 23.66826,-8.45226 24.1231,-8.877 1.42891,-1.33432 -1.52356,-9.14559 -3.76399,-9.95831 -3.25492,-1.18072 -48.66116,-9.29512 -49.16939,-8.7869 -0.25099,0.25099 -1.18795,5.93129 -2.08214,12.62289 l -1.6258,12.16654 2.59355,2.71876 c 1.42645,1.49532 3.06103,3.95626 3.63241,5.46876 0.57138,1.5125 1.47926,2.75 2.01751,2.75 0.53826,0 11.46189,-3.64713 24.27475,-8.10474 z m -43.05464,-1.89526 c -0.12946,-0.825 -2.17863,-8.025 -4.55369,-16 l -4.3183,-14.5 -21.88863,-4.06942 c -25.08599,-4.66385 -23.16071,-5.19285 -21.89705,6.01656 l 0.68236,6.05286 24.1617,15.10565 24.16171,15.10565 1.94365,-3.10565 c 1.069,-1.70811 1.83772,-3.78065 1.70825,-4.60565 z m 497.2752,-46 c -9.15005,-26.125 -17.15179,-48.94575 -17.78165,-50.71279 -0.71047,-1.99318 -1.57723,-2.9422 -2.28332,-2.5 -0.64982,0.40697 -2.74487,13.0186 -4.88306,29.39472 l -3.74492,28.68193 21.88425,22.99515 c 17.43686,18.32199 22.04286,22.65432 22.6647,21.31807 0.51981,-1.117 -4.77545,-17.54015 -15.856,-49.17708 z m -488.11549,32.32087 c 0.91636,-6.97352 1.52693,-12.81831 1.35681,-12.98843 -0.41518,-0.41518 -15.10175,-3.1944 -15.40146,-2.91451 -0.12962,0.12106 1.65343,6.60155 3.96234,14.40109 3.68022,12.43185 4.45816,14.18098 6.30711,14.18098 1.94695,0 2.23717,-0.97471 3.7752,-12.67913 z m 515.76666,-31.90973 3.27432,-39.08885 -3.67873,-17.33157 c -2.0233,-9.53237 -3.87487,-17.52772 -4.1146,-17.76744 -0.23973,-0.23973 -3.64178,1.04182 -7.5601,2.8479 -5.99654,2.76398 -7.05058,3.61183 -6.65891,5.3563 0.25593,1.13988 3.54133,26.50966 7.30089,56.37728 4.2443,33.7186 7.08713,53.24151 7.49919,51.5 0.36499,-1.54262 2.13707,-20.39475 3.93794,-41.89362 z m 6.84402,26.08833 6.33274,-18.50053 -3.85347,-18.21648 -3.85347,-18.21648 -2.68218,31.46701 c -1.4752,17.30686 -2.91541,33.82951 -3.20047,36.71701 -0.28506,2.8875 -0.19374,5.25 0.20292,5.25 0.39666,0 3.57093,-8.32524 7.05393,-18.50053 z m -21.37395,-35.65074 c -3.6246,-28.7918 -6.8137,-53.36105 -7.08689,-54.59834 -0.48615,-2.2018 -0.71409,-2.14093 -10.72775,2.86485 -5.62708,2.81295 -10.39844,5.26767 -10.60303,5.45492 -0.20459,0.18726 7.41467,22.62882 16.93168,49.87014 9.51702,27.24132 17.47748,49.35585 17.68992,49.14342 0.21243,-0.21244 -2.57933,-23.94318 -6.20393,-52.73499 z m -435.4639,46.15127 c 0.50501,0 0.91821,-1.31425 0.91821,-2.92054 0,-2.44707 -0.49795,-3.02992 -3.07151,-3.59517 -1.68932,-0.37103 -3.24971,-0.49641 -3.46752,-0.2786 -0.2178,0.21781 0.12014,2.07778 0.75099,4.13328 0.77897,2.53811 1.59695,3.5646 2.54931,3.19915 0.77127,-0.29597 1.8155,-0.53812 2.32052,-0.53812 z m 2.64384,-15.09416 1.43537,-4.4974 -20.2817,-42.66969 c -11.15493,-23.46833 -20.41925,-42.53213 -20.58738,-42.36401 -0.31672,0.31673 28.63357,91.84282 29.25555,92.49118 0.53521,0.5579 6.83136,1.94414 7.84766,1.72784 0.49232,-0.10478 1.54105,-2.21435 2.3305,-4.68792 z m -14.75232,0.34416 c -0.50746,-1.5125 -7.91473,-24.76818 -16.46061,-51.6793 -8.54588,-26.91111 -15.64478,-49.02116 -15.77533,-49.13344 -0.74076,-0.63707 -4.73878,1.70517 -4.74612,2.78052 -0.005,0.70522 -2.47977,20.63222 -5.4999,44.28222 -3.02012,23.65 -5.49119,43.91827 -5.49124,45.0406 -1e-4,1.87203 2.0032,2.4193 24.24989,6.62467 13.3375,2.52124 24.33909,4.64047 24.44798,4.7094 0.10889,0.0689 -0.21721,-1.11217 -0.72467,-2.62467 z m -118.85084,-8.67505 -0.62247,-6.92505 -9,-1.68999 c -17.00957,-3.194 -16.50097,-3.13985 -16.48587,-1.75522 0.0119,1.08808 25.96675,18.23475 26.53825,17.53207 0.1059,-0.13022 -0.0876,-3.35303 -0.42991,-7.16181 z m 175.95375,-29.37835 c 18.23772,-24.51937 23.25442,-31.88971 22.15507,-32.54941 -2.19305,-1.31603 -5.18488,-8.72318 -5.20933,-12.89719 -0.0121,-2.0625 -0.13446,-3.75441 -0.27196,-3.7598 -0.1375,-0.005 -12.7375,-3.30558 -28,-7.33375 -22.8445,-6.02926 -27.7447,-7.04398 -27.72005,-5.7402 0.18112,9.57593 6.97258,90.58601 7.6125,90.80349 0.47165,0.16029 2.20755,1.12746 3.85755,2.14927 1.65,1.02181 3.225,1.67026 3.5,1.44101 0.275,-0.22926 11.1093,-14.6803 24.07622,-32.11342 z m -102.95837,-13.44669 c 3.08982,-24.33745 5.48294,-44.40679 5.31804,-44.59853 -0.25291,-0.2941 -42.47367,26.92658 -44.68577,28.80994 -0.41243,0.35114 2.97068,13.21599 7.51802,28.58856 l 8.2679,27.95012 7.98198,1.6406 c 4.39009,0.90233 8.43198,1.68979 8.98198,1.74991 0.57908,0.0633 3.36469,-18.51653 6.61785,-44.1406 z m 67.472,38.36426 c -0.30826,-2.53779 -1.96301,-23.73917 -3.67724,-47.11417 -1.71422,-23.375 -3.18333,-42.53297 -3.26469,-42.57327 -0.0814,-0.0403 -8.47292,-2.25182 -18.64792,-4.9145 -10.175,-2.66268 -18.99752,-5.01542 -19.6056,-5.22831 -0.60808,-0.21289 -1.68009,1.66482 -2.38225,4.17269 l -1.27666,4.55976 16.80622,35.24182 c 9.24342,19.38299 19.63155,41.19839 23.08474,48.47866 4.9891,10.5184 6.61177,13.10897 7.90119,12.61417 1.29399,-0.49655 1.50915,-1.5573 1.06221,-5.23685 z m -95.07007,0.63583 c -0.2296,-0.6875 -3.64251,-12.275 -7.58424,-25.75 -3.94173,-13.475 -7.50362,-24.86637 -7.91531,-25.31415 -0.41169,-0.44778 -6.99716,3.30575 -14.63438,8.34119 L -352,565.04457 l 0.63731,12.96278 c 0.35052,7.12953 0.86125,13.18673 1.13496,13.46043 0.37748,0.37748 38.19204,7.86891 41.94635,8.30997 0.39523,0.0464 0.53076,-0.47807 0.30116,-1.16557 z m -46.24383,-18.5 c -0.21772,-5.9125 -0.48137,-11.3115 -0.5859,-11.99778 -0.28341,-1.86075 -24.69005,14.67548 -24.69005,16.72826 0,1.34874 2.15167,2.10051 10.75,3.75594 16.53397,3.18329 14.98891,4.08595 14.52595,-8.48642 z m 614.85419,-40.23972 c 14.02802,-40.44328 16.59741,-48.71131 15.48371,-49.825 -1.11369,-1.11369 -4.38681,0.18928 -19.72456,7.85203 -10.11411,5.05301 -18.4637,9.24926 -18.55464,9.32499 -0.0909,0.0757 -0.95769,9.32116 -1.9261,20.54539 -1.94597,22.55443 -2.00752,21.74377 3.64835,48.0515 1.82366,8.48258 3.52691,14.7744 3.785,13.98184 0.25809,-0.79257 8.03779,-23.26141 17.28824,-49.93075 z m -89.09656,27.31953 c 1.57293,-12.0064 3.10897,-23.48484 3.41342,-25.50766 l 0.55356,-3.67785 -14.75028,7.03886 c -8.11265,3.87138 -15.03069,7.32641 -15.37342,7.67786 -0.34272,0.35144 -0.87182,3.21785 -1.17576,6.36981 l -0.55264,5.73083 12.06019,12.55142 c 6.6331,6.90328 12.26378,12.34782 12.51263,12.09898 0.24884,-0.24884 1.73937,-10.27585 3.3123,-22.28225 z m -539.18003,3.17019 12.10816,-8 -0.054,-6 c -0.12642,-14.04342 -5.62911,-113.86688 -6.20146,-112.5 -0.34546,0.825 -6.01644,29.74177 -12.60219,64.25949 l -11.9741,62.7595 2.62563,4.0103 c 1.44409,2.20567 2.93257,3.8889 3.30772,3.74051 0.37515,-0.14839 6.13077,-3.8698 12.79026,-8.2698 z m 31.31006,-20.62086 11.66361,-7.80287 -1.44157,-4.78814 c -0.79286,-2.63347 -8.01037,-27.06313 -16.03892,-54.28813 -8.02856,-27.225 -14.97729,-50.175 -15.44164,-51 -1.1689,-2.07676 -1.27117,-5.12164 2.09907,62.5 1.64471,33 2.99161,61.25333 2.99311,62.78518 0.002,2.57529 0.1723,2.69519 2.25273,1.59101 1.2375,-0.6568 7.49862,-4.70547 13.91361,-8.99705 z m 458.76832,-1.04628 c 0.68668,-2.29193 2.4515,-5.37014 3.92183,-6.84046 l 2.67332,-2.67332 -13.70822,-100.77088 c -7.53951,-55.42399 -13.84561,-100.88376 -14.01353,-101.02173 -0.16793,-0.13796 -72.19283,3.16611 -160.05533,7.34239 -138.90014,6.6022 -159.74935,7.79148 -159.74505,9.11219 0.003,0.83542 -0.70438,3.54395 -1.57132,6.01895 l -1.57627,4.5 33.23222,71.73609 33.23223,71.73609 3.82339,-0.61139 c 2.71933,-0.43484 4.56364,-0.12636 6.38684,1.06825 3.05824,2.00383 6.45295,7.28014 6.47953,10.07096 0.0105,1.1 0.37807,2.56549 0.81687,3.25665 0.53314,0.83975 16.36928,3.07658 47.73469,6.74243 25.81528,3.01719 47.72437,5.48919 48.68687,5.49335 1.47306,0.006 1.75,-0.94193 1.75,-5.99243 0,-4.66667 0.33333,-6 1.5,-6 1.17616,0 1.5,1.37361 1.5,6.36246 l 0,6.36247 15.25,1.76555 c 8.3875,0.97105 42.925,5.03362 76.75,9.02792 33.825,3.99431 62.44127,7.3117 63.59171,7.37199 1.62374,0.0851 2.37104,-0.82269 3.34022,-4.05753 z M -39.5,491.86218 c 0,-9.11111 0.25758,-11 1.5,-11 1.24242,0 1.5,1.88889 1.5,11 0,9.11111 -0.25758,11 -1.5,11 -1.24242,0 -1.5,-1.88889 -1.5,-11 z m 0,-42 c 0,-9.11111 0.25758,-11 1.5,-11 1.24242,0 1.5,1.88889 1.5,11 0,9.11111 -0.25758,11 -1.5,11 -1.24242,0 -1.5,-1.88889 -1.5,-11 z m 0,-41 c 0,-9.11111 0.25758,-11 1.5,-11 1.24242,0 1.5,1.88889 1.5,11 0,9.11111 -0.25758,11 -1.5,11 -1.24242,0 -1.5,-1.88889 -1.5,-11 z m 0,-41.5 c 0,-8.66667 0.2619,-10.5 1.5,-10.5 1.2381,0 1.5,1.83333 1.5,10.5 0,8.66667 -0.2619,10.5 -1.5,10.5 -1.2381,0 -1.5,-1.83333 -1.5,-10.5 z m 216.27965,161.05729 c 0.35059,-3.14033 -0.90579,-8.01232 -5.55917,-21.55729 -3.30668,-9.625 -6.31336,-17.84434 -6.68151,-18.2652 -0.36815,-0.42086 -5.8624,11.50414 -12.20943,26.5 -11.37395,26.87275 -11.51841,27.31086 -10.03668,30.43742 l 1.50338,3.17221 16.26522,-8.11492 16.26522,-8.11492 0.45297,-4.0573 z m -489.93298,6.10068 c 38.901,-25.48776 37.88521,-24.74426 36.25982,-26.54029 -2.87552,-3.17743 -4.60646,-9.04976 -4.6677,-15.83556 l -0.0612,-6.78212 -34.52402,-30 c -18.98822,-16.5 -34.8267,-30.11367 -35.19662,-30.25261 -0.36993,-0.13893 -1.26316,0.69303 -1.98495,1.84881 -1.15694,1.85254 0.62041,8.6605 15.00782,57.48615 8.9761,30.46161 16.47618,55.39215 16.66685,55.4012 0.19066,0.009 4.01566,-2.38746 8.5,-5.32558 z m 463.47804,-23.56845 12.27,-28.91047 -22.7661,-65.12094 c -22.65205,-64.79471 -22.77878,-65.11823 -25.29735,-64.5824 -1.39219,0.29619 -3.7816,-0.11965 -5.3098,-0.92409 l -2.77854,-1.46263 0.62811,4.70551 c 0.34546,2.58802 6.10412,44.96218 12.79702,94.16478 l 12.16891,89.45928 2.48152,0.69104 c 1.36484,0.38007 2.71883,0.7359 3.00888,0.79072 0.29004,0.0548 6.04885,-12.91003 12.79735,-28.8108 z m 83.62769,4.12404 0.61077,-6.28643 -4.03159,2.05676 c -2.21737,1.13122 -4.03158,2.40618 -4.03158,2.83325 0,0.94316 3.75091,18.68665 4.68938,22.18286 0.45589,1.6984 0.90852,-0.22544 1.41166,-6 0.40733,-4.675 1.01544,-11.3289 1.35136,-14.78644 z m -28.94974,1.32366 c -0.23575,-1.12047 -2.74255,-20.48722 -5.57068,-43.03722 -2.82812,-22.55 -5.31978,-41.1875 -5.53701,-41.41667 -0.21723,-0.22916 -0.60821,-0.20342 -0.86884,0.0572 -0.26064,0.26063 -3.18277,20.8991 -6.49364,45.86326 -5.05063,38.08198 -5.83266,45.90682 -4.85757,48.6034 l 1.16221,3.21401 11.29708,-5.62338 c 9.57411,-4.76574 11.23171,-5.93409 10.86845,-7.66061 z M -167.5,517.45257 c 0,-0.22529 -3.4875,-2.32181 -7.75,-4.65895 -4.2625,-2.33713 -15.63469,-8.58899 -25.27154,-13.89301 l -17.52153,-9.64369 0.37279,7.05263 c 0.20504,3.87895 0.72434,7.42724 1.154,7.88509 0.42966,0.45785 11.52159,3.68973 24.64874,7.18196 13.12715,3.49222 23.98004,6.38011 24.11754,6.41753 0.1375,0.0374 0.25,-0.11628 0.25,-0.34156 z m -22.99723,-77.59039 c -18.20769,-39.325 -33.53192,-71.9275 -34.05383,-72.45 -0.59933,-0.6 -1.26251,-0.6 -1.80005,0 -0.98239,1.09653 7.5332,116.80552 8.62766,117.23173 0.3979,0.15494 13.54845,7.39369 29.22345,16.08609 l 28.5,15.80437 1.30383,-2.58609 c 1.22378,-2.42733 -0.72859,-6.97572 -31.80106,-74.0861 z m 409.98756,56.78629 c -1.54859,-7.30746 -5.61407,-26.56129 -9.0344,-42.78629 -3.42033,-16.225 -6.44625,-29.725 -6.72426,-30 -0.27801,-0.275 -0.73535,0.14943 -1.0163,0.94318 -0.28095,0.79375 -1.62409,2.55645 -2.98475,3.91711 l -2.47393,2.47393 5.20273,41.58289 c 2.8615,22.87059 5.38122,42.15609 5.59939,42.85667 0.28179,0.90486 2.40241,0.26371 7.3219,-2.21371 l 6.92523,-3.48749 -2.81561,-13.28629 z m -35.51949,-23.02188 c 3.04104,-22.89498 5.52916,-42.19811 5.52916,-42.89583 0,-2.83556 -2.17053,1.70233 -12.45795,26.04569 l -10.73998,25.41428 4.20405,12.08572 c 2.31222,6.64715 4.91501,14.21498 5.78397,16.81739 0.86896,2.60241 1.70855,4.60303 1.86576,4.44582 0.15721,-0.15721 2.77396,-19.01809 5.81499,-41.91307 z m 47.01775,31.94372 3.9886,-2.25896 2.20759,-24.97459 c 1.21417,-13.73602 2.23181,-26.11027 2.2614,-27.49833 0.0458,-2.14703 -2.31355,-4.17714 -15.80633,-13.60065 l -15.86015,-11.07691 0.79389,3.60065 c 0.43664,1.98036 4.21056,19.80066 8.38649,39.60066 4.17594,19.8 7.79163,36.5625 8.03488,37.25 0.60406,1.70726 1.37673,1.57295 5.99363,-1.04187 z m -451.94357,-14.2351 -0.60068,-4.02697 -19.5653,-10.79657 c -10.76091,-5.93811 -19.69188,-10.65097 -19.8466,-10.47303 -0.15471,0.17795 -0.98577,2.76193 -1.84679,5.74219 -1.48293,5.13285 -1.46486,5.54659 0.3427,7.84452 1.04951,1.33424 2.43229,5.08978 3.07284,8.34566 1.00718,5.11939 1.5185,6.00803 3.78173,6.57242 1.43939,0.35895 9.81708,2.53687 18.61708,4.83983 l 16,4.18719 0.32285,-4.10414 c 0.17757,-2.25727 0.0526,-5.91627 -0.27783,-8.1311 z m 484.30597,-1.39591 c 9.20038,-4.61905 10.28571,-5.44018 9.76366,-7.38692 -0.32304,-1.20461 -0.59349,-4.23387 -0.601,-6.73168 L 272.5,471.27921 257.82469,461.07934 c -8.07142,-5.60993 -14.81478,-10.0604 -14.98525,-9.88993 -0.35925,0.35924 -4.33944,44.50581 -4.33944,48.13115 l 0,2.42783 7.25,-3.30619 c 3.9875,-1.8184 11.90795,-5.64471 17.60099,-8.5029 z m -533.67196,-15.07712 c 3.30165,0 3.49634,-0.20861 4.74628,-5.08564 0.89615,-3.49659 0.98085,-5.4082 0.27108,-6.11797 -0.56777,-0.56777 -19.63174,-11.28399 -42.36436,-23.81381 -33.94815,-18.71162 -41.44149,-22.48681 -41.94477,-21.13203 -0.4134,1.11284 0.56258,2.6701 3,4.78674 1.98701,1.72551 17.7699,15.49468 35.0731,30.59816 l 31.46036,27.46086 3.15772,-3.34816 c 2.39342,-2.53776 3.99103,-3.34815 6.60059,-3.34815 z m 48.39731,2.75 c -0.30042,-2.3375 -2.15832,-26.975 -4.12867,-54.75 -1.97035,-27.775 -3.7857,-51.5125 -4.03412,-52.75 -1.36908,-6.8203 -3.51774,-0.99833 -16.36436,44.34062 -7.26071,25.62484 -12.94779,46.84412 -12.63796,47.15395 0.96134,0.96133 36.04096,20.18494 36.90004,20.22119 0.4462,0.0188 0.56548,-1.87826 0.26507,-4.21576 z m 397.3644,-25.90238 10.22558,-24.15238 -1.75452,-3.89084 c -1.11354,-2.46938 -1.78326,-6.52373 -1.83316,-11.09762 L 182,405.36218 151.95256,375.67301 c -25.66957,-25.36351 -30.20147,-29.44254 -31.10461,-27.99638 -0.82842,1.3265 3.7258,15.37803 21.04734,64.93917 12.15748,34.78551 22.37797,63.24638 22.71219,63.24638 0.33423,0 5.2092,-10.86857 10.83326,-24.15238 z m 101.37754,11.6202 2.81829,-3.53212 -12.05336,-69.11959 c -6.62935,-38.01577 -12.28507,-69.35131 -12.56828,-69.63452 -0.28321,-0.28321 -0.68955,-0.32742 -0.90296,-0.0983 -0.49002,0.52618 -10.66923,118.35769 -10.57531,122.41667 0.0627,2.71099 1.48528,3.98209 14.76638,13.19435 8.08333,5.60689 14.92196,10.21938 15.19696,10.24997 0.275,0.0306 1.76823,-1.53383 3.31828,-3.4765 z m -525.38088,-53.46782 12.26691,-43.5 -2.36464,-4.1311 -2.36464,-4.1311 -54.21933,26.1311 c -29.82062,14.3721 -54.07833,26.5811 -53.90601,27.1311 0.17232,0.55 19.62663,11.65303 43.23181,24.6734 l 42.9185,23.6734 1.08525,-3.1734 c 0.59688,-1.74537 6.60535,-22.7484 13.35215,-46.6734 z m 494.13196,-28.80573 c 2.80601,-32.61815 4.82357,-60.03089 4.48346,-60.91721 -0.37027,-0.96492 -0.97414,-1.24348 -1.50504,-0.69428 -0.48767,0.50447 -10.4149,21.99786 -22.06053,47.76308 -17.88253,39.56398 -21.07619,47.33615 -20.54553,50 0.54122,2.7168 2.94598,4.76909 17.34331,14.80129 12.36094,8.61323 16.77586,11.21809 16.94872,10 0.12856,-0.90593 2.52959,-28.33473 5.33561,-60.95288 z m -20.19879,-19.85272 c 20.04854,-44.34451 20.18146,-44.6844 18.90995,-48.35118 L 243,309.15982 l -59.14025,12.51456 -59.14024,12.51457 -0.5596,4.08661 -0.55961,4.08662 30.19985,29.61383 30.19985,29.61382 3.2848,-2.86382 c 4.5628,-3.97805 8.46421,-3.81482 12.8152,0.53617 1.87,1.87 3.4,4.12 3.4,5 0,0.88 0.37803,1.6 0.84006,1.6 0.46203,0 9.92576,-20.0963 21.03051,-44.65845 z M -39.5,822.86218 c 0,-9.11111 0.25758,-11 1.5,-11 1.24242,0 1.5,1.88889 1.5,11 0,9.11111 -0.25758,11 -1.5,11 -1.24242,0 -1.5,-1.88889 -1.5,-11 z m 762.8815,-25.46267 c -3.6282,-2.02769 -6.1932,-7.88723 -6.6928,-15.28888 -0.3552,-5.26371 0,-7.10767 2.2289,-11.66959 l 2.6508,-5.41805 -13.0806,-46.33041 c -18.7107,-66.27171 -16.5688,-59.8304 -19.8953,-59.8304 -3.6539,0 -7.9541,-3.42449 -9.7762,-7.78537 -2.1486,-5.14236 -1.8598,-15.53853 0.568,-20.4455 l 2.0092,-4.06108 -26.5624,-76.60402 c -24.9543,-71.96629 -26.7492,-76.72511 -29.6477,-78.60403 -1.697,-1.1 -3.9949,-3.5628 -5.1066,-5.47288 -4.2585,-7.3169 -1.5946,-23.80647 4.3607,-26.99368 3.1138,-1.66646 7.5877,-1.19475 10.5162,1.10879 l 2.7234,2.14222 2.7716,-2.89222 c 1.5244,-1.59073 21.6997,-24.51908 44.8339,-50.9519 l 42.0623,-48.05967 -0.5337,-5.94033 c -1.0097,-11.24018 3.7963,-20.44033 10.6776,-20.44033 4.5317,0 6.7228,1.50782 9.1309,6.28344 1.1694,2.31911 2.2283,4.33649 2.3531,4.48306 0.1248,0.14658 13.2319,-4.28923 29.127,-9.85735 15.8951,-5.56813 30.8127,-10.79285 33.1502,-11.61051 4.0289,-1.40929 4.25,-1.69155 4.25,-5.42476 0,-8.32436 4.8444,-14.87388 11.0015,-14.87388 6.0329,0 10.9706,7.12528 11.0179,15.89922 l 0.019,3.60078 47.1547,18.5 c 25.9352,10.175 47.6389,18.61003 48.2307,18.74451 0.5917,0.13448 1.9052,-1.56313 2.9189,-3.77246 1.8892,-4.11754 5.8636,-6.97205 9.7072,-6.97205 3.7636,0 8.5842,5.92225 9.8727,12.12889 l 1.1543,5.56022 40.7113,6.75494 c 22.3913,3.71521 41.8766,6.97695 43.3008,7.24832 2.1794,0.41526 2.5752,0.13846 2.5,-1.74829 -0.1361,-3.41361 1.9782,-3.40226 3.395,0.0182 0.692,1.67073 1.4556,3.03769 1.6967,3.03769 0.2412,0 13.8847,2.25 30.3189,5 16.4342,2.75 30.514,5 31.2883,5 0.7744,0 2.2344,-1.83267 3.2444,-4.07261 2.2862,-5.06972 4.8608,-6.92739 9.6009,-6.92739 6.6165,0 11.5747,8.69636 10.5943,18.5817 -0.2682,2.70507 -5.732,28.9933 -12.1417,58.4183 l -11.6541,53.5 3.034,6.26893 c 3.2101,6.633 3.6516,8.73128 2.046,9.72362 -0.5434,0.33582 -1.9831,-1.43762 -3.1993,-3.94098 -1.2162,-2.50337 -2.4758,-4.55157 -2.799,-4.55157 -0.3232,0 -5.1143,21.2625 -10.647,47.25 l -10.0593,47.25 2.5963,3.92552 c 2.1634,3.27107 2.6439,5.2717 2.8821,12 0.2459,6.94129 -0.039,8.63585 -2.031,12.07448 -2.8943,4.99647 -7.0465,7.20588 -10.8465,5.77151 l -2.7073,-1.02187 -26.0238,61.62518 c -14.313,33.89385 -26.5411,64.21718 -27.1735,67.38518 -3.3145,16.60497 -18.3058,16.48015 -21.6378,-0.18016 l -0.6156,-3.07981 -77.2563,0 -77.2563,0 -1.1332,4.50047 c -2.6403,10.48565 -11.3018,14.31957 -17.2672,7.64315 -1.6002,-1.791 -3.1607,-4.51209 -3.4676,-6.04686 l -0.5581,-2.79049 -37.6557,10.86033 c -20.7106,5.97318 -39.9586,11.52455 -42.7734,12.33638 l -5.1179,1.47604 -1.1927,6.06248 c -1.9602,9.96357 -8.7447,15.09803 -15.1901,11.49583 z m 64.5882,-35.82748 35.9697,-10.31455 0.647,-3.16332 c 0.7813,-3.82029 2.5654,-2.18308 -22.0864,-20.26813 -10.725,-7.86807 -21.808,-16.00265 -24.629,-18.07684 l -5.1289,-3.77125 -18.1238,31.70459 c -17.4856,30.5881 -18.0825,31.81419 -16.9493,34.81645 l 1.1746,3.11186 6.5782,-1.86213 c 3.618,-1.02417 22.7646,-6.50367 42.5479,-12.17668 z m -35.8793,-26.75582 c 16.789,-29.40926 17.6228,-31.11756 15.8165,-32.40408 -1.0488,-0.74696 -17.1988,-12.59867 -35.8889,-26.33713 l -33.982,-24.97901 -1.7949,2.95146 -1.7949,2.95147 14.5748,51.68163 c 8.0161,28.4249 14.8085,52.46913 15.0943,53.43163 0.3522,1.18642 1.5444,1.75493 3.7021,1.76531 1.7504,0.008 3.8576,0.45153 4.6826,0.98469 0.825,0.53316 1.5826,0.97627 1.6835,0.98469 0.1009,0.008 8.159,-13.95538 17.9069,-31.03066 z m 250.2329,11.46753 c -0.2683,-1.30992 -95.0688,-65.26336 -96.9196,-65.38301 -0.6503,-0.042 -57.0387,58.70207 -58.2327,60.66546 -0.4027,0.66221 -0.4446,2.34971 -0.093,3.75 l 0.639,2.54599 77.4649,0 c 70.0385,0 77.434,-0.15132 77.1416,-1.57844 z m 47.5054,-63.17089 24.8288,-58.74306 -1.7858,-5.25381 c -0.9823,-2.88959 -2.2552,-5.2574 -2.8288,-5.2618 -1.7595,-0.0135 -99.8929,12.03083 -102.2929,12.55484 -1.6061,0.35068 -2.25,1.21041 -2.25,3.00433 0,1.38219 -0.6374,4.03865 -1.4165,5.90325 -1.4159,3.38866 -1.4064,3.41142 21.1928,50.82331 l 22.6093,47.43313 4.2876,-0.48327 c 5.1477,-0.58022 8.4528,1.24813 10.2947,5.69495 0.7011,1.6926 1.5576,3.07605 1.9034,3.07433 0.3458,-0.002 11.8016,-26.43751 25.4574,-58.7462 z m -66.8659,6.37999 c -12.4994,-26.19686 -23.0269,-47.63066 -23.3945,-47.63066 -0.3676,0 -1.1174,0.44908 -1.6663,0.99795 -0.6566,0.6566 -3.5469,0.67241 -8.45,0.0462 l -7.452,-0.95172 -3.6137,3.70377 c -18.3382,18.79532 -29.916,31.56994 -29.2224,32.24324 0.4599,0.44643 21.9738,14.83322 47.8088,31.97064 42.3449,28.08918 47.0585,30.96646 47.8445,29.20509 0.6792,-1.52225 -4.1485,-12.47573 -21.8544,-49.58454 z M 829.4085,685.3004 c -2.0433,-25.81602 -3.7723,-47.16322 -3.8422,-47.43822 -0.07,-0.275 -0.6094,0.32966 -1.1988,1.3437 -0.5895,1.01403 -2.6008,2.48257 -4.4696,3.26342 -2.8995,1.21147 -3.8812,1.2178 -6.6924,0.0432 l -3.2945,-1.37654 -17.5199,30.65919 -17.5199,30.65918 25.3823,18.63605 25.3823,18.63605 3.7439,-3.7439 3.7439,-3.7439 -3.7151,-46.93822 z m 46.0023,20.65661 c 14.3617,-15.07284 25.8477,-27.67284 25.5245,-28 -2.386,-2.415 -72.0058,-47.73208 -72.2601,-47.03569 -0.3556,0.97401 6.5831,93.42992 7.4067,98.69086 0.3536,2.25919 1.0515,3.25 2.2891,3.25 0.9792,0 2.8488,1.13729 4.1547,2.52731 l 2.3742,2.5273 2.1994,-2.2773 c 1.2097,-1.25252 13.9498,-14.60964 28.3115,-29.68248 z m -85.6255,-37.08393 17.7129,-30.98911 -1.1462,-4.28517 -1.1461,-4.28518 -51.1029,6.23895 c -28.1067,3.43142 -51.8905,6.25484 -52.853,6.27428 -1.2498,0.0252 -1.7318,0.82135 -1.6863,2.78533 0.057,2.43708 4.1244,5.73125 35.75,28.94978 19.6275,14.40987 35.9276,26.22237 36.2225,26.25 0.2949,0.0276 8.507,-13.89488 18.2491,-30.93888 z M 920.866,658.36065 c 9.5006,-9.92903 15.2607,-16.67028 14.4618,-16.9252 -2.2796,-0.72736 -94.6934,-10.78571 -95.7356,-10.4199 -0.8726,0.30627 63.591,43.81959 64.946,43.83894 0.296,0.004 7.6435,-7.418 16.3278,-16.49384 z M 754,631.38414 c 25.85,-3.07111 48.0125,-5.80349 49.25,-6.07195 1.607,-0.34862 2.25,-1.20633 2.25,-3.00118 0,-3.30847 2.3326,-8.78145 4.7901,-11.23894 1.9539,-1.95387 1.7392,-2.28552 -36.584,-56.52522 l -38.5494,-54.55982 -2.4632,1.93758 c -1.3548,1.06566 -3.6416,1.93757 -5.0817,1.93757 l -2.6186,0 -15.3745,60.42278 -15.3746,60.42278 2.628,5.27356 c 1.4453,2.90046 2.6279,5.91773 2.6279,6.70503 0,1.08968 0.8954,1.2942 3.75,0.85655 2.0625,-0.3162 24.9,-3.08763 50.75,-6.15874 z m 188.0113,4.46557 c 1.4399,-1.59107 1.7709,-3.40056 1.5809,-8.64152 -0.2215,-6.10938 -1.3124,-9.04857 -13.9162,-37.49276 -9.3321,-21.06055 -14.0851,-30.70856 -14.964,-30.37527 -0.7084,0.26864 -20.6002,14.10849 -44.2039,30.75523 -34.5286,24.35168 -42.9248,30.70651 -42.9619,32.51679 -0.025,1.2375 0.066,2.27151 0.2038,2.29781 0.317,0.0606 109.8682,12.69742 111.345,12.84372 0.6023,0.0597 1.9146,-0.79714 2.9163,-1.904 z M 706.6265,562.8583 c 14.9522,-58.92304 15.379,-60.88859 13.6785,-62.98856 -1.9997,-2.46952 -3.7912,-8.22441 -3.7994,-12.20488 -0.01,-3.00735 4.752,-1.25682 -51.0056,-18.76472 -12.375,-3.88576 -23.2289,-7.29565 -24.1198,-7.57755 -1.1709,-0.37049 -1.7825,0.30119 -2.207,2.42366 -0.323,1.6149 -2.1155,4.43912 -3.9833,6.27606 l -3.3961,3.33987 25.8564,74.5 c 14.2211,40.975 26.0333,74.97759 26.2494,75.56132 0.216,0.58372 1.9454,0.88006 3.843,0.65853 l 3.4501,-0.40279 15.4338,-60.82094 z m 313.5209,52.79001 51.1474,-6.28613 0.5388,-4 c 0.2964,-2.2 0.8048,-4.9 1.1299,-6 0.4215,-1.42649 -7.1026,-15.80184 -26.2389,-50.13093 -25.5643,-45.86074 -26.9216,-48.06324 -28.7772,-46.69581 -1.1187,0.82439 -3.5619,1.30568 -5.7412,1.13094 l -3.7937,-0.3042 -22.9952,54.25608 -22.9952,54.25608 1.7737,4.99392 c 1.0538,2.96724 2.3886,5.00858 3.2889,5.03005 0.8334,0.0199 24.5316,-2.79262 52.6627,-6.25 z m -150.473,-29.85995 c 22.7291,-16.05702 41.9527,-29.77738 42.7192,-30.48968 1.1782,-1.0949 -0.6708,-5.94315 -11.9618,-31.36579 -7.3454,-16.53889 -13.71,-30.07071 -14.1436,-30.07071 -0.4335,0 -0.7882,0.72 -0.7882,1.6 0,0.88 -1.5693,3.16926 -3.4872,5.08724 -3.0334,3.03334 -4.019,3.44334 -7.5728,3.15 l -4.0855,-0.33724 -22.9397,54 c -22.4077,52.74777 -24.9099,59.8633 -20.4485,58.15131 0.7604,-0.2918 19.9791,-13.6681 42.7081,-29.72513 z m 81.9095,23.1944 c 1.921,-0.66966 3.8709,-0.70807 5.4509,-0.10736 2.1913,0.83316 2.6083,0.58328 3.8194,-2.28898 0.7477,-1.77333 11.1467,-26.29045 23.109,-54.48249 16.6104,-39.14662 21.5993,-51.85668 21.1138,-53.7909 -0.4095,-1.63175 -1.0698,-2.2764 -1.8563,-1.81228 -0.6714,0.39621 -19.9771,13.9721 -42.9016,30.16865 l -41.6809,29.44828 2.2685,5.12225 c 1.2476,2.81724 7.179,16.20965 13.1809,29.76093 L 945,615.63953 l 1.7965,-2.80707 c 0.9881,-1.54389 3.1425,-3.27626 4.7874,-3.8497 z m -106.6056,-54.53857 22.796,-53.91799 -1.6421,-4.58201 c -0.9032,-2.52011 -1.6399,-5.36951 -1.6371,-6.33201 0,-1.61104 -1.6558,-1.75 -20.9098,-1.75 l -20.9147,0 -0.557,7.25 c -0.3063,3.9875 -1.2411,31.07567 -2.0773,60.19594 -1.2038,41.92384 -1.2635,53.10465 -0.2866,53.70835 0.6784,0.41934 1.5034,0.44367 1.8331,0.0541 0.3297,-0.3896 10.8577,-24.97146 23.3955,-54.62635 z m -28.0023,4.30943 c 0.784,-26.06529 1.6507,-52.68403 1.926,-59.15274 l 0.5005,-11.7613 -40.1698,0.2613 -40.1699,0.2613 -0.8149,4.12219 -0.815,4.1222 38.7835,55.00481 c 21.331,30.25265 38.9075,54.89882 39.0588,54.76925 0.1514,-0.12956 0.9167,-21.56172 1.7008,-47.62701 z M 1078,593.86218 c 0.3399,-0.55 1.9112,-1 3.4916,-1 1.8692,0 3.058,-0.61171 3.4011,-1.75 1.1718,-3.88732 20.7579,-96.89375 20.7957,-98.75 0.022,-1.1 0.4252,-2.9 0.895,-4 0.7403,-1.7332 19.9166,-90.70922 19.9166,-92.41097 0,-0.34896 -1.7746,-0.63448 -3.9436,-0.63448 -2.7976,0 -4.6937,-0.70464 -6.5247,-2.4248 -2.5514,-2.3969 -2.6018,-2.40239 -4.3837,-0.47727 -0.9914,1.07114 -8.7081,9.5175 -17.1482,18.7697 l -15.3456,16.82217 2.6929,5.49087 c 2.5533,5.20601 2.7236,7.36478 0.5809,7.36478 -0.5247,0 -1.9378,-2.025 -3.1403,-4.5 -1.2024,-2.475 -2.4933,-4.5 -2.8686,-4.5 -0.6984,0 -48.907,52.4948 -50.2732,54.74307 -0.4154,0.68368 -1.3731,3.60868 -2.1282,6.5 l -1.3728,5.25693 26.6776,48.21547 c 14.6726,26.51851 26.9884,48.23101 27.3685,48.25 0.38,0.019 0.9691,-0.41547 1.309,-0.96547 z m 15.6691,-127.50345 c -2.2513,-4.69182 -3.8372,-9.19793 -3.5242,-10.01357 1.1953,-3.11492 2.107,-1.83075 7.941,11.18511 1.8907,4.21821 2.0738,5.36943 0.9964,6.26357 -1.0418,0.86466 -2.1824,-0.70197 -5.4132,-7.43511 z m -133.6583,55.42562 c 30.8172,-21.8153 42.4892,-30.60585 42.4892,-32 0,-1.87375 -1.436,-1.92217 -57,-1.92217 -31.35,0 -57,0.17039 -57,0.37865 0,0.34893 24.1032,54.62606 27.0316,60.87135 0.7092,1.5125 1.4471,2.75 1.6397,2.75 0.1927,0 19.4704,-13.53502 42.8395,-30.07783 z M 819.843,467.20247 c 0.3613,-9.16284 0.6332,-20.52534 0.6041,-25.25 l -0.053,-8.59029 -20.261,-20.80904 -20.2611,-20.80904 -21.7431,41.08048 c -21.72,41.03684 -21.7418,41.08443 -20.5449,44.80903 0.659,2.05072 1.3456,4.29107 1.5256,4.97857 0.255,0.97363 9.1436,1.25 40.2018,1.25 l 39.8743,0 0.6571,-16.65971 z m 44.9776,13.90971 c 0.5027,-2.49653 -1.3488,-4.65913 -20.0873,-23.46278 -11.3526,-11.39203 -20.7213,-20.61703 -20.8193,-20.5 -0.098,0.11703 -0.5038,10.67528 -0.9018,23.46278 l -0.7237,23.25 20.9892,0 20.9891,0 0.5538,-2.75 z m 138.8673,-2.51338 1.6879,-5.23662 L 978.1879,418.23333 951,363.10447 l -4.7322,0.51604 c -2.6028,0.28383 -5.3028,0.06 -6,-0.49748 -0.9742,-0.77879 -7.5951,11.79413 -28.5871,54.28552 l -27.3193,55.29905 1.2967,5.57729 1.2967,5.57729 57.5226,-0.0134 57.5226,-0.0134 1.6879,-5.23663 z m 46.2212,-24.23662 c 13.5424,-14.85 24.5141,-27.675 24.3816,-28.5 -0.3691,-2.29906 1.1931,-4.25013 2.5483,-3.18274 0.8009,0.63076 6.3949,-4.81066 18.0344,-17.54248 l 16.8735,-18.45686 -0.6331,-4.61856 c -0.3481,-2.5402 -0.9662,-4.90675 -1.3734,-5.25898 -1.034,-0.89438 -58.2709,-10.24324 -58.8945,-9.61961 -0.2794,0.27937 0.013,1.48164 0.6501,2.67172 1.1769,2.19914 0.7477,5.00751 -0.7653,5.00751 -0.4577,0 -1.8104,-2.01356 -3.0061,-4.47459 -1.3885,-2.85791 -2.996,-4.66098 -4.4493,-4.99049 -3.2661,-0.74056 -85.2073,-14.53492 -86.3402,-14.53492 -0.8616,0 -3.4523,6.10639 -3.6062,8.5 -0.035,0.55 12.2737,25.83213 27.3536,56.18251 22.1061,44.49179 27.6988,55.00481 28.8677,54.26531 2.0605,-1.30353 7.1586,-1.10593 9.0732,0.35167 2.3314,1.77484 5.8685,7.86817 5.8729,10.11718 0,1.05416 0.1807,1.72916 0.397,1.5 0.2164,-0.22917 11.4735,-12.56667 25.0158,-27.41667 z m 12.3102,-54.01654 c -3.8561,-7.79306 -4.3964,-9.94693 -2.7505,-10.96421 1.2477,-0.7711 9.335,15.24669 8.6281,17.08884 -0.9992,2.60383 -2.1542,1.40029 -5.8776,-6.12463 z M 719,475.57594 c 1.2908,-2.71947 3.1448,-4.74569 5.2284,-5.71376 2.0056,-0.93188 3.2528,-2.2575 3.293,-3.5 0.035,-1.1 1.7889,-28.1 3.8964,-60 2.4781,-37.50909 3.4787,-58.13248 2.832,-58.375 -0.5499,-0.20625 -1.8809,-1.25611 -2.9578,-2.33301 -1.944,-1.94402 -1.9816,-1.93062 -5.2615,1.875 -1.8169,2.10815 -22.024,25.20801 -44.9047,51.33301 l -41.6012,47.5 0.6347,5 c 0.3491,2.75 1.1311,5.20671 1.7377,5.45937 4.2403,1.76599 71.5128,22.83299 73.103,22.89286 1.4017,0.0528 2.5983,-1.18531 4,-4.13847 z m 150.4791,-5.21376 c 0.1313,-3.07561 -40.4832,-153.39593 -41.2408,-152.63833 -0.4912,0.49125 -1.6627,26.03584 -2.6032,56.76576 l -1.71,55.87257 21.4259,22.25174 c 19.3628,20.10903 21.554,22.08306 22.7557,20.5 0.7313,-0.96346 1.3489,-2.20174 1.3724,-2.75174 z m -113.8575,-40.26047 21.6216,-40.73953 -19.0918,-19.2298 c -10.5005,-10.57639 -19.3667,-18.90139 -19.7026,-18.5 -0.336,0.40139 -2.2697,26.77432 -4.2971,58.60651 -3.6155,56.76596 -3.6656,60.66099 -0.7793,60.61282 0.3452,-0.006 10.3573,-18.34326 22.2492,-40.75 z m 153.7487,-15.77343 27.2082,-55.03389 -1.5392,-3.68399 c -0.8466,-2.02619 -1.548,-5.38594 -1.5587,-7.4661 l -0.0194,-3.78212 -47.1547,-18.5 c -25.9352,-10.175 -47.6389,-18.60292 -48.2307,-18.72871 -0.5917,-0.12579 -2.0995,1.96487 -3.3506,4.64591 l -2.2749,4.87462 20.0249,75.53989 c 11.0136,41.54693 20.0248,75.79377 20.0248,76.10408 0,0.31032 1.5484,0.56421 3.441,0.56421 1.8925,0 3.7433,0.48921 4.1129,1.08713 0.3695,0.59793 0.995,0.71043 1.39,0.25 0.3949,-0.46042 12.9618,-25.60238 27.9264,-55.87103 z M 823.882,335.14823 c 0.6144,-17.0236 0.5969,-17.227 -1.5826,-18.3934 -1.2121,-0.6487 -2.3545,-0.77742 -2.5386,-0.28605 -0.1842,0.49137 -8.8486,16.8684 -19.2542,36.3934 l -18.9194,35.5 19.7064,19.76234 19.7064,19.76235 1.1304,-37.76235 c 0.6217,-20.76928 1.4099,-45.50862 1.7516,-54.97629 z m -25.5128,14.06999 C 808.8911,329.33904 817.5,312.59771 817.5,312.01527 c 0,-0.58244 -0.4835,-2.12013 -1.0744,-3.41709 l -1.0745,-2.35811 -32.822,11.50205 -32.8221,11.50205 -0.6609,4.98198 c -0.7307,5.50861 -1.8053,8.04745 -4.7972,11.33475 l -2.0012,2.19873 18.3404,19.00375 c 10.0871,10.45206 18.4101,18.91263 18.4953,18.80127 0.085,-0.11136 8.7639,-16.46725 19.2858,-36.34643 z m 389.7037,315.53781 c -3.389,-7.41399 -3.9678,-10.89385 -1.8119,-10.89385 1.2638,0 8.5175,16.74028 7.7746,17.94236 -1.3063,2.11373 -2.3249,0.90965 -5.9627,-7.04851 z m -15.6073,-32.96218 c -3.715,-7.38877 -4.4333,-10.93167 -2.2163,-10.93167 0.9946,0 8.2507,14.47371 8.2507,16.45753 0,3.94939 -2.3542,1.79354 -6.0344,-5.52586 z m -16.043,-33.60004 c -2.7387,-5.95611 -3.6631,-8.99115 -2.9542,-9.7 0.6497,-0.6497 1.3612,-0.67992 1.922,-0.0816 1.7083,1.82273 7.7614,15.99474 7.3538,17.21749 -0.9088,2.72619 -2.5209,0.82991 -6.3216,-7.43586 z m -15.722,-32.89115 c -3.951,-7.96661 -4.4611,-10.44048 -2.1527,-10.44048 1.396,0 9.1653,16.00207 8.549,17.60809 -1.0161,2.64782 -2.1692,1.35568 -6.3963,-7.16761 z m -15.4966,-32.69048 c -3.9514,-8.78381 -4.3024,-10.26216 -2.675,-11.26795 1.2699,-0.78479 9.2929,16.23674 8.557,18.15436 -1.0215,2.66195 -2.2156,1.2639 -5.882,-6.88641 z m -94.7384,-198.81833 c -3.715,-7.38877 -4.4333,-10.93167 -2.2163,-10.93167 0.9946,0 8.2507,14.47371 8.2507,16.45753 0,3.94939 -2.3542,1.79354 -6.0344,-5.52586 z M -39.5,325.86218 c 0,-9.11111 0.25758,-11 1.5,-11 1.24242,0 1.5,1.88889 1.5,11 0,9.11111 -0.25758,11 -1.5,11 -1.24242,0 -1.5,-1.88889 -1.5,-11 z m 1053.9726,-25.68099 c -2.7236,-5.89529 -3.6836,-9.00799 -2.9916,-9.7 0.643,-0.64296 1.3607,-0.66843 1.9449,-0.069 1.7004,1.74475 7.7431,15.94307 7.3223,17.20527 -0.8999,2.69998 -2.4306,0.8863 -6.2756,-7.43626 z M -39.5,284.86218 c 0,-9.11111 0.25758,-11 1.5,-11 1.24242,0 1.5,1.88889 1.5,11 0,9.11111 -0.25758,11 -1.5,11 -1.24242,0 -1.5,-1.88889 -1.5,-11 z m 1038.1995,-17.6772 c -3.276,-6.84933 -3.9036,-8.97437 -2.9794,-10.08795 0.9488,-1.14329 1.9844,0.20837 5.4622,7.12962 3.7914,7.54527 4.6301,11.63553 2.3856,11.63553 -0.3949,0 -2.5857,-3.90474 -4.8684,-8.6772 z M -39.5,243.36218 c 0,-8.66667 0.2619,-10.5 1.5,-10.5 1.2381,0 1.5,1.83333 1.5,10.5 0,8.66667 -0.2619,10.5 -1.5,10.5 -1.2381,0 -1.5,-1.83333 -1.5,-10.5 z m -394.83465,6 c 0.2402,-0.55 1.5351,-3.25 2.87754,-6 2.23188,-4.57199 2.44151,-6.19862 2.44896,-19.00224 0.008,-13.21067 -0.14465,-14.31098 -2.69474,-19.46377 -1.48659,-3.00385 -2.6015,-5.56293 -2.47759,-5.68685 0.12392,-0.12391 1.27492,1.30653 2.55778,3.17875 8.42131,12.29008 7.86596,34.16644 -1.15439,45.47411 -1.09686,1.375 -1.79777,2.05 -1.55756,1.5 z m 986,0 c 0.2402,-0.55 1.5351,-3.25 2.87754,-6 2.23191,-4.57199 2.44151,-6.19862 2.44901,-19.00224 0.01,-13.21067 -0.1447,-14.31098 -2.69479,-19.46377 -1.48659,-3.00385 -2.6015,-5.56293 -2.47759,-5.68685 0.12392,-0.12391 1.27492,1.30653 2.55778,3.17875 8.4213,12.29008 7.866,34.16644 -1.15439,45.47411 -1.09686,1.375 -1.79777,2.05 -1.55756,1.5 z M 983.2421,234.60297 c -3.9901,-8.74997 -4.3507,-10.24659 -2.7132,-11.25862 1.2995,-0.80318 9.3344,16.12867 8.583,18.08692 -1.0275,2.67756 -2.1084,1.42016 -5.8698,-6.8283 z M -442.7,236.66218 c 0.77007,-0.77007 1.2,-4.71111 1.2,-11 0,-8.6582 -0.20389,-9.80259 -1.75,-9.82224 -1.41827,-0.018 -1.27609,-0.39293 0.75,-1.97776 1.375,-1.07554 2.8375,-1.96553 3.25,-1.97776 0.4125,-0.0122 0.75,5.28776 0.75,11.77776 0,7.84444 0.40226,12.20226 1.2,13 0.93333,0.93333 0.33333,1.2 -2.7,1.2 -3.03333,0 -3.63333,-0.26667 -2.7,-1.2 z m 976,0 c 0.77007,-0.77007 1.2,-4.71111 1.2,-11 0,-8.6582 -0.20389,-9.80259 -1.75,-9.82224 -1.41827,-0.018 -1.27609,-0.39293 0.75,-1.97776 1.375,-1.07554 2.8375,-1.96553 3.25,-1.97776 0.4125,-0.0122 0.75,5.28776 0.75,11.77776 0,7.84444 0.40226,12.20226 1.2,13 0.93333,0.93333 0.33333,1.2 -2.7,1.2 -3.03333,0 -3.63333,-0.26667 -2.7,-1.2 z m 10,0 c 0.77007,-0.77007 1.2,-4.71111 1.2,-11 0,-8.6582 -0.20389,-9.80259 -1.75,-9.82224 -1.41827,-0.018 -1.27609,-0.39293 0.75,-1.97776 1.375,-1.07554 2.8375,-1.96553 3.25,-1.97776 0.4125,-0.0122 0.75,5.28776 0.75,11.77776 0,7.84444 0.40226,12.20226 1.2,13 0.93333,0.93333 0.33333,1.2 -2.7,1.2 -3.03333,0 -3.63333,-0.26667 -2.7,-1.2 z m -582.8,-34.8 c 0,-9.11111 0.25758,-11 1.5,-11 1.24242,0 1.5,1.88889 1.5,11 0,9.11111 -0.25758,11 -1.5,11 -1.24242,0 -1.5,-1.88889 -1.5,-11 z m 1006.8715,-0.41204 c -3.6755,-7.65976 -4.4091,-11.60534 -2.1529,-11.57875 0.8812,0.0104 8.3015,15.83856 8.2893,17.68177 0,0.65504 -0.4641,1.47291 -1.0216,1.81749 -0.5674,0.35067 -2.8193,-3.13648 -5.1148,-7.92051 z M -441.1,202.46218 c -0.36606,-0.95394 -0.17057,-2.22944 0.43443,-2.83443 0.8,-0.8 1.28152,-0.62698 1.76557,0.63443 0.36606,0.95394 0.17057,2.22943 -0.43443,2.83443 -0.8,0.8 -1.28152,0.62698 -1.76557,-0.63443 z m 976,0 c -0.36606,-0.95394 -0.17057,-2.22944 0.43443,-2.83443 0.8,-0.8 1.28152,-0.62698 1.76557,0.63443 0.36606,0.95394 0.17057,2.22943 -0.43443,2.83443 -0.8,0.8 -1.28152,0.62698 -1.76557,-0.63443 z m 10,0 c -0.36606,-0.95394 -0.17057,-2.22944 0.43443,-2.83443 0.8,-0.8 1.28152,-0.62698 1.76557,0.63443 0.36606,0.95394 0.17057,2.22943 -0.43443,2.83443 -0.8,0.8 -1.28152,0.62698 -1.76557,-0.63443 z"
       id="path2996"
       inkscape:connector-curvature="0"
       inkscape:export-filename="/home/fake/Tesi-Magistrale/immagini/spectral_cut.png"
       inkscape:export-xdpi="54.935757"
       inkscape:export-ydpi="54.935757" />
  </g>
</svg>
